<?xml version="1.0" standalone="no"?>
<!DOCTYPE svg PUBLIC "-//W3C//DTD SVG 1.1//EN" "http://www.w3.org/Graphics/SVG/1.1/DTD/svg11.dtd" >
<svg xmlns="http://www.w3.org/2000/svg" xmlns:xlink="http://www.w3.org/1999/xlink" version="1.1">
<metadata>
Created by FontForge 20190801 at Wed Jul 15 12:36:03 2015
 By Jimmy Wärting
Copyright (c) 2015 by Kostas Bartsokas. All rights reserved.
</metadata>
<defs>
<font id="Averta-Bold" horiz-adv-x="1200" >
  <font-face 
    font-family="Averta"
    font-weight="700"
    font-stretch="normal"
    units-per-em="2048"
    panose-1="0 0 8 0 0 0 0 0 0 0"
    ascent="1581"
    descent="-467"
    x-height="1000"
    cap-height="1454.98"
    bbox="-493.99 -526 2927.99 2024.99"
    underline-thickness="108"
    underline-position="-186"
    stemh="192"
    stemv="209"
    unicode-range="U+0020-2E18"
  />
<missing-glyph horiz-adv-x="920" 
 />
    <glyph glyph-name=".notdef" horiz-adv-x="920" 
 />
    <glyph glyph-name="space" unicode=" " horiz-adv-x="539" 
 />
    <glyph glyph-name="A" unicode="A" horiz-adv-x="1430" 
d="M1094.98 0l-99 290.98h-558l-99 -290.98h-300.99l538.99 1454.98h278.02l541 -1454.98h-301.02zM520.99 536.98h390.99l-195 571h-1.99023z" />
    <glyph glyph-name="Aacute" unicode="&#xc1;" horiz-adv-x="1430" 
d="M1111.98 1907l-253.99 -302h-258.99l232 301zM1094.99 0l-99 290.98h-558l-99 -290.98h-300.99l538.99 1454.98h278.02l541 -1454.98h-301.02zM521 536.98h390.99l-195 571h-1.99023z" />
    <glyph glyph-name="Abreve" unicode="&#x102;" horiz-adv-x="1430" 
d="M715.98 1594c-170.99 0 -319.029 108.99 -334.02 307.99h202c5 -72 52 -129 132 -129c73.0098 0 127.01 48.9902 131.01 129.01h203c-14 -176 -138.99 -308 -333.99 -308zM1094.94 -0.00976562l-99 290.98h-558l-99 -290.98h-300.99l538.99 1454.98h278.02l541 -1454.98
h-301.02zM520.951 536.971h390.99l-195 571h-1.99023z" />
    <glyph glyph-name="uni1EAE" unicode="&#x1eae;" horiz-adv-x="1430" 
d="M1099.98 1943.98l-298 -211.99h-193l208 210zM715.961 1510.99c-178 0 -303.99 86 -349.99 243h173c25.9902 -70 90.9902 -106 176.99 -106c87 0 151 36 177.01 106h173c-45 -157 -170.99 -243 -350.01 -243zM1094.96 0l-99 290.98h-558l-99 -290.98h-300.99
l538.99 1454.98h278.02l541 -1454.98h-301.02zM520.971 536.98h390.99l-195 571h-1.99023z" />
    <glyph glyph-name="uni1EB6" unicode="&#x1eb6;" horiz-adv-x="1430" 
d="M716.98 1594c-170.99 0 -319.029 108.99 -334.02 307.99h202c5 -72 52 -129 132 -129c73.0195 0 127.01 48.9902 131.02 129.01h203c-14.0098 -176 -139 -308 -334 -308zM1395.96 -0.00976562h-301.02l-99 290.98h-558l-99 -290.98h-300.99l538.99 1454.98h278.02z
M520.951 536.98h390.99l-195 571h-1.99023zM716.941 -184c92 0 166.02 -73.0098 166.02 -164.01c0 -89 -74.0195 -163 -166.02 -163c-90.9902 0 -165.99 74 -165.99 163c0 91 75 164.01 165.99 164.01z" />
    <glyph glyph-name="uni1EB0" unicode="&#x1eb0;" horiz-adv-x="1430" 
d="M822.99 1731.99h-193.01l-298 211.99l283.01 -1.99023zM539.99 1753.99c25.9902 -70 90 -106 177 -106c86 0 151 36 176 106h174c-46 -157 -171.99 -243 -350.01 -243c-179 0 -304.99 86 -350.01 243h173.02zM1094.99 0l-99 290.98h-558l-99 -290.98h-300.99
l538.99 1454.98h278.02l541 -1454.98h-301.02zM521 536.98h390.99l-195 571h-1.99023z" />
    <glyph glyph-name="uni1EB2" unicode="&#x1eb2;" horiz-adv-x="1430" 
d="M709.98 1868.98c-45 0 -92.9707 -24.9512 -123.961 -53.9512l-82 80c47 47 135 85.9902 223.99 85.9902c110 0 175 -58 175 -138c0 -69 -59.9902 -120.02 -151.01 -141.01l-13.9902 -25.0098l-56.0195 -1c-31.9902 0 -50.9902 13 -50.9902 37
c0 53 130 73.9902 130 123.99c0 24.9902 -22.0195 31.9902 -51.0195 31.9902zM717.01 1511.03c-179 0 -304.98 86 -350 243h173.02c25.9902 -70 89.9902 -106 176.99 -106c83 0 149.99 34 176 106h174c-46 -157 -171.99 -243 -350.01 -243zM1095.02 0.0390625l-99 290.98
h-558l-99 -290.98h-300.99l538.99 1454.98h278.02l541 -1454.98h-301.02zM521.029 537.02h390.99l-195 571h-1.99023z" />
    <glyph glyph-name="uni1EB4" unicode="&#x1eb4;" horiz-adv-x="1430" 
d="M591.99 1858.99c-29 0 -63.9707 -29 -87.9707 -74l-126 43.9902c35.9902 93 108 159 197 159c69 0 117 -28 159.99 -49.0195c31 -14.9902 58 -27.9902 92 -27.9902c42 0 79 29 103 74l123.99 -31.9902c-35.9902 -105 -111.01 -171 -207 -171
c-59 0 -107 22 -149.99 43.0098c-38.0195 18 -72.0195 34 -105.02 34zM716.01 1510.99c-178 0 -303.99 86 -349.99 243h173c25.9902 -70 90.9902 -106 176.99 -106c87 0 151 36 177.01 106h173c-45 -157 -170.99 -243 -350.01 -243zM1095.01 0l-99 290.98h-558l-99 -290.98
h-300.99l538.99 1454.98h278.02l541 -1454.98h-301.02zM521.02 536.98h390.99l-195 571h-1.99023z" />
    <glyph glyph-name="Acircumflex" unicode="&#xc2;" horiz-adv-x="1430" 
d="M710.98 1754.99l-101.99 -154h-245l227 306.02h237l239 -306.02h-246.99l-103.02 154h-6zM1094.98 0.00976562l-99 290.98h-558l-99 -290.98h-300.99l538.99 1454.98h278.02l541 -1454.98h-301.02zM520.99 536.99h390.99l-195 571h-1.99023z" />
    <glyph glyph-name="uni1EA4" unicode="&#x1ea4;" horiz-adv-x="1430" 
d="M1521.99 1962.99l-305.01 -300.99h-199.99l232 299.99zM711.98 1722l-102 -154h-245l227 306h237l239 -306h-247l-103 154h-6zM576.961 1455h278.02l541 -1454.98h-301.02l-99 290.98h-558l-99 -290.98h-300.99zM520.98 537h390.99l-195 571h-1.99023z" />
    <glyph glyph-name="uni1EAC" unicode="&#x1eac;" horiz-adv-x="1430" 
d="M711.99 1754.99l-102 -154h-245l227 306.02h237l239 -306.02h-247l-103 154h-6zM1395.99 0.00976562h-301.02l-99 290.98h-558l-99 -290.98h-300.99l538.99 1454.98h278.02zM520.98 537h390.99l-195 571h-1.99023zM716.971 -183.98c92 0 166.02 -73.0098 166.02 -164.01
c0 -89 -74.0195 -163 -166.02 -163c-90.9902 0 -165.99 74 -165.99 163c0 91 75 164.01 165.99 164.01z" />
    <glyph glyph-name="uni1EA6" unicode="&#x1ea6;" horiz-adv-x="1430" 
d="M1321.98 1661.99h-195.99l-248 302l269.99 -1zM712.99 1721.99l-102.02 -154h-244.98l227 306h237l239 -306h-247l-103 154h-6zM1094.97 0l-99 290.98h-558l-99 -290.98h-300.99l538.99 1454.98h278.02l541 -1454.98h-301.02zM520.98 536.98h390.99l-195 571h-1.99023z
" />
    <glyph glyph-name="uni1EA8" unicode="&#x1ea8;" horiz-adv-x="1430" 
d="M1163 1855c-50 0 -104 -28.0195 -138 -61.0098l-93 89c53 53 152 97 251 97c127 0 200.01 -69 200.01 -162c0 -84 -68.0195 -141 -174 -165l-15.0195 -49.9902l-102.99 -2.99023c-21 19.9902 -38 38.9902 -38 61.9902c0 63 159.99 86 159.99 155c0 25 -18 38 -49.9902 38
zM709.98 1722l-101.99 -154h-245l227 306h237l239 -306h-246.99l-103.02 154h-6zM1094.99 0.00976562l-99 290.98h-558l-99 -290.98h-300.99l538.99 1454.98h278.02l541 -1454.98h-301.02zM521 536.99h390.99l-195 571h-1.99023z" />
    <glyph glyph-name="uni1EAA" unicode="&#x1eaa;" horiz-adv-x="1430" 
d="M591.99 1858.99c-29 0 -63.9707 -29 -87.9707 -74l-126 43.9902c35.9902 93 108 159 197 159c69 0 117 -28 159.99 -49.0195c31 -14.9902 58 -27.9902 92 -27.9902c42 0 79 29 103 74l123.99 -31.9902c-35.9902 -105 -111.01 -171 -207 -171
c-59 0 -107 22 -149.99 43.0098c-38.0195 18 -72.0195 34 -105.02 34zM710.01 1633.99l-121.98 -125.01h-236l247 239h220l257.98 -239h-238l-123 125.01h-6zM1095.03 -0.00976562l-99 290.98h-558l-99 -290.98h-300.99l538.99 1454.98h278.02l541 -1454.98h-301.02z
M521.039 536.971h390.99l-195 571h-1.99023z" />
    <glyph glyph-name="Adieresis" unicode="&#xc4;" horiz-adv-x="1430" 
d="M500 1606.98c-93 0 -167.02 73.0098 -167.02 164.01c0 89 74.0195 163 167.02 163c89.9902 0 165.99 -74 165.99 -163c0 -91 -76 -164.01 -165.99 -164.01zM929 1608.98c-91.0098 0 -165.01 72.9902 -165.01 161.99c0 87 74 162 165.01 162c89 0 164 -75 164 -162
c0 -89 -75 -161.99 -164 -161.99zM1094.99 -0.00976562l-99 290.98h-558l-99 -290.98h-300.99l538.99 1454.98h278.02l541 -1454.98h-301.02zM521 536.971h390.99l-195 571h-1.99023z" />
    <glyph glyph-name="uni1EA0" unicode="&#x1ea0;" horiz-adv-x="1430" 
d="M1396 0h-301.02l-99 290.98h-558l-99 -290.98h-300.99l538.99 1454.98h278.02zM520.99 536.99h390.99l-195 571h-1.99023zM716.98 -183.99c92 0 166.02 -73.0098 166.02 -164.01c0 -89 -74.0195 -163 -166.02 -163c-90.9902 0 -165.99 74 -165.99 163
c0 91 75 164.01 165.99 164.01z" />
    <glyph glyph-name="Agrave" unicode="&#xc0;" horiz-adv-x="1430" 
d="M832.98 1605h-259l-253 302l281 -1zM1094.97 0l-99 290.98h-558l-99 -290.98h-300.99l538.99 1454.98h278.02l541 -1454.98h-301.02zM520.98 536.98h390.99l-195 571h-1.99023z" />
    <glyph glyph-name="uni1EA2" unicode="&#x1ea2;" horiz-adv-x="1430" 
d="M716.98 1816.99c-49.9902 0 -103.98 -28.0098 -137.98 -61l-93 88.9902c53 53 152 97.0195 251 97.0195c136.99 0 211.01 -69 211.01 -162c0 -85.0098 -68.0195 -142.01 -185.02 -165.01l-14.9902 -50l-103 -3c-21.0195 20.0098 -38.0195 38.0098 -38.0195 61.9902
c0 63.0195 168 86.0195 168 154.02c0 31 -26.9902 38.9902 -58 38.9902zM1094.99 -0.00976562l-99 290.98h-558l-99 -290.98h-300.99l538.99 1454.98h278.02l541 -1454.98h-301.02zM521 536.971h390.99l-195 571h-1.99023z" />
    <glyph glyph-name="Amacron" unicode="&#x100;" horiz-adv-x="1430" 
d="M1027.99 1873.98v-214h-623v214h623zM1094.98 -0.00976562l-99 290.98h-558l-99 -290.98h-300.99l538.99 1454.98h278.02l541 -1454.98h-301.02zM520.99 536.971h390.99l-195 571h-1.99023z" />
    <glyph glyph-name="Aogonek" unicode="&#x104;" horiz-adv-x="1430" 
d="M1253.99 -230.99c51 0 60.0098 6 81 13.9902l13 -145c-40 -18 -95 -24.9902 -149 -24.9902c-144 0 -232 75.9902 -232 186.99c0 64 42 146 127 203l-98 287.98h-558l-99 -290.98h-300.99l538.99 1454.98h278.02l541 -1454.98h-59c-104 -18 -167.02 -86 -167.02 -148
c0 -51 30 -82.9902 84 -82.9902zM520.99 536.99h390.99l-195 571h-1.99023z" />
    <glyph glyph-name="Aring" unicode="&#xc5;" horiz-adv-x="1430" 
d="M715 1558c-120.02 0 -220.01 89.9707 -220.01 213.98c0 117 91.0098 214 220.01 214c122.99 0 221.99 -89.9902 221.99 -213.99c0 -117 -89.9902 -213.99 -221.99 -213.99zM715.01 1850.96c-43 0 -77 -35.9902 -77 -76.9902c0 -43 34 -76 77 -76
c42.9902 0 76.9902 34 76.9902 76.9902c0 41 -34 76 -76.9902 76zM1095 -0.0195312l-99 290.98h-558l-99 -290.98h-300.99l538.99 1454.98h278.02l541 -1454.98h-301.02zM521.01 536.961h390.99l-195 571h-1.99023z" />
    <glyph glyph-name="Aringacute" unicode="&#x1fa;" horiz-adv-x="1430" 
d="M715.98 1558c-120 0 -220.01 89.9902 -220.01 214c0 117 91.0195 214 220.01 214c59 0 113 -21 153 -56l122 93l286 1.99023l-340 -269.99c-7.99023 -109 -94.9902 -197 -221 -197zM715.971 1850.98c-42.9902 0 -76.9902 -35.9902 -76.9902 -76.9902
c0 -43 34 -76 76.9902 -76c43 0 77 34 77 76.9902c0 41 -34 76 -77 76zM1094.97 0l-99 290.98h-558l-99 -290.98h-300.99l538.99 1454.98h278.02l541 -1454.98h-301.02zM520.98 536.98h390.99l-195 571h-1.99023z" />
    <glyph glyph-name="Atilde" unicode="&#xc3;" horiz-adv-x="1430" 
d="M593 1700.99l0.0585938 -0.00976562c-51.0195 0 -89.0098 -40 -115.02 -101.99l-159.99 69c42 136.99 125.99 238 246 238c83.9902 0 131.99 -30 175.98 -55.9902c37 -23.0195 69.9902 -45.0195 110.99 -45.0195c49 0 90 39.0195 115.99 100.01l157 -52
c-41 -152 -125.99 -256 -239.99 -256c-75.0195 0 -131.02 31.0098 -179.02 61.0098c-39 23 -73 42.9902 -112 42.9902zM1095.05 -0.00976562l-99 290.98h-558l-99 -290.98h-300.99l538.99 1454.98h278.02l541 -1454.98h-301.02zM521.059 536.971h390.99l-195 571h-1.99023z
" />
    <glyph glyph-name="AE" unicode="&#xc6;" horiz-adv-x="1957" 
d="M1171.99 256.98l689.01 -0.00976562v-256.98h-973v290.98h-428.01l-144 -290.98h-303l728 1454.98h1079.01v-257.99h-648.01v-348h526.99v-253h-526.99v-339zM581 536.971h307v614.01h-4z" />
    <glyph glyph-name="AEacute" unicode="&#x1fc;" horiz-adv-x="1957" 
d="M1331 1907l-254.02 -302h-258.99l232 301zM1171.98 256.98l689.01 -0.00976562v-256.98h-973v290.98h-428.01l-144 -290.98h-303l728 1454.98h1079.01v-257.99h-648.01v-348h526.99v-253h-526.99v-339zM580.99 536.971h307v614.01h-4z" />
    <glyph glyph-name="B" unicode="B" horiz-adv-x="1319" 
d="M942 770.99c186 -47 292 -177.01 292 -369.01c0 -233 -153.99 -401.98 -471.99 -401.98h-602.01v1454.98h525c309 0 474.99 -123.99 474.99 -355.01c0 -129.99 -60 -263.99 -217.99 -324.99v-3.99023zM442.99 1199.97v-341h206c115 0 219 52 219 171.99
c0 101.01 -70 170.01 -238 169.01h-187zM674.99 252.971c154 1 259 61.0098 259 185c0 114.01 -85 189.01 -256 189.01h-235v-374.01h232z" />
    <glyph glyph-name="C" unicode="C" horiz-adv-x="1486" 
d="M841.99 -14.9902c-398 0 -741.01 257.96 -741.01 737.95c0 415.01 266 749.02 741.01 749.02c199.99 0 418.99 -83.0098 578.98 -279.01l-210.99 -180c-85.0098 102.01 -217.01 185.01 -368.01 185.01c-253 0 -440 -184 -440 -475c0 -269.98 180 -464.98 440.01 -464.98
c151 0 281.99 77 368.01 184l210.99 -181c-124.99 -156.02 -321.99 -275.989 -578.99 -275.989z" />
    <glyph glyph-name="Cacute" unicode="&#x106;" horiz-adv-x="1486" 
d="M695.99 1605l232 301l281.01 1l-254.02 -302h-258.99zM841.99 -14.9805c-398 0 -741.01 257.96 -741.01 737.95c0 415.01 266 749.02 741.01 749.02c199.99 0 418.99 -83.0098 578.98 -279.01l-210.99 -180c-85.0098 102.01 -217.01 185.01 -368.01 185.01
c-253 0 -440 -184 -440 -475c0 -269.98 180 -464.98 440.01 -464.98c151 0 281.99 77 368.01 184l210.99 -181c-124.99 -156.02 -321.99 -275.989 -578.99 -275.989z" />
    <glyph glyph-name="Ccaron" unicode="&#x10c;" horiz-adv-x="1486" 
d="M955.99 1600.98h-236.99l-232 306.02h246l102 -154h6l102.99 154h246zM842 257.98c151 0 281.98 76.9795 368 183.979l210.99 -181c-124.99 -156.02 -321.99 -275.989 -578.99 -275.989c-398 0 -741 257.98 -741 737.971c0 415.01 266 749.02 741.01 749.02
c199.99 0 418.99 -83.0098 578.98 -279.01l-210.99 -180c-85.0098 102.01 -217.01 185.01 -368.01 185.01c-253 0 -440 -184 -440 -475c0 -269.98 180 -464.98 440.01 -464.98z" />
    <glyph glyph-name="Ccedilla" unicode="&#xc7;" horiz-adv-x="1486" 
d="M841.99 257.98c151 0 282.01 77.0195 368.029 184.02l210.99 -181c-123 -153 -314 -270.98 -564 -275.98l-24 -46.0195l2 -3c121 -5 188.01 -62 188.01 -165.02c0 -93 -73.0098 -162 -251.01 -162c-59 0 -94 6 -125.01 12v120.01
c26.0098 -9.00977 56.0098 -14.0098 105 -14.0098c46 0 98 14.9902 98 57.9902c0 37 -58.9902 66 -168.01 66v76l31.0098 63v3.99023c-340.01 49.9902 -612.01 301.99 -612.01 728.98c0 415.01 266 749.02 741.01 749.02c199.99 0 418.99 -83.0098 578.98 -279.01
l-210.99 -180c-85.0098 102.01 -217.01 185.01 -368.01 185.01c-253 0 -440 -184 -440 -475c0 -269.98 180 -464.98 440.01 -464.98z" />
    <glyph glyph-name="Ccircumflex" unicode="&#x108;" horiz-adv-x="1486" 
d="M833.99 1754.99l-102 -154h-245l227 306.02h237l239 -306.02h-247l-103 154h-6zM841.99 257.99c151 0 281.98 76.9795 368 183.979l210.99 -181c-124.99 -156.02 -321.99 -275.989 -578.99 -275.989c-398 0 -741 257.98 -741 737.971c0 415.01 266 749.02 741.01 749.02
c199.99 0 418.99 -83.0098 578.98 -279.01l-210.99 -180c-85.0098 102.01 -217.01 185.01 -368.01 185.01c-253 0 -440 -184 -440 -475c0 -269.98 180 -464.98 440.01 -464.98z" />
    <glyph glyph-name="Cdotaccent" unicode="&#x10a;" horiz-adv-x="1486" 
d="M838.98 1606.98c-92 0 -166 73.0098 -166 164.01c0 89 74 163 166 163c91.0195 0 166.02 -74 166.02 -163c0 -91 -75 -164.01 -166.02 -164.01zM841.98 -14.9893c-398 0 -741.01 257.96 -741.01 737.95c0 415.01 266 749.02 741.01 749.02
c199.99 0 418.99 -83.0098 578.98 -279.01l-210.99 -180c-85.0098 102.01 -217.01 185.01 -368.01 185.01c-253 0 -440 -184 -440 -475c0 -269.98 180 -464.98 440.01 -464.98c151 0 281.99 77 368.01 184l210.99 -181c-124.99 -156.02 -321.99 -275.989 -578.99 -275.989z
" />
    <glyph glyph-name="D" unicode="D" horiz-adv-x="1496" 
d="M159.99 0l-0.00976562 1454.99h481c460 0 755.02 -299.99 755.02 -729.99c0 -429 -281 -725 -749.01 -725h-487zM443.98 256.99l184.99 -0.00976562c283.01 0 468.01 202.02 468.01 468.02c0 273 -188 472 -450 472h-203v-940.01z" />
    <glyph glyph-name="Eth" unicode="&#xd0;" horiz-adv-x="1496" 
d="M640.98 1454.98c460 0 755.01 -299.99 755.01 -729.99c0 -429 -281 -725 -749.01 -725h-487v598h-110v240.99h110v616h481zM628.971 256.98c283.01 0 468 202.02 468 468.02c0 273 -188 472 -450 472h-203v-358.01h226v-240.99h-226v-341.02h185z" />
    <glyph glyph-name="Dcaron" unicode="&#x10e;" horiz-adv-x="1496" 
d="M850.98 1600h-236.99l-232 305.99h246l101.99 -154h6l103 154h246zM640.98 1454.98c460 0 755.01 -299.98 755.01 -729.98c0 -429 -281 -725 -749.01 -725h-487v1454.98h481zM628.971 256.99c283.01 0 468 202.01 468 468.01c0 273 -188 472 -450 472h-203v-940.01h185z
" />
    <glyph glyph-name="Dcroat" unicode="&#x110;" horiz-adv-x="1496" 
d="M640.98 1454.98c460 0 755.01 -299.99 755.01 -729.99c0 -429 -281 -725 -749.01 -725h-487v598h-110v240.99h110v616h481zM628.971 256.98c283.01 0 468 202.02 468 468.02c0 273 -188 472 -450 472h-203v-358.01h226v-240.99h-226v-341.02h185z" />
    <glyph glyph-name="E" unicode="E" horiz-adv-x="1228" 
d="M158.99 0l-0.00976562 1454.97h930v-257.99h-646v-349h518v-254h-518v-337h689.01v-256.98h-973z" />
    <glyph glyph-name="Eacute" unicode="&#xc9;" horiz-adv-x="1228" 
d="M419.98 1603.99l232.01 301l281 1l-254 -302h-259.01zM158.99 0l-0.00976562 1454.97h930v-257.99h-646v-349h518v-254h-518v-337h689.01v-256.98h-973z" />
    <glyph glyph-name="Ebreve" unicode="&#x114;" horiz-adv-x="1228" 
d="M636.99 1593c-171 0 -319.01 108.99 -334.02 307.99h202.02c5 -72 52 -129 132 -129c73 0 127 49 131.02 129h203c-14.0098 -176 -139 -307.99 -334.02 -307.99zM158.971 -0.00976562l-0.00976562 1454.97h930v-257.99h-646v-349h518v-254h-518v-337h689.01v-256.98h-973
z" />
    <glyph glyph-name="Ecaron" unicode="&#x11a;" horiz-adv-x="1228" 
d="M753.99 1600h-237.01l-232 305.99h245.99l102.02 -154h6l103 154h246zM442.961 256.98l689 -0.00976562v-256.98h-973v1454.98h930v-257.99h-646v-349h518v-254h-518v-337z" />
    <glyph glyph-name="Ecircumflex" unicode="&#xca;" horiz-adv-x="1228" 
d="M631.99 1753.99l-102 -153.99h-244.99l227 305.99h236.99l239 -305.99h-247l-103 153.99h-6zM442.99 256.98l689 -0.00976562v-256.98h-973v1454.98h930v-257.99h-646v-349h518v-254h-518v-337z" />
    <glyph glyph-name="uni1EBE" unicode="&#x1ebe;" horiz-adv-x="1228" 
d="M1169.98 1960.98l272.98 1l-304.98 -301h-200zM632.98 1720.99l-102.02 -154h-245l227 306.01h237.02l239 -306.01h-247l-103 154h-6zM442.961 593.99l-0.00976562 -337.01h689.01v-256.98h-973v1454.98h930v-257.99h-646v-349h518v-254h-518z" />
    <glyph glyph-name="uni1EC6" unicode="&#x1ec6;" horiz-adv-x="1228" 
d="M633 1753.99l-102.02 -153.99h-245l227 305.99h237.02l239 -305.99h-247l-103 153.99h-6zM442.98 256.98l689 -0.00976562v-256.98h-973v1454.98h930v-257.99h-646v-349h518v-254h-518v-337zM649.98 -183.999c92 0 165.99 -73.0098 165.99 -164.01
c0 -89 -73.9902 -163 -165.99 -163c-91.0098 0 -166.01 74 -166.01 163c0 91 75 164.01 166.01 164.01z" />
    <glyph glyph-name="uni1EC0" unicode="&#x1ec0;" horiz-adv-x="1228" 
d="M1242.99 1660.99h-196l-248 302l270 -1zM633.99 1720.99l-102.02 -154h-245l227 306.01h237l239 -306.01h-246.99l-102.99 154h-6zM442.971 593.99l-0.00976562 -337.01h689.01v-256.98h-973v1454.98h930v-257.99h-646v-349h518v-254h-518z" />
    <glyph glyph-name="uni1EC2" unicode="&#x1ec2;" horiz-adv-x="1228" 
d="M1103.99 1978.98c127 0 200 -68.9805 200 -161.98c0 -83.9902 -68 -141.01 -174 -165l-14.9902 -50l-103 -2.99023c-21.0098 19.9902 -38.0098 39 -38.0098 62c0 63 160 86 160 155c0 25 -18 38 -50 38c-50 0 -104 -28 -138 -61.0195l-93 89
c53 53 152 96.9902 251 96.9902zM631 1721.02l-102 -154h-245l227 306.01h237l239 -306.01h-247l-103 154h-6zM442.98 594.02l-0.00976562 -337.01h689.01v-256.98h-973v1454.98h930v-257.99h-646v-349h518v-254h-518z" />
    <glyph glyph-name="uni1EC4" unicode="&#x1ec4;" horiz-adv-x="1228" 
d="M512.98 1857.99c-29 0 -63.9902 -29.0098 -87.9902 -74.0098l-126 43.9902c36 93 108 159.01 196.99 159.01c69 0 117 -28 160 -49.0098c30.9902 -14.9902 58 -27.9902 92 -27.9902c42 0 78.9902 29 102.99 74.0195l124.01 -32.0195c-36 -105 -111 -171 -206.99 -171
c-59 0 -107 22.0195 -150 43.0098c-37.9902 18 -71.9902 34 -105.01 34zM630.99 1632.98l-122.01 -125.01h-235.99l246.99 239h220l258.01 -239h-238l-123 125.01h-6zM442.98 256.971l689 -0.00976562v-256.98h-973v1454.98h930v-257.99h-646v-349h518v-254h-518v-337z" />
    <glyph glyph-name="Edieresis" unicode="&#xcb;" horiz-adv-x="1228" 
d="M420.99 1605.98c-93 0 -167 73.0098 -167 164c0 89.0098 74 163 167 163c90.0098 0 166.01 -73.9902 166.01 -163c0 -90.9902 -76 -164 -166.01 -164zM849.99 1607.98c-91 0 -165 73.0098 -165 162c0 87 74 162 165 162c89 0 164 -75 164 -162
c0 -88.9902 -75 -162 -164 -162zM158.99 -0.00976562l-0.00976562 1454.97h930v-257.99h-646v-349h518v-254h-518v-337h689.01v-256.98h-973z" />
    <glyph glyph-name="Edotaccent" unicode="&#x116;" horiz-adv-x="1228" 
d="M636.99 1605.98c-92 0 -166 73.0098 -166 164c0 89.0098 74 163 166 163c91 0 166 -73.9902 166 -163c0 -90.9902 -75 -164 -166 -164zM158.99 0l-0.00976562 1454.97h930v-257.99h-646v-349h518v-254h-518v-337h689.01v-256.98h-973z" />
    <glyph glyph-name="uni1EB8" unicode="&#x1eb8;" horiz-adv-x="1228" 
d="M158.99 0l-0.00976562 1454.97h930v-257.99h-646v-349h518v-254h-518v-337h689.01v-256.98h-973zM649.98 -183.999c92 0 165.99 -73.0098 165.99 -164.01c0 -89 -73.9902 -163 -165.99 -163c-91.0098 0 -166.01 74 -166.01 163c0 91 75 164.01 166.01 164.01z" />
    <glyph glyph-name="Egrave" unicode="&#xc8;" horiz-adv-x="1228" 
d="M605.98 1603.99l-252.99 302l281 -1l231 -301h-259.01zM158.99 0l-0.00976562 1454.97h930v-257.99h-646v-349h518v-254h-518v-337h689.01v-256.98h-973z" />
    <glyph glyph-name="uni1EBA" unicode="&#x1eba;" horiz-adv-x="1228" 
d="M565.99 1560.99c-21 20 -37.9902 38.0293 -37.9902 62.0293c0 63 168 86 168 154c0 31 -27 38.9902 -58 38.9902c-50 0 -103.99 -28 -137.99 -61l-93 89c52.9902 52.9902 151.99 96.9902 250.99 96.9902c137 0 211 -69 211 -162c0 -85.0195 -68 -142.02 -185 -165.02
l-15 -49.9902zM159 0.0292969l-0.00976562 1454.97h930v-257.99h-646v-349h518v-254h-518v-337h689.01v-256.98h-973z" />
    <glyph glyph-name="Emacron" unicode="&#x112;" horiz-adv-x="1228" 
d="M325.98 1658.98v214.02h623v-214.02h-623zM158.98 0l-0.00976562 1454.97h930v-257.99h-646v-349h518v-254h-518v-337h689.01v-256.98h-973z" />
    <glyph glyph-name="Eogonek" unicode="&#x118;" horiz-adv-x="1228" 
d="M1108.99 0c-104 -18 -167.01 -86.0293 -167.01 -148.029c0 -51 29.9902 -82.9902 83.9902 -82.9902c51 0 60.0098 6 81 13.9902l13 -145c-40 -18 -95 -24.9902 -148.99 -24.9902c-144.02 0 -232.02 75.9902 -232.02 186.99c0 62.0195 39.0195 140.01 119.02 197.029
v2.99023h-699v1454.98h930v-257.99h-646v-349h518v-254h-518v-337h689.01v-256.98h-23z" />
    <glyph glyph-name="uni1EBC" unicode="&#x1ebc;" horiz-adv-x="1228" 
d="M805.99 1595.99c-75 0 -131.049 31.0195 -179.029 61.0195c-39.0195 23 -73.0195 42.9902 -112.01 42.9902c-51 0 -89 -40 -114.99 -102l-160 69c42 136.99 126.01 237.99 246.01 237.99c84 0 131.99 -30 176.01 -55.9902c36.9902 -23 70.0098 -45.0195 111.01 -45.0195
c48.9902 0 89.9902 39.0195 116 100.01l157 -52c-41 -152 -126.01 -256 -240 -256zM158.961 0.0195312l-0.00976562 1454.97h930v-257.99h-646v-349h518v-254h-518v-337h689.01v-256.98h-973z" />
    <glyph glyph-name="F" unicode="F" horiz-adv-x="1204" 
d="M159.99 0v1454.98h965v-257.99h-681v-389h568.01v-257h-568.01v-550.99h-284z" />
    <glyph glyph-name="G" unicode="G" horiz-adv-x="1542" 
d="M843 -14c-419 0 -742.029 273.01 -742.029 739.01c0 425 276.01 747.01 730.01 747.01c205.99 0 427.99 -80.0195 577.99 -249.02l-204 -173c-89.9902 87 -213.99 151 -373.98 151c-239 0 -430 -179 -430 -476c0 -267 169 -476 442 -476c105 0 202 24.9902 295 82.9902
v214.02h-327v246.99h605v-627c-132 -107.01 -349 -180 -572.99 -180z" />
    <glyph glyph-name="Gbreve" unicode="&#x11e;" horiz-adv-x="1542" 
d="M817.99 1593c-171 0 -319 108.99 -334.02 307.99h202.02c5 -72 52 -129 132 -129c72.9902 0 126.99 49 130.99 129h203.02c-14.0098 -176 -139.02 -307.99 -334.01 -307.99zM842.98 -14.0098c-419 0 -742.029 273.01 -742.029 739.01c0 425 276.01 747.01 730.01 747.01
c205.99 0 427.99 -80.0195 577.99 -249.02l-204 -173c-89.9902 87 -213.99 151 -373.98 151c-239 0 -430 -179 -430 -476c0 -267 169 -476 442 -476c105 0 202 24.9902 295 82.9902v214.02h-327v246.99h605v-627c-132 -107.01 -349 -180 -572.99 -180z" />
    <glyph glyph-name="Gcaron" unicode="&#x1e6;" horiz-adv-x="1542" 
d="M936 1600h-237.01l-232 305.99h246l101.99 -154h6l103.02 154h245.99zM810.99 792.98l604.98 0.00976562v-627c-132 -107.01 -349 -180 -572.99 -180c-419 0 -742.01 273 -742.01 739c0 425 276.01 747.01 730.01 747.01c205.99 0 427.99 -80.0195 577.99 -249.02
l-204 -173c-89.9902 87 -213.99 151 -373.98 151c-239 0 -430 -179 -430 -476c0 -267 169 -476 442 -476c105 0 202 24.9902 295 82.9902v214.02h-327v246.99z" />
    <glyph glyph-name="Gcircumflex" unicode="&#x11c;" horiz-adv-x="1542" 
d="M812.99 1753.99l-102.029 -153.99h-245l227 305.99h237.02l239 -305.99h-247l-102.99 153.99h-6zM810.961 792.98l604.98 0.00976562v-627c-132 -107.01 -349 -180 -572.99 -180c-419 0 -742.01 273 -742.01 739c0 425 276.01 747.01 730.01 747.01
c205.99 0 427.99 -80.0195 577.99 -249.02l-204 -173c-89.9902 87 -213.99 151 -373.98 151c-239 0 -430 -179 -430 -476c0 -267 169 -476 442 -476c105 0 202 24.9902 295 82.9902v214.02h-327v246.99z" />
    <glyph glyph-name="Gcommaaccent" unicode="&#x122;" horiz-adv-x="1542" 
d="M843 -14c-419 0 -742.029 273.01 -742.029 739.01c0 425 276.01 747.01 730.01 747.01c205.99 0 427.99 -80.0195 577.99 -249.02l-204 -173c-89.9902 87 -213.99 151 -373.98 151c-239 0 -430 -179 -430 -476c0 -267 169 -476 442 -476c105 0 202 24.9902 295 82.9902
v214.02h-327v246.99h605v-627c-132 -107.01 -349 -180 -572.99 -180zM656.98 -450.98l-56.0098 151.01c81 23.9902 112.01 53.9902 112.01 113.99c0 28 -4 45 -12.0098 78h231c7 -30 9 -55.0098 9 -92.0098c0 -169 -119 -257.99 -283.99 -250.99z" />
    <glyph glyph-name="Gdotaccent" unicode="&#x120;" horiz-adv-x="1542" 
d="M817.99 1605.98c-92 0 -166.02 73.0098 -166.02 164c0 89.0098 74.0195 163 166.02 163c90.9902 0 165.99 -73.9902 165.99 -163c0 -90.9902 -75 -164 -165.99 -164zM842.99 -14.0098c-419 0 -742.029 273.01 -742.029 739.01c0 425 276.01 747.01 730.01 747.01
c205.99 0 427.99 -80.0195 577.99 -249.02l-204 -173c-89.9902 87 -213.99 151 -373.98 151c-239 0 -430 -179 -430 -476c0 -267 169 -476 442 -476c105 0 202 24.9902 295 82.9902v214.02h-327v246.99h605v-627c-132 -107.01 -349 -180 -572.99 -180z" />
    <glyph glyph-name="H" unicode="H" horiz-adv-x="1493" 
d="M159.99 0v1454.98h289v-629.99h595v629.99h290v-1454.98h-290v567.99h-595v-567.99h-289z" />
    <glyph glyph-name="Hbar" unicode="&#x126;" horiz-adv-x="1498" 
d="M1436 1227.98v-169h-100v-1058.98h-290v567.99h-595v-567.99h-289v1058.98h-99v169h99v227h289v-227h595v227h290v-227h100zM1046 825v233.98h-595v-233.98h595z" />
    <glyph glyph-name="Hcircumflex" unicode="&#x124;" horiz-adv-x="1493" 
d="M747.99 1754.99l-102.01 -154h-244.99l227 306.02h237l239 -306.02h-247l-103 154h-6zM1043.98 1454.99h290v-1454.98h-290v567.99h-595v-567.99h-289v1454.98h289v-629.99h595v629.99z" />
    <glyph glyph-name="I" unicode="I" horiz-adv-x="628" 
d="M168.98 0v1454.98h290.02v-1454.98h-290.02z" />
    <glyph glyph-name="IJ" unicode="&#x132;" horiz-adv-x="1664" 
d="M168.98 0v1454.98h290.02v-1454.98h-290.02zM1076 -14.0098c-144.02 0 -300.01 62 -399.01 190l164 203c52 -69 135 -125 216 -125c100.99 0 176.99 60 176.99 252.99v948h289.02v-942.98c0 -322.01 -121 -526.01 -447 -526.01z" />
    <glyph glyph-name="Iacute" unicode="&#xcd;" horiz-adv-x="629" 
d="M193.99 1603.99l232 301l281.01 1l-254 -302h-259.01zM168.99 0v1454.98h290.02v-1454.98h-290.02z" />
    <glyph glyph-name="Ibreve" unicode="&#x12c;" horiz-adv-x="628" 
d="M311.99 1593c-171 0 -318.99 108.99 -333.99 307.99h201.99c5 -72 52 -129 132 -129c72.9902 0 126.99 49 130.99 129h203c-13.9902 -176 -139 -307.99 -333.99 -307.99zM168.98 -0.00976562v1454.98h290.02v-1454.98h-290.02z" />
    <glyph glyph-name="Icircumflex" unicode="&#xce;" horiz-adv-x="628" 
d="M307 1753.99l-102.029 -153.99h-244.98l226.98 305.99h237.02l239 -305.99h-247l-102.99 153.99h-6zM168.971 0v1454.98h290.02v-1454.98h-290.02z" />
    <glyph glyph-name="Idieresis" unicode="&#xcf;" horiz-adv-x="628" 
d="M95.9902 1605.98c-93 0 -166.99 73.0098 -166.99 164c0 89.0098 73.9902 163 166.99 163c90.0098 0 166 -73.9902 166 -163c0 -90.9902 -75.9902 -164 -166 -164zM524.99 1607.98c-90.9902 0 -164.99 73.0098 -164.99 162c0 87 74 162 164.99 162
c89.0098 0 164.01 -75 164.01 -162c0 -88.9902 -75 -162 -164.01 -162zM168.99 -0.00976562v1454.98h290.02v-1454.98h-290.02z" />
    <glyph glyph-name="Idotaccent" unicode="&#x130;" horiz-adv-x="628" 
d="M311.99 1605.98c-92 0 -166.02 73.0098 -166.02 164c0 89.0098 74.0195 163 166.02 163c90.9902 0 165.99 -73.9902 165.99 -163c0 -90.9902 -75 -164 -165.99 -164zM168.99 0v1454.98h290.02v-1454.98h-290.02z" />
    <glyph glyph-name="uni1ECA" unicode="&#x1eca;" horiz-adv-x="628" 
d="M168.98 0v1454.98h290.02v-1454.98h-290.02zM314.98 -183.989c92.0195 0 166.02 -73.0098 166.02 -164.01c0 -89 -74 -163 -166.02 -163c-91 0 -166 74 -166 163c0 91 75 164.01 166 164.01z" />
    <glyph glyph-name="Igrave" unicode="&#xcc;" horiz-adv-x="628" 
d="M186.98 1603.99l-252.99 302l281 -1l231 -301h-259.01zM168.98 0v1454.98h290.02v-1454.98h-290.02z" />
    <glyph glyph-name="uni1EC8" unicode="&#x1ec8;" horiz-adv-x="628" 
d="M240.99 1560.99c-20.9902 20 -37.9707 38.0293 -37.9707 62.0293c0 63 168 86 168 154c0 31 -27.0195 38.9902 -58.0098 38.9902c-50.0195 0 -104.01 -28 -138.029 -61l-93 89c53 52.9902 152 96.9902 251 96.9902c137.02 0 211.01 -69 211.01 -162
c0 -85.0195 -67.9902 -142.02 -184.99 -165.02l-15.0098 -49.9902zM169.01 0.0292969v1454.98h290.02v-1454.98h-290.02z" />
    <glyph glyph-name="Imacron" unicode="&#x12a;" horiz-adv-x="628" 
d="M0.980469 1658.98v214.02h623v-214.02h-623zM168.98 0v1454.98h290.02v-1454.98h-290.02z" />
    <glyph glyph-name="Iogonek" unicode="&#x12e;" horiz-adv-x="628" 
d="M412 0c-104 -18 -167.02 -86.0098 -167.02 -148.01c0 -51 30 -82.9902 84 -82.9902c51 0 60.0098 6 81 13.9902l13 -145c-40 -18 -95 -24.9902 -149 -24.9902c-144 0 -232 75.9902 -232 186.99c0 64 42 146 127 203v1451.99h290.02v-1454.98h-47z" />
    <glyph glyph-name="Itilde" unicode="&#x128;" horiz-adv-x="628" 
d="M479.99 1595.99c-75 0 -131 31.0195 -179 61.0195c-39 23 -73 42.9902 -112 42.9902c-51 0 -89 -40 -114.99 -102l-159.99 69c42 136.99 125.99 237.99 245.98 237.99c84.0098 0 132 -30 176 -55.9902c36.9902 -23 70.0098 -45.0195 111.01 -45.0195
c48.9902 0 89.9902 39.0195 116 100.01l157 -52c-41 -152 -126.01 -256 -240.01 -256zM168.99 0.0195312v1454.98h290.02v-1454.98h-290.02z" />
    <glyph glyph-name="J" unicode="J" horiz-adv-x="1036" 
d="M448 -14c-144.02 0 -300.01 62 -399.01 190l164 203c52 -69 135 -125 216 -125c100.99 0 176.99 60 176.99 252.99v948h289.02v-942.98c0 -322.01 -121.02 -526.01 -447 -526.01z" />
    <glyph glyph-name="Jcircumflex" unicode="&#x134;" horiz-adv-x="1036" 
d="M746.99 1754.99l-101.99 -154h-245l227 306.02h236.99l239 -306.02h-247l-103 154h-6zM605.98 506.99l0.00976562 948.01h289.02v-942.98c0 -322.01 -121.02 -526.01 -447 -526.01c-144.02 0 -300.02 61.9902 -399.02 189.99l164 203c52 -69 135 -125 216 -125
c100.99 0 176.99 60 176.99 252.99z" />
    <glyph glyph-name="K" unicode="K" horiz-adv-x="1364" 
d="M590.99 582.98h-3.00977l-140.99 -169v-413.98h-287.01v1454.98h287.01v-640.99h1.99023l503.01 640.99h363.99l-536 -641.99l554 -812.99h-355z" />
    <glyph glyph-name="Kcommaaccent" unicode="&#x136;" horiz-adv-x="1364" 
d="M779.98 812.99l553.99 -812.99h-355l-387.99 582.98h-3l-140.99 -169v-413.98h-287.01v1454.98h287.01v-640.99h1.99023l503.01 640.99h363.99zM577.971 -107.99l231.02 0.00976562c7 -30 9 -55.0098 9 -92.0098c0 -169 -119.01 -257.99 -284 -250.99l-56.0195 151
c81 23.9902 112 53.9902 112 113.99c0 28 -4 45 -12 78z" />
    <glyph glyph-name="L" unicode="L" horiz-adv-x="1159" 
d="M159.99 0v1454.98h288.02v-1198h646.98v-256.98h-935z" />
    <glyph glyph-name="Lacute" unicode="&#x139;" horiz-adv-x="1159" 
d="M379.99 1605l232 301l281 1l-253.99 -302h-259.01zM159.99 0.00976562v1454.98h288.02v-1198h646.98v-256.98h-935z" />
    <glyph glyph-name="Lcaron" unicode="&#x13d;" horiz-adv-x="1159" 
d="M672.99 1187.98l63.9902 423.02h256l-131 -423.02h-188.99zM159.98 0v1454.98h288.02v-1198h646.98v-256.98h-935z" />
    <glyph glyph-name="Lcommaaccent" unicode="&#x13b;" horiz-adv-x="1159" 
d="M159.99 0v1454.98h288.02v-1198h646.98v-256.98h-935zM459.99 -450.989l-55.9902 151.01c81 23.9902 112 53.9902 112 113.99c0 28 -3.99023 45 -12 78h231c7 -30 9 -55.0098 9 -92.0098c0 -169 -119.01 -257.99 -284.01 -250.99z" />
    <glyph glyph-name="Ldot" unicode="&#x13f;" horiz-adv-x="1159" 
d="M159.99 0v1454.98h288.02v-1198h646.98v-256.98h-935zM884 533.99c-93 0 -167.02 72.9902 -167.02 163c0 89.9902 74.0195 164.01 167.02 164.01c89.9902 0 164.99 -74.0195 164.99 -164.01c0 -90.0098 -75 -163 -164.99 -163z" />
    <glyph glyph-name="Lslash" unicode="&#x141;" horiz-adv-x="1178" 
d="M466.98 256.98h647.01v-256.98h-934.99v546l-143.02 -68.0195v234l143.02 68v675h287.98v-539l162 77v-235l-162 -76v-425z" />
    <glyph glyph-name="M" unicode="M" horiz-adv-x="1795" 
d="M1344.98 1454.98h289.961v-1454.98h-285.98v903.99h-3l-355 -628h-187l-355 628h-2.99023v-903.99h-286v1454.98h290l447 -827.99h4.01953z" />
    <glyph glyph-name="N" unicode="N" horiz-adv-x="1546" 
d="M1097.99 1454.98h287.99v-1454.98h-294.99l-640 963.99h-4v-963.99h-287.01v1454.98h287.01l646.99 -983h4.00977v983z" />
    <glyph glyph-name="Nacute" unicode="&#x143;" horiz-adv-x="1546" 
d="M1071.98 1907l-253.99 -302h-259.01l232.02 301zM1097.99 1454.98h287.99v-1454.98h-294.99l-640 963.99h-4v-963.99h-287.01v1454.98h287.01l646.99 -983h4.00977v983z" />
    <glyph glyph-name="Ncaron" unicode="&#x147;" horiz-adv-x="1546" 
d="M892.99 1600.98h-237l-232 306.02h245.99l102.01 -154h6l103 154h246zM1097.99 1454.98h287.99v-1454.98h-294.99l-640 963.99h-4v-963.99h-287.01v1454.98h287.01l646.99 -983h4.00977v983z" />
    <glyph glyph-name="Ncommaaccent" unicode="&#x145;" horiz-adv-x="1546" 
d="M1097.99 1454.98h287.99v-1454.98h-294.99l-640 963.99h-4v-963.99h-287.01v1454.98h287.01l646.99 -983h4.00977v983zM650.99 -107.989l231.01 0.00976562c7 -30 8.99023 -55.0098 8.99023 -92.0098c0 -169 -118.99 -257.99 -283.99 -250.99l-56 151
c81 23.9902 112 53.9902 112 113.99c0 28 -4.01953 45 -12.0098 78z" />
    <glyph glyph-name="Eng" unicode="&#x14a;" horiz-adv-x="1546" 
d="M1099 1454.98l286.961 0.00976562v-1509.99c0 -239.99 -119.99 -366.99 -312.99 -366.99c-89.9902 0 -144.99 11.9902 -209.99 35.9902l45 213.02c28.0195 -16.0195 58.0098 -25.0195 89.0098 -25.0195c64 0 102 56 102 139v47l-649.01 975.99h-4v-963.99h-286v1454.98
h285l650 -983.99h4.01953v983.99z" />
    <glyph glyph-name="uni019D" unicode="&#x19d;" horiz-adv-x="1546" 
d="M1097.99 1454.98l287.971 0.00976562v-1454.98h-294.99l-640 963.99h-4v-1019c0 -239.99 -119.01 -366.99 -313.01 -366.99c-89.9902 0 -144.98 11.9902 -209.98 35.9902l45 213.02c28.0195 -16.0195 59.0098 -25.0195 89.0098 -25.0195c64 0 101.99 56 101.99 139
v1513.98h287.01l646.99 -983h4.00977v983z" />
    <glyph glyph-name="Ntilde" unicode="&#xd1;" horiz-adv-x="1546" 
d="M652.98 1700.99c-51 0 -88.9609 -40.0098 -114.971 -102l-159.99 69c41.9902 136.99 126 238 245.99 238c84.0098 0 132.01 -30 176 -55.9902c37 -23.0195 70 -45.0195 111 -45.0195c49 0 89.9805 39.0195 115.99 100.01l157 -52c-41 -152 -125.99 -256 -240.01 -256
c-75 0 -131 31.0098 -179 61.0098c-38.9902 23 -72.9902 42.9902 -112.01 42.9902zM1098.02 1454.98h287.99v-1454.98h-294.99l-640 963.99h-4v-963.99h-287.01v1454.98h287.01l646.99 -983h4.00977v983z" />
    <glyph glyph-name="O" unicode="O" horiz-adv-x="1682" 
d="M841.99 -17c-440.01 0 -742.01 312.98 -742.01 744.971c0 431 302 744.02 742.01 744.02c426.99 0 740.01 -300.02 740.01 -744.02c0 -444.99 -313.02 -744.971 -740.01 -744.971zM842.99 250.971c250.99 0 439.99 202.971 439.99 476.971s-189 475.02 -439.99 475.02
c-262 0 -443 -211 -443 -475c0 -264.99 181 -476.99 443 -476.99z" />
    <glyph glyph-name="Oacute" unicode="&#xd3;" horiz-adv-x="1682" 
d="M722.98 1605l232.01 301l281 1l-253.99 -302h-259.02zM842 -16.9902c-440.01 0 -742.01 312.98 -742.01 744.971c0 431 302 744.02 742.01 744.02c426.99 0 740.01 -300.02 740.01 -744.02c0 -444.99 -313.02 -744.971 -740.01 -744.971zM843 250.98
c250.99 0 439.99 202.971 439.99 476.971s-189 475.02 -439.99 475.02c-262 0 -443 -211 -443 -475c0 -264.99 181 -476.99 443 -476.99z" />
    <glyph glyph-name="Obreve" unicode="&#x14e;" horiz-adv-x="1682" 
d="M843.98 1594c-170.99 0 -319.029 108.99 -334.02 307.99h202c5 -72 52 -129 132 -129c73.0098 0 127.01 48.9902 131.01 129.01h203c-14 -176 -138.99 -308 -333.99 -308zM841.951 -17c-440.01 0 -742.01 312.98 -742.01 744.971c0 431 302 744.02 742.01 744.02
c426.99 0 740.01 -300.02 740.01 -744.02c0 -444.99 -313.02 -744.971 -740.01 -744.971zM842.951 250.971c250.99 0 439.99 202.971 439.99 476.971s-189 475.02 -439.99 475.02c-262 0 -443 -211 -443 -475c0 -264.99 181 -476.99 443 -476.99z" />
    <glyph glyph-name="Ocircumflex" unicode="&#xd4;" horiz-adv-x="1682" 
d="M838.98 1754.99l-101.99 -154h-245l227 306.02h237l239 -306.02h-246.99l-103.02 154h-6zM841.99 1472.01c426.99 0 740.01 -300.029 740.01 -744.029c0 -444.99 -313.02 -744.971 -740.01 -744.971c-440.01 0 -742.01 312.99 -742.01 744.98
c0 431 302 744.02 742.01 744.02zM842.99 250.98c250.99 0 439.99 202.971 439.99 476.971s-189 475.02 -439.99 475.02c-262 0 -443 -211 -443 -475c0 -264.99 181 -476.99 443 -476.99z" />
    <glyph glyph-name="uni1ED0" unicode="&#x1ed0;" horiz-adv-x="1682" 
d="M1649.99 1962.99l-305.01 -300.99h-199.99l232 299.99zM839.98 1722l-102 -154h-245l227 306h237l239 -306h-247l-103 154h-6zM841.98 1472.01c426.99 0 740.01 -300.029 740.01 -744.029c0 -444.99 -313.02 -744.971 -740.01 -744.971
c-440.01 0 -742.01 312.99 -742.01 744.98c0 431 302 744.02 742.01 744.02zM842.98 250.98c250.99 0 439.99 202.971 439.99 476.971s-189 475.02 -439.99 475.02c-262 0 -443 -211 -443 -475c0 -264.99 181 -476.99 443 -476.99z" />
    <glyph glyph-name="uni1ED8" unicode="&#x1ed8;" horiz-adv-x="1682" 
d="M839.99 1754.99l-102 -154h-245l227 306.02h237l239 -306.02h-247l-103 154h-6zM841.99 1472.01c426.99 0 740.01 -300.029 740.01 -744.029c0 -444.99 -313.02 -744.971 -740.01 -744.971c-440.01 0 -742.01 312.99 -742.01 744.98c0 431 302 744.02 742.01 744.02z
M842.99 250.98c250.99 0 439.99 202.971 439.99 476.971s-189 475.02 -439.99 475.02c-262 0 -443 -211 -443 -475c0 -264.99 181 -476.99 443 -476.99zM842.99 -184.019c92 0 166 -73.0098 166 -164.01c0 -89 -74 -163 -166 -163c-91.0195 0 -166.02 74 -166.02 163
c0 91 75 164.01 166.02 164.01z" />
    <glyph glyph-name="uni1ED2" unicode="&#x1ed2;" horiz-adv-x="1682" 
d="M1449.98 1661.99h-195.99l-248 302l269.99 -1zM840.99 1721.99l-102.02 -154h-244.98l227 306h237l239 -306h-247l-103 154h-6zM841.99 1472c426.99 0 740.01 -300.029 740.01 -744.029c0 -444.99 -313.02 -744.971 -740.01 -744.971
c-440.01 0 -742.01 312.99 -742.01 744.98c0 431 302 744.02 742.01 744.02zM842.99 250.971c250.99 0 439.99 202.971 439.99 476.971s-189 475.02 -439.99 475.02c-262 0 -443 -211 -443 -475c0 -264.99 181 -476.99 443 -476.99z" />
    <glyph glyph-name="uni1ED4" unicode="&#x1ed4;" horiz-adv-x="1682" 
d="M1291 1855c-50 0 -104 -28.0195 -138 -61.0098l-93 89c53 53 152 97 251 97c127 0 200.01 -69 200.01 -162c0 -84 -68.0195 -141 -174 -165l-15.0195 -49.9902l-102.99 -2.99023c-21 19.9902 -38 38.9902 -38 61.9902c0 63 159.99 86 159.99 155c0 25 -18 38 -49.9902 38
zM837.98 1722l-101.99 -154h-245l227 306h237l239 -306h-246.99l-103.02 154h-6zM841.99 1472.01c426.99 0 740.01 -300.029 740.01 -744.029c0 -444.99 -313.02 -744.971 -740.01 -744.971c-440.01 0 -742.01 312.99 -742.01 744.98c0 431 302 744.02 742.01 744.02z
M842.99 250.98c250.99 0 439.99 202.971 439.99 476.971s-189 475.02 -439.99 475.02c-262 0 -443 -211 -443 -475c0 -264.99 181 -476.99 443 -476.99z" />
    <glyph glyph-name="uni1ED6" unicode="&#x1ed6;" horiz-adv-x="1682" 
d="M719.99 1858.99c-29 0 -63.9707 -29 -87.9707 -74l-126 43.9902c35.9902 93 108 159 197 159c69 0 117 -28 159.99 -49.0195c31 -14.9902 58 -27.9902 92 -27.9902c42 0 79 29 103 74l123.99 -31.9902c-35.9902 -105 -111.01 -171 -207 -171
c-59 0 -107 22 -149.99 43.0098c-38.0195 18 -72.0195 34 -105.02 34zM838.01 1633.99l-121.98 -125.01h-236l247 239h220l257.98 -239h-238l-123 125.01h-6zM842.039 1471.99c426.99 0 740.01 -300.029 740.01 -744.029c0 -444.99 -313.02 -744.971 -740.01 -744.971
c-440.01 0 -742.01 312.99 -742.01 744.98c0 431 302 744.02 742.01 744.02zM843.039 250.961c250.99 0 439.99 202.971 439.99 476.971s-189 475.02 -439.99 475.02c-262 0 -443 -211 -443 -475c0 -264.99 181 -476.99 443 -476.99z" />
    <glyph glyph-name="Odieresis" unicode="&#xd6;" horiz-adv-x="1682" 
d="M628 1606.98c-93 0 -167.02 73.0098 -167.02 164.01c0 89 74.0195 163 167.02 163c89.9902 0 165.99 -74 165.99 -163c0 -91 -76 -164.01 -165.99 -164.01zM1057 1608.98c-91.0098 0 -165.01 72.9902 -165.01 161.99c0 87 74 162 165.01 162c89 0 164 -75 164 -162
c0 -89 -75 -161.99 -164 -161.99zM842 -17.0098c-440.01 0 -742.01 312.98 -742.01 744.971c0 431 302 744.02 742.01 744.02c426.99 0 740.01 -300.02 740.01 -744.02c0 -444.99 -313.02 -744.971 -740.01 -744.971zM843 250.961c250.99 0 439.99 202.971 439.99 476.971
s-189 475.02 -439.99 475.02c-262 0 -443 -211 -443 -475c0 -264.99 181 -476.99 443 -476.99z" />
    <glyph glyph-name="uni1ECC" unicode="&#x1ecc;" horiz-adv-x="1682" 
d="M841.99 -17c-440.01 0 -742.01 312.98 -742.01 744.971c0 431 302 744.02 742.01 744.02c426.99 0 740.01 -300.02 740.01 -744.02c0 -444.99 -313.02 -744.971 -740.01 -744.971zM842.99 250.971c250.99 0 439.99 202.971 439.99 476.971s-189 475.02 -439.99 475.02
c-262 0 -443 -211 -443 -475c0 -264.99 181 -476.99 443 -476.99zM842.99 -184.028c92 0 166 -73.0098 166 -164.01c0 -89 -74 -163 -166 -163c-91.0195 0 -166.02 74 -166.02 163c0 91 75 164.01 166.02 164.01z" />
    <glyph glyph-name="Ograve" unicode="&#xd2;" horiz-adv-x="1682" 
d="M728.99 1605l-252.99 302l280.98 -1l231.02 -301h-259.01zM842 -16.9902c-440.01 0 -742.01 312.98 -742.01 744.971c0 431 302 744.02 742.01 744.02c426.99 0 740.01 -300.02 740.01 -744.02c0 -444.99 -313.02 -744.971 -740.01 -744.971zM843 250.98
c250.99 0 439.99 202.971 439.99 476.971s-189 475.02 -439.99 475.02c-262 0 -443 -211 -443 -475c0 -264.99 181 -476.99 443 -476.99z" />
    <glyph glyph-name="uni1ECE" unicode="&#x1ece;" horiz-adv-x="1682" 
d="M773 1561.99c-21.0195 20.0098 -38.0098 38 -38.0098 61.9805c0 63.0195 168 86.0195 168 154.02c0 31 -26.9902 38.9902 -58 38.9902c-49.9902 0 -103.99 -28 -137.99 -60.9902l-93 88.9902c53 53 152 97.0195 251 97.0195c136.99 0 211.01 -69 211.01 -162
c0 -85.0098 -68.0195 -142.01 -185.02 -165.01l-14.9902 -50zM842.01 -17c-440.01 0 -742.01 312.98 -742.01 744.971c0 431 302 744.02 742.01 744.02c426.99 0 740.01 -300.02 740.01 -744.02c0 -444.99 -313.02 -744.971 -740.01 -744.971zM843.01 250.971
c250.99 0 439.99 202.971 439.99 476.971s-189 475.02 -439.99 475.02c-262 0 -443 -211 -443 -475c0 -264.99 181 -476.99 443 -476.99z" />
    <glyph glyph-name="Ohorn" unicode="&#x1a0;" horiz-adv-x="1766" 
d="M1489 1587l250.99 0.000976562v-151c0 -188 -81.9902 -313.01 -228.99 -360.99l-2 -4.01953c47 -99.9902 73.0098 -215.99 73.0098 -343.01c0 -444.99 -313.02 -744.971 -740.01 -744.971c-440.01 0 -742.01 312.99 -742.01 744.98c0 431 302 744.02 742.01 744.02
c238 0 441 -93.0303 572.99 -253.021c72.0098 37.9902 74.0098 119.01 74.0098 223.01v145zM843 250.981c250.99 0 439.99 202.971 439.99 476.971s-189 475.02 -439.99 475.02c-262 0 -443 -211 -443 -475c0 -264.99 181 -476.99 443 -476.99z" />
    <glyph glyph-name="uni1EDA" unicode="&#x1eda;" horiz-adv-x="1766" 
d="M1235.99 1907l-253.98 -302h-259.02l232 301zM1489.01 1587l250.99 0.000976562v-151c0 -188 -81.9902 -313.01 -228.99 -360.99l-2 -4.01953c47 -99.9902 73.0098 -215.99 73.0098 -343.01c0 -444.99 -313.02 -744.971 -740.01 -744.971
c-440.01 0 -742.01 312.99 -742.01 744.98c0 431 302 744.02 742.01 744.02c238 0 441 -93.0303 572.99 -253.021c72.0098 37.9902 74.0098 119.01 74.0098 223.01v145zM843.01 250.981c250.99 0 439.99 202.971 439.99 476.971s-189 475.02 -439.99 475.02
c-262 0 -443 -211 -443 -475c0 -264.99 181 -476.99 443 -476.99z" />
    <glyph glyph-name="uni1EE2" unicode="&#x1ee2;" horiz-adv-x="1766" 
d="M1489 1587l250.99 0.000976562v-151c0 -188 -81.9902 -313.01 -228.99 -360.99l-2 -4.01953c47 -99.9902 73.0098 -215.99 73.0098 -343.01c0 -444.99 -313.02 -744.971 -740.01 -744.971c-440.01 0 -742.01 312.99 -742.01 744.98c0 431 302 744.02 742.01 744.02
c238 0 441 -93.0303 572.99 -253.021c72.0098 37.9902 74.0098 119.01 74.0098 223.01v145zM843 250.981c250.99 0 439.99 202.971 439.99 476.971s-189 475.02 -439.99 475.02c-262 0 -443 -211 -443 -475c0 -264.99 181 -476.99 443 -476.99zM843 -184.018
c92 0 166 -73.0098 166 -164.01c0 -89 -74 -163 -166 -163c-91.0195 0 -166.02 74 -166.02 163c0 91 75 164.01 166.02 164.01z" />
    <glyph glyph-name="uni1EDC" unicode="&#x1edc;" horiz-adv-x="1766" 
d="M988 1605h-259.01l-252.99 302l280.98 -1zM1489 1587l250.99 0.000976562v-151c0 -188 -81.9902 -313.01 -228.99 -360.99l-2 -4.01953c47 -99.9902 73.0098 -215.99 73.0098 -343.01c0 -444.99 -313.02 -744.971 -740.01 -744.971
c-440.01 0 -742.01 312.99 -742.01 744.98c0 431 302 744.02 742.01 744.02c238 0 441 -93.0303 572.99 -253.021c72.0098 37.9902 74.0098 119.01 74.0098 223.01v145zM843 250.981c250.99 0 439.99 202.971 439.99 476.971s-189 475.02 -439.99 475.02
c-262 0 -443 -211 -443 -475c0 -264.99 181 -476.99 443 -476.99z" />
    <glyph glyph-name="uni1EDE" unicode="&#x1ede;" horiz-adv-x="1766" 
d="M844.98 1816.99c-49.9902 0 -103.98 -28.0098 -137.98 -61l-93 88.9902c53 53 152 97.0195 251 97.0195c136.99 0 211.01 -69 211.01 -162c0 -85.0098 -68.0195 -142.01 -185.02 -165.01l-14.9902 -50l-103 -3c-21.0195 20.0098 -38.0195 38.0098 -38.0195 61.9902
c0 63.0195 168 86.0195 168 154.02c0 31 -26.9902 38.9902 -58 38.9902zM1489.01 1586.99l250.99 0.000976562v-151c0 -188 -81.9902 -313.01 -228.99 -360.99l-2 -4.01953c47 -99.9902 73.0098 -215.99 73.0098 -343.01c0 -444.99 -313.02 -744.971 -740.01 -744.971
c-440.01 0 -742.01 312.99 -742.01 744.98c0 431 302 744.02 742.01 744.02c238 0 441 -93.0303 572.99 -253.021c72.0098 37.9902 74.0098 119.01 74.0098 223.01v145zM843.01 250.972c250.99 0 439.99 202.971 439.99 476.971s-189 475.02 -439.99 475.02
c-262 0 -443 -211 -443 -475c0 -264.99 181 -476.99 443 -476.99z" />
    <glyph glyph-name="uni1EE0" unicode="&#x1ee0;" horiz-adv-x="1766" 
d="M721.98 1700.99c-51 0 -88.9609 -40.0098 -114.971 -102l-159.99 69c41.9902 136.99 125.99 238 245.99 238c84.0098 0 132.01 -30 176 -55.9902c37 -23.0195 70 -45.0195 111 -45.0195c49 0 90 39.0195 115.99 100.01l157 -52c-41 -152 -126 -256 -240.01 -256
c-75 0 -130.99 31.0098 -178.99 61.0098c-39 23 -73 42.9902 -112.02 42.9902zM1489.03 1586.99l250.99 0.000976562v-151c0 -188 -81.9902 -313.01 -228.99 -360.99l-2 -4.01953c47 -99.9902 73.0098 -215.99 73.0098 -343.01c0 -444.99 -313.02 -744.971 -740.01 -744.971
c-440.01 0 -742.01 312.99 -742.01 744.98c0 431 302 744.02 742.01 744.02c238 0 441 -93.0303 572.99 -253.021c72.0098 37.9902 74.0098 119.01 74.0098 223.01v145zM843.029 250.972c250.99 0 439.99 202.971 439.99 476.971s-189 475.02 -439.99 475.02
c-262 0 -443 -211 -443 -475c0 -264.99 181 -476.99 443 -476.99z" />
    <glyph glyph-name="Ohungarumlaut" unicode="&#x150;" horiz-adv-x="1682" 
d="M513.99 1605l230.99 301l269 1l-252.99 -302h-247zM931.98 1605l230.01 301l269.99 1l-254 -302h-246zM841.99 -16.9902c-440.01 0 -742.01 312.98 -742.01 744.971c0 431 302 744.02 742.01 744.02c426.99 0 740.01 -300.02 740.01 -744.02
c0 -444.99 -313.02 -744.971 -740.01 -744.971zM842.99 250.98c250.99 0 439.99 202.971 439.99 476.971s-189 475.02 -439.99 475.02c-262 0 -443 -211 -443 -475c0 -264.99 181 -476.99 443 -476.99z" />
    <glyph glyph-name="Omacron" unicode="&#x14c;" horiz-adv-x="1682" 
d="M532.99 1659.99v214h623v-214h-623zM841.99 -16.9902c-440.01 0 -742.01 312.98 -742.01 744.971c0 431 302 744.02 742.01 744.02c426.99 0 740.01 -300.02 740.01 -744.02c0 -444.99 -313.02 -744.971 -740.01 -744.971zM842.99 250.98
c250.99 0 439.99 202.971 439.99 476.971s-189 475.02 -439.99 475.02c-262 0 -443 -211 -443 -475c0 -264.99 181 -476.99 443 -476.99z" />
    <glyph glyph-name="uni01EA" unicode="&#x1ea;" horiz-adv-x="1682" 
d="M966.98 -8c-83.9902 -24.9902 -133 -84.9697 -133 -139.97c0 -51 30 -82.9902 84 -82.9902c51 0 59.9902 6 81 13.9902l13 -145c-40.0195 -18 -95.0098 -24.9902 -149.01 -24.9902c-144 0 -232 75.9902 -232 186.99c0 59 35 131 105 187v2
c-381.99 45.9697 -636.01 342.97 -636.01 738.97c0 431 302 744.02 742.01 744.02c426.99 0 740.01 -300.02 740.01 -744.02c0 -400 -253 -683 -615 -736zM399.98 728.011c0 -264.99 181 -477.02 443 -477.02c250.99 0 439.99 203 439.99 477s-189 475.02 -439.99 475.02
c-262 0 -443 -211 -443 -475z" />
    <glyph glyph-name="Oslash" unicode="&#xd8;" horiz-adv-x="1682" 
d="M1593 1386.99l-166.02 -182.01c98 -123.99 155.02 -287.99 155.02 -476.99c0 -444.99 -313.02 -744.971 -740.01 -744.971c-164 0 -308 42.9805 -426.01 119.98l-159.99 -175l-138.02 129l157 169.98c-111 130 -175 303 -175 501c0 431 302 744.02 742.01 744.02
c173 0 328 -49 450 -138l164 178zM399.99 727.98c0 -105 27.9902 -201.01 77.9805 -279.02l619.01 673.02c-71 51 -158 81 -253.99 81c-262 0 -443 -211 -443 -475zM1282.98 727.961c0 95 -22.9902 180.99 -61.9902 253l-610.02 -665c66.0098 -41 145.02 -65 232.02 -65
c250.99 0 439.99 203 439.99 477z" />
    <glyph glyph-name="Oslashacute" unicode="&#x1fe;" horiz-adv-x="1682" 
d="M1216.98 1905.99l-253.99 -302h-258.99l232 301zM1592.99 1386.99l-166.02 -182.01c98 -123.99 155.02 -287.99 155.02 -476.99c0 -444.99 -313.02 -744.971 -740.01 -744.971c-164 0 -308 42.9805 -426.01 119.98l-159.99 -175l-138.02 129l157 169.98
c-111 130 -175 303 -175 501c0 431 302 744.02 742.01 744.02c173 0 328 -49 450 -138l164 178zM399.98 727.98c0 -105 27.9902 -201.01 77.9805 -279.02l619.01 673.02c-71 51 -158 81 -253.99 81c-262 0 -443 -211 -443 -475zM1282.97 727.961
c0 95 -22.9902 180.99 -61.9902 253l-610.02 -665c66.0098 -41 145.02 -65 232.02 -65c250.99 0 439.99 203 439.99 477z" />
    <glyph glyph-name="Otilde" unicode="&#xd5;" horiz-adv-x="1682" 
d="M1012 1596.99l0.0585938 -0.00976562c-75.0195 0 -131.02 31.0098 -179.02 61.0098c-39 23 -73 42.9902 -112 42.9902c-51.0195 0 -89.0098 -40 -115.02 -101.99l-159.99 69c42 136.99 125.99 238 246 238c83.9902 0 131.99 -30 175.98 -55.9902
c37 -23.0195 69.9902 -45.0195 110.99 -45.0195c49 0 90 39.0195 115.99 100.01l157 -52c-41 -152 -125.99 -256 -239.99 -256zM842.059 -17c-440.01 0 -742.01 312.98 -742.01 744.971c0 431 302 744.02 742.01 744.02c426.99 0 740.01 -300.02 740.01 -744.02
c0 -444.99 -313.02 -744.971 -740.01 -744.971zM843.059 250.971c250.99 0 439.99 202.971 439.99 476.971s-189 475.02 -439.99 475.02c-262 0 -443 -211 -443 -475c0 -264.99 181 -476.99 443 -476.99z" />
    <glyph glyph-name="OE" unicode="&#x152;" horiz-adv-x="1969" 
d="M1184.99 256.98l688 -0.00976562v-256.98h-1030c-442 0 -743.02 314.98 -743.02 727.98c0 414 301.02 728 743.02 727h989v-256.98h-647v-352.01h525v-250h-525v-339zM842.99 267.971l65.9902 1.00977v918h-65.9902c-252 1 -444 -197.99 -444 -459.01
c0 -258.99 192 -462.99 444 -460z" />
    <glyph glyph-name="P" unicode="P" horiz-adv-x="1278" 
d="M159.99 0l-0.00976562 1454.98h538.01c353 0 506 -205.99 506 -484.99c0 -319 -213 -472 -533 -472h-227v-497.99h-284zM443.98 752.98l191 0.00976562c181 0 271.01 89 271.01 223c0 135 -91.0098 222.99 -259.01 222.99h-203v-446z" />
    <glyph glyph-name="Thorn" unicode="&#xde;" horiz-adv-x="1323" 
d="M159.99 0l-0.00976562 1454.97h284v-257.99h297c352.01 0 505 -206 505 -485c0 -313 -212.99 -467 -532.99 -467h-269v-244.98h-284zM443.98 499.98l232 0.00976562c181 0 271.01 89.9902 271.01 218.99c0 135 -90.0098 222 -259.01 222h-244v-441z" />
    <glyph glyph-name="Q" unicode="Q" horiz-adv-x="1715" 
d="M1622 150l-151.01 -193.99l-180 163.98c-122 -88 -276 -136.98 -447.99 -136.98c-440.02 0 -742.02 312.99 -742.02 744.98c0 431 302 744.02 742.02 744.02c426.99 0 739.99 -300.02 739.99 -744.02c0 -168 -45 -315.99 -122.99 -433.99zM842.99 250.979
c87.9805 0 165.99 24.0293 232 66.0293l-133 121l150 182l140 -124.01c33 69 51 148.01 51 232c0 264 -179 475 -440 475c-254.02 0 -443.01 -202.02 -443.01 -475.02c0 -274 188.99 -477 443.01 -477z" />
    <glyph glyph-name="R" unicode="R" horiz-adv-x="1346" 
d="M1277.99 0l-341.02 0.0195312l-326 497.99h-166.99v-497.99h-284v1454.98h550c351 0 507 -205.99 507 -484.99c0 -232 -112.99 -376.02 -297.99 -438.02v-4zM443.971 1199l0.0195312 -447h202c178 0 273 89.0098 273 224.01s-93 222.99 -261.02 222.99h-214z" />
    <glyph glyph-name="Racute" unicode="&#x154;" horiz-adv-x="1346" 
d="M955.99 1907l-254 -302h-259.01l232 301zM1277.99 0l-341.02 0.0195312l-326 497.99h-166.99v-497.99h-284v1454.98h550c351 0 507 -205.99 507 -484.99c0 -232 -112.99 -376.02 -297.99 -438.02v-4zM443.971 1199l0.0195312 -447h202c178 0 273 89.0098 273 224.01
s-93 222.99 -261.02 222.99h-214z" />
    <glyph glyph-name="Rcaron" unicode="&#x158;" horiz-adv-x="1346" 
d="M776.99 1600.98h-236.99l-232 306.02h245.99l102.01 -154h6l102.99 154h246zM1278 0l-341.02 0.0195312l-326 497.99h-166.99v-497.99h-284v1454.98h550c351 0 507 -205.99 507 -484.99c0 -232 -112.99 -376.02 -297.99 -438.02v-4zM443.98 1199l0.0195312 -447h202
c178 0 273 89.0098 273 224.01s-93 222.99 -261.02 222.99h-214z" />
    <glyph glyph-name="Rcommaaccent" unicode="&#x156;" horiz-adv-x="1346" 
d="M919 527.99l358.99 -527.971h-341.01l-326 497.99h-166.99v-497.99h-284v1454.98h550c351 0 507 -205.99 507 -484.99c0 -232 -112.99 -376.02 -297.99 -438.02v-4zM443.99 1199l0.0195312 -447h202c178 0 273 89.0098 273 224.01s-93 222.99 -261.02 222.99h-214z
M552.02 -107.97l231.01 0.00976562c7 -30 8.99023 -55.0098 8.99023 -92.0098c0 -169 -118.99 -257.99 -283.99 -250.99l-56 151c81 23.9902 112 53.9902 112 113.99c0 28 -4.01953 45 -12.0098 78z" />
    <glyph glyph-name="S" unicode="S" horiz-adv-x="1196" 
d="M596.99 -17c-187 0 -376.99 71.9707 -529.99 228.971l172.99 213c109.02 -124.99 248.02 -181.99 362.01 -181.99c139 0 209 64 209 153.99c0 107.01 -77 145 -252.99 206c-220.02 77 -440.02 178.99 -440.02 452.99c0 234 206 413 467 416.02
c180 1.99023 348 -66.0098 490 -183.01l-166.02 -217c-121 99 -226 143.02 -317 143.02c-100 0 -174 -54 -175 -146c-1 -91.0098 78 -129 245.02 -194c251 -98 449.99 -164.01 449.99 -444.01c0 -318 -276.99 -447.98 -514.99 -447.98z" />
    <glyph glyph-name="Sacute" unicode="&#x15a;" horiz-adv-x="1196" 
d="M448.98 1605l232.01 301l281 1l-254 -302h-259.01zM597 -16.9902c-187 0 -376.99 71.9707 -529.99 228.971l172.99 213c109.02 -124.99 248.02 -181.99 362.01 -181.99c139 0 209 64 209 153.99c0 107.01 -77 145 -252.99 206c-220.02 77 -440.02 178.99 -440.02 452.99
c0 234 206 413 467 416.02c180 1.99023 348 -66.0098 490 -183.01l-166.02 -217c-121 99 -226 143.02 -317 143.02c-100 0 -174 -54 -175 -146c-1 -91.0098 78 -129 245.02 -194c251 -98 449.99 -164.01 449.99 -444.01c0 -318 -276.99 -447.98 -514.99 -447.98z" />
    <glyph glyph-name="Scaron" unicode="&#x160;" horiz-adv-x="1196" 
d="M712.99 1600.98h-236.99l-232 306.02h245.99l102.01 -154h6l102.99 154h246zM662 874.98c251 -98 449.99 -164.02 449.99 -444.02c0 -318 -276.99 -447.98 -514.99 -447.98c-187 0 -376.99 71.9805 -529.99 228.98l172.99 213
c109.02 -124.99 248.02 -181.99 362.01 -181.99c139 0 209 64 209 153.99c0 107.01 -77 145 -252.99 206c-220.02 77 -440.02 178.99 -440.02 452.99c0 234 206 413 467 416.02c180 1.99023 348 -66.0098 490 -183.01l-166.02 -217c-121 99 -226 143.02 -317 143.02
c-100 0 -174 -54 -175 -146c-1 -91.0098 78 -129 245.02 -194z" />
    <glyph glyph-name="Scedilla" unicode="&#x15e;" horiz-adv-x="1196" 
d="M627 -15.9902l-22.9902 -44.9902l1.99023 -3c121.02 -5 188.01 -62 188.01 -165.02c0 -93 -72.9902 -162 -250.99 -162c-59 0 -94 6 -124.99 12v120.01c25.9902 -9.00977 55.9902 -14.0098 104.99 -14.0098c46 0 98 14.9902 98 57.9902c0 37 -59 66 -168 66v76
l31.9902 64.9902c-149 23 -296 94 -418 219.99l172.99 213c109.02 -124.99 248.02 -181.99 362.01 -181.99c139 0 209 64 209 153.99c0 107.01 -77 145 -252.99 206c-220.02 77 -440.02 178.99 -440.02 452.99c0 234 206 413 467 416.02
c180 1.99023 348 -66.0098 490 -183.01l-166.02 -217c-121 99 -226 143.02 -317 143.02c-100 0 -174 -54 -175 -146c-1 -91.0098 78 -129 245.02 -194c251 -98 449.99 -164.01 449.99 -444.01c0 -304.99 -254 -436.98 -484.99 -446.971z" />
    <glyph glyph-name="Scircumflex" unicode="&#x15c;" horiz-adv-x="1196" 
d="M590.99 1754.99l-102.01 -154h-244.99l227 306.02h237l239 -306.02h-247l-103 154h-6zM662 874.99c251 -98 449.99 -164.02 449.99 -444.02c0 -318 -276.99 -447.98 -514.99 -447.98c-187 0 -376.99 71.9805 -529.99 228.98l172.99 213
c109.02 -124.99 248.02 -181.99 362.01 -181.99c139 0 209 64 209 153.99c0 107.01 -77 145 -252.99 206c-220.02 77 -440.02 178.99 -440.02 452.99c0 234 206 413 467 416.02c180 1.99023 348 -66.0098 490 -183.01l-166.02 -217c-121 99 -226 143.02 -317 143.02
c-100 0 -174 -54 -175 -146c-1 -91.0098 78 -129 245.02 -194z" />
    <glyph glyph-name="Scommaaccent" unicode="&#x218;" horiz-adv-x="1196" 
d="M596.99 -17c-187 0 -376.99 71.9707 -529.99 228.971l172.99 213c109.02 -124.99 248.02 -181.99 362.01 -181.99c139 0 209 64 209 153.99c0 107.01 -77 145 -252.99 206c-220.02 77 -440.02 178.99 -440.02 452.99c0 234 206 413 467 416.02
c180 1.99023 348 -66.0098 490 -183.01l-166.02 -217c-121 99 -226 143.02 -317 143.02c-100 0 -174 -54 -175 -146c-1 -91.0098 78 -129 245.02 -194c251 -98 449.99 -164.01 449.99 -444.01c0 -318 -276.99 -447.98 -514.99 -447.98zM445.99 -451.01l-56.0098 151.01
c81.0195 23.9902 112.01 53.9902 112.01 113.99c0 28 -4 45 -12.0098 78h231.02c6.99023 -30 8.99023 -55.0098 8.99023 -92.0098c0 -169 -119.01 -257.99 -284 -250.99z" />
    <glyph glyph-name="uni1E9E" unicode="&#x1e9e;" horiz-adv-x="1582" 
d="M1100.98 869.99c242.02 -95.0098 431 -165 431 -439c0 -318 -279 -447.98 -488 -447.98c-146 0 -309 52.9805 -450 169.98l132.02 249c106 -107.99 233 -158.99 320 -158.99c118.99 0 185 64 185 153.99c0 108.02 -77 146.01 -253 207.01
c-78.9902 26.9902 -157.99 60.9902 -244.01 108.99h-1.99023l250 478v5c-105 13 -201.01 20.9902 -269 20.9902c-188 0 -295.99 -70 -296.99 -264.99l-1 -951.01h-284l1 965c1 368 218.99 506.02 556.99 506.02c172 0 445 -39.0195 678 -97.0195l-266.02 -502v-2.99023z" />
    <glyph glyph-name="uni018F" unicode="&#x18f;" horiz-adv-x="1485" 
d="M703 1472c400 0 680.98 -298.99 680.98 -750c0 -435 -273 -738.98 -651 -738.98c-363 0 -638 263.98 -638 715.98c0 38 3.99023 85 7.00977 101h984c-25 248 -169 405 -379 405c-106 0 -212.99 -28 -307.99 -81l-135 238c89 49 245 110 439 110zM721.971 253
c172 0 302.02 114 349 303h-687.99c30 -182 164.99 -303 338.99 -303z" />
    <glyph glyph-name="T" unicode="T" horiz-adv-x="1210" 
d="M460.98 0v1196.99h-401v257.99h1091.01v-257.99h-403v-1196.99h-287.01z" />
    <glyph glyph-name="Tbar" unicode="&#x166;" horiz-adv-x="1210" 
d="M1151 1196.99h-403v-356h240v-227h-240v-613.99h-287.01v613.99h-229.99v227h229.99v356h-401v257.99h1091.01v-257.99z" />
    <glyph glyph-name="Tcaron" unicode="&#x164;" horiz-adv-x="1210" 
d="M719.99 1600.98h-237.01l-232 306.02h246l102.01 -154h6l103 154h246zM59.9902 1454.98h1091.01v-257.99h-403v-1196.99h-287.01v1196.99h-401v257.99z" />
    <glyph glyph-name="uni0162" unicode="&#x162;" horiz-adv-x="1210" 
d="M631.99 0l-32.0098 -60.9609l2 -3c121 -5 188.02 -62 188.02 -165.02c0 -93 -73.0195 -162 -251.01 -162c-59 0 -94 6 -125 12v120.01c26.0098 -9.00977 56.0098 -14.0098 105 -14.0098c46 0 98 14.9902 98 57.9902c0 37 -58.9902 66 -168.01 66v76l36 72.9902h-24
v1196.99h-401v257.99h1091.01v-257.99h-403v-1196.99h-116z" />
    <glyph glyph-name="uni021A" unicode="&#x21a;" horiz-adv-x="1210" 
d="M460.98 0v1196.99h-401v257.99h1091.01v-257.99h-403v-1196.99h-287.01zM441.99 -450.99l-56 151.01c81 23.9902 112.01 53.9902 112.01 113.99c0 28 -4 45 -12 78h230.99c7 -30 9 -55.0098 9 -92.0098c0 -169 -119.01 -257.99 -284 -250.99z" />
    <glyph glyph-name="U" unicode="U" horiz-adv-x="1461" 
d="M727.98 -17c-349.99 0 -587.02 221.98 -587.02 618.98v853h289.02v-833.99c0 -209 106.99 -368 297.99 -368c176 0 303 136 303 368v833.99h288.01v-853c0 -378 -217 -618.98 -591 -618.98z" />
    <glyph glyph-name="Uacute" unicode="&#xda;" horiz-adv-x="1461" 
d="M566.99 1605l232.01 301l281 1l-254 -302h-259.01zM728 -16.9902c-349.99 0 -587.02 221.98 -587.02 618.98v853h289.02v-833.99c0 -209 106.99 -368 297.99 -368c176 0 303 136 303 368v833.99h288.01v-853c0 -378 -217 -618.98 -591 -618.98z" />
    <glyph glyph-name="Ubreve" unicode="&#x16c;" horiz-adv-x="1461" 
d="M729.99 1594c-171 0 -319.01 108.99 -334.02 307.99h202.02c5 -72 52 -129 132 -129c72.9902 0 126.99 48.9902 131 129.01h203c-14.0098 -176 -139 -308 -334 -308zM727.971 -17c-349.99 0 -587.02 221.98 -587.02 618.98v853h289.02v-833.99
c0 -209 106.99 -368 297.99 -368c176 0 303 136 303 368v833.99h288.01v-853c0 -378 -217 -618.98 -591 -618.98z" />
    <glyph glyph-name="Ucircumflex" unicode="&#xdb;" horiz-adv-x="1461" 
d="M724.99 1754.99l-102.01 -154h-244.99l227 306.02h237l239 -306.02h-247l-103 154h-6zM1030.98 1454.99h288v-853c0 -378 -217 -618.98 -591 -618.98c-349.99 0 -587.01 221.98 -587.01 618.98v853h289.02v-833.99c0 -209 106.99 -368 297.99 -368c176 0 303 136 303 368
v833.99z" />
    <glyph glyph-name="Udieresis" unicode="&#xdc;" horiz-adv-x="1461" 
d="M513.99 1606.98c-93 0 -167 73.0098 -167 164.01c0 89 74 163 167 163c90.0098 0 166.01 -74 166.01 -163c0 -91 -76 -164.01 -166.01 -164.01zM942.99 1608.98c-91 0 -165 72.9902 -165 161.99c0 87 74 162 165 162c89 0 164 -75 164 -162
c0 -89 -75 -161.99 -164 -161.99zM727.99 -17.0098c-349.99 0 -587.02 221.98 -587.02 618.98v853h289.02v-833.99c0 -209 106.99 -368 297.99 -368c176 0 303 136 303 368v833.99h288.01v-853c0 -378 -217 -618.98 -591 -618.98z" />
    <glyph glyph-name="uni1EE4" unicode="&#x1ee4;" horiz-adv-x="1461" 
d="M727.98 -17c-349.99 0 -587.02 221.98 -587.02 618.98v853h289.02v-833.99c0 -209 106.99 -368 297.99 -368c176 0 303 136 303 368v833.99h288.01v-853c0 -378 -217 -618.98 -591 -618.98zM729.971 -184c92 0 166.02 -73.0098 166.02 -164.01
c0 -89 -74.0195 -163 -166.02 -163c-90.9902 0 -165.99 74 -165.99 163c0 91 75 164.01 165.99 164.01z" />
    <glyph glyph-name="Ugrave" unicode="&#xd9;" horiz-adv-x="1461" 
d="M636.99 1605l-252.98 302l280.98 -1l231.02 -301h-259.02zM727.99 -16.9902c-349.99 0 -587.02 221.98 -587.02 618.98v853h289.02v-833.99c0 -209 106.99 -368 297.99 -368c176 0 303 136 303 368v833.99h288.01v-853c0 -378 -217 -618.98 -591 -618.98z" />
    <glyph glyph-name="uni1EE6" unicode="&#x1ee6;" horiz-adv-x="1461" 
d="M658.98 1561.99c-20.9902 20.0098 -37.9805 38 -37.9805 61.9805c0 63.0195 168 86.0195 168 154.02c0 31 -27 38.9902 -58 38.9902c-50 0 -103.99 -28 -137.99 -60.9902l-93 88.9902c52.9902 53 151.99 97.0195 250.99 97.0195c137 0 211 -69 211 -162
c0 -85.0098 -68 -142.01 -185 -165.01l-15 -50zM727.99 -17c-349.99 0 -587.02 221.98 -587.02 618.98v853h289.02v-833.99c0 -209 106.99 -368 297.99 -368c176 0 303 136 303 368v833.99h288.01v-853c0 -378 -217 -618.98 -591 -618.98z" />
    <glyph glyph-name="Uhorn" unicode="&#x1af;" horiz-adv-x="1672" 
d="M1448 1587h250.98v-151c0 -244 -139 -382.02 -379.99 -383.01v-451.01c0 -378 -217 -618.98 -591 -618.98c-349.99 0 -587.01 221.98 -587.01 618.98v853h289.02v-833.99c0 -209 106.99 -368 297.99 -368c176 0 303 136 303 368v833.99h288.01v-254
c126 23 129 115 129 241.02v145z" />
    <glyph glyph-name="uni1EE8" unicode="&#x1ee8;" horiz-adv-x="1672" 
d="M1079.99 1907l-253.99 -302h-259.01l232 301zM1448 1587h250.98v-151c0 -244 -139 -382.02 -379.99 -383.01v-451.01c0 -378 -217 -618.98 -591 -618.98c-349.99 0 -587.01 221.98 -587.01 618.98v853h289.02v-833.99c0 -209 106.99 -368 297.99 -368
c176 0 303 136 303 368v833.99h288.01v-254c126 23 129 115 129 241.02v145z" />
    <glyph glyph-name="uni1EF0" unicode="&#x1ef0;" horiz-adv-x="1672" 
d="M1448 1587h250.98v-151c0 -244 -139 -382.02 -379.99 -383.01v-451.01c0 -378 -217 -618.98 -591 -618.98c-349.99 0 -587.01 221.98 -587.01 618.98v853h289.02v-833.99c0 -209 106.99 -368 297.99 -368c176 0 303 136 303 368v833.99h288.01v-254
c126 23 129 115 129 241.02v145zM729.99 -183.99c92 0 166.02 -73.0098 166.02 -164.01c0 -89 -74.0195 -163 -166.02 -163c-90.9902 0 -165.99 74 -165.99 163c0 91 75 164.01 165.99 164.01z" />
    <glyph glyph-name="uni1EEA" unicode="&#x1eea;" horiz-adv-x="1672" 
d="M896 1605h-259.01l-252.99 302l280.98 -1zM1448 1587h250.98v-151c0 -244 -139 -382.02 -379.99 -383.01v-451.01c0 -378 -217 -618.98 -591 -618.98c-349.99 0 -587.01 221.98 -587.01 618.98v853h289.02v-833.99c0 -209 106.99 -368 297.99 -368c176 0 303 136 303 368
v833.99h288.01v-254c126 23 129 115 129 241.02v145z" />
    <glyph glyph-name="uni1EEC" unicode="&#x1eec;" horiz-adv-x="1672" 
d="M730.99 1816.99c-50 0 -103.98 -28.0098 -137.98 -61l-93 88.9902c52.9902 53 151.99 97.0195 250.99 97.0195c137 0 211 -69 211 -162c0 -85.0098 -68 -142.01 -185 -165.01l-15 -50l-103.02 -3c-20.9902 20.0098 -37.9902 38.0098 -37.9902 61.9902
c0 63.0195 168 86.0195 168 154.02c0 31 -27 38.9902 -58 38.9902zM1448 1586.99h250.98v-151c0 -244 -139 -382.02 -379.99 -383.01v-451.01c0 -378 -217 -618.98 -591 -618.98c-349.99 0 -587.01 221.98 -587.01 618.98v853h289.02v-833.99
c0 -209 106.99 -368 297.99 -368c176 0 303 136 303 368v833.99h288.01v-254c126 23 129 115 129 241.02v145z" />
    <glyph glyph-name="uni1EEE" unicode="&#x1eee;" horiz-adv-x="1672" 
d="M607.99 1700.99c-51 0 -89.0488 -40.0098 -115.039 -102l-160 69c42 136.99 126.01 238 246.01 238c84 0 131.99 -30 176.01 -55.9902c36.9902 -23.0195 70.0098 -45.0195 111.01 -45.0195c48.9902 0 89.9902 39.0195 116 100.01l157 -52
c-41 -152 -126.01 -256 -240 -256c-75 0 -130.99 31.0098 -178.99 61.0098c-39 23 -73 42.9902 -112 42.9902zM1447.95 1586.99h250.98v-151c0 -244 -139 -382.02 -379.99 -383.01v-451.01c0 -378 -217 -618.98 -591 -618.98c-349.99 0 -587.01 221.98 -587.01 618.98v853
h289.02v-833.99c0 -209 106.99 -368 297.99 -368c176 0 303 136 303 368v833.99h288.01v-254c126 23 129 115 129 241.02v145z" />
    <glyph glyph-name="Uhungarumlaut" unicode="&#x170;" horiz-adv-x="1461" 
d="M377 1605l230.99 301l269 1l-253 -302h-246.99zM794.99 1605l229.99 301l270.01 1l-254 -302h-246zM727.98 -16.9902c-349.99 0 -587.02 221.98 -587.02 618.98v853h289.02v-833.99c0 -209 106.99 -368 297.99 -368c176 0 303 136 303 368v833.99h288.01v-853
c0 -378 -217 -618.98 -591 -618.98z" />
    <glyph glyph-name="Umacron" unicode="&#x16a;" horiz-adv-x="1461" 
d="M418.98 1659.99v214h623v-214h-623zM727.98 -16.9902c-349.99 0 -587.02 221.98 -587.02 618.98v853h289.02v-833.99c0 -209 106.99 -368 297.99 -368c176 0 303 136 303 368v833.99h288.01v-853c0 -378 -217 -618.98 -591 -618.98z" />
    <glyph glyph-name="Uogonek" unicode="&#x172;" horiz-adv-x="1461" 
d="M1030.98 1454.98l288 -0.00976562v-853c0 -314 -149 -532.99 -413.99 -597.99c-102.02 -32.9902 -163.01 -87.9902 -163.01 -148.98c0 -51 30 -81 84 -81c51 0 60 6 81.0098 13.9902l12.9902 -145c-40 -18 -94.9902 -24.9902 -148.99 -24.9902c-144 0 -232 76 -232 187
c0 56 31.9902 125 96.9902 180v2.99023c-298.99 36.9902 -495.01 252.99 -495.01 613.99v853h289.02v-833.99c0 -209 106.99 -368 297.99 -368c176 0 303 136 303 368v833.99z" />
    <glyph glyph-name="Uring" unicode="&#x16e;" horiz-adv-x="1461" 
d="M728.99 1558c-120 0 -220.01 89.9707 -220.01 213.98c0 117 91 214 220 214c123 0 222 -89.9902 222 -213.99c0 -117 -89.9902 -213.99 -221.99 -213.99zM728.98 1697.98c43 0 77 34 77 76.9902c0 41 -34 76 -77 76c-42.9902 0 -77.0098 -35.9902 -77.0098 -76.9902
c0 -43 34.0195 -76 77.0098 -76zM727.98 -17.0098c-349.99 0 -587.02 221.98 -587.02 618.98v853h289.02v-833.99c0 -209 106.99 -368 297.99 -368c176 0 303 136 303 368v833.99h288.01v-853c0 -378 -217 -618.98 -591 -618.98z" />
    <glyph glyph-name="Utilde" unicode="&#x168;" horiz-adv-x="1461" 
d="M897.99 1596.99c-75 0 -130.98 31 -178.98 61c-39 23 -73.0195 42.9902 -112.02 42.9902c-51 0 -89 -40 -114.99 -101.99l-160 69c42 136.99 126 238 246 238c84.0098 0 132 -30 176 -55.9902c37 -23.0195 70 -45.0195 111 -45.0195
c48.9902 0 89.9902 39.0195 116 100.01l157 -52c-41 -152 -126 -256 -240.01 -256zM728 -17c-349.99 0 -587.02 221.98 -587.02 618.98v853h289.02v-833.99c0 -209 106.99 -368 297.99 -368c176 0 303 136 303 368v833.99h288.01v-853c0 -378 -217 -618.98 -591 -618.98z
" />
    <glyph glyph-name="V" unicode="V" horiz-adv-x="1418" 
d="M1068.99 1454.98h309.02l-538.01 -1454.98h-254l-540 1454.98h312l351.99 -1045h3z" />
    <glyph glyph-name="W" unicode="W" horiz-adv-x="2116" 
d="M1754.99 1454.98h306.99l-458 -1454.98h-267l-274 1035h-3l-282.99 -1035h-266l-458.02 1454.98h307.02l283 -983.99h3.99023l259.01 983.99h304.99l257 -983.99h4.01953z" />
    <glyph glyph-name="Wacute" unicode="&#x1e82;" horiz-adv-x="2116" 
d="M1450.99 1907l-253.99 -302h-259.01l232 301zM1755 1454.98h306.99l-458 -1454.98h-267l-274 1035h-3l-282.99 -1035h-266l-458.02 1454.98h307.02l283 -983.99h3.99023l259.01 983.99h304.99l257 -983.99h4.01953z" />
    <glyph glyph-name="Wcircumflex" unicode="&#x174;" horiz-adv-x="2116" 
d="M1054.99 1754.99l-102 -154h-245l227 306.02h237l239 -306.02h-247l-103 154h-6zM1754.99 1454.99h306.99l-458 -1454.98h-267l-274 1035h-3l-282.99 -1035h-266l-458.02 1454.98h307.02l283 -983.99h3.99023l259.01 983.99h304.99l257 -983.99h4.01953z" />
    <glyph glyph-name="Wdieresis" unicode="&#x1e84;" horiz-adv-x="2116" 
d="M843.98 1606.98c-93 0 -167 73.0098 -167 164.01c0 89 74 163 167 163c90.0098 0 166.01 -74 166.01 -163c0 -91 -76 -164.01 -166.01 -164.01zM1273 1608.98c-91.0195 0 -165.02 72.9902 -165.02 161.99c0 87 74 162 165.02 162c88.9902 0 164.01 -75 164.01 -162
c0 -89 -75.0195 -161.99 -164.01 -161.99zM1755 1454.98h306.99l-458 -1454.98h-267l-274 1035h-3l-282.99 -1035h-266l-458.02 1454.98h307.02l283 -983.99h3.99023l259.01 983.99h304.99l257 -983.99h4.01953z" />
    <glyph glyph-name="Wgrave" unicode="&#x1e80;" horiz-adv-x="2116" 
d="M1184.99 1605h-259.01l-252.99 302l281 -1zM1754.99 1454.98h306.99l-458 -1454.98h-267l-274 1035h-3l-282.99 -1035h-266l-458.02 1454.98h307.02l283 -983.99h3.99023l259.01 983.99h304.99l257 -983.99h4.01953z" />
    <glyph glyph-name="X" unicode="X" horiz-adv-x="1437" 
d="M1047.98 0l-327.01 508.98h-3l-328.99 -508.99h-336.02l476.02 729.99l-462 725h329.99l320 -500.99h5l319.02 500.99h328.99l-460 -723.99l475 -730.99h-337z" />
    <glyph glyph-name="Y" unicode="Y" horiz-adv-x="1295" 
d="M942 1454.98h332.99l-483.99 -815.99v-639h-291v639l-481.02 815.99h330.02l296 -530.99h4z" />
    <glyph glyph-name="Yacute" unicode="&#xdd;" horiz-adv-x="1295" 
d="M1008.99 1907l-253.98 -302h-259.02l232 301zM942.01 1454.98h332.99l-483.99 -815.99v-639h-291v639l-481.02 815.99h330.02l296 -530.99h4z" />
    <glyph glyph-name="Ycircumflex" unicode="&#x176;" horiz-adv-x="1295" 
d="M645 1754.99l-102.02 -154h-245l227 306.02h237.02l238.99 -306.02h-246.99l-103 154h-6zM941.99 1454.99h332.99l-483.99 -815.99v-639h-291v639l-481.02 815.99h330.02l296 -530.99h4z" />
    <glyph glyph-name="Ydieresis" unicode="&#x178;" horiz-adv-x="1295" 
d="M433.99 1606.98c-93 0 -167 73.0098 -167 164.01c0 89 74 163 167 163c89.9902 0 165.99 -74 165.99 -163c0 -91 -76 -164.01 -165.99 -164.01zM862.99 1608.98c-91 0 -165 72.9902 -165 161.99c0 87 74 162 165 162c89 0 164 -75 164 -162
c0 -89 -75 -161.99 -164 -161.99zM942 1454.98h332.99l-483.99 -815.99v-639h-291v639l-481.02 815.99h330.02l296 -530.99h4z" />
    <glyph glyph-name="uni1EF4" unicode="&#x1ef4;" horiz-adv-x="1295" 
d="M500 0v639l-481.02 815.99h330.02l296 -530.99h4l293 530.99h332.99l-483.99 -815.99v-639h-291zM647.99 -183.99c92 0 166.02 -73.0098 166.02 -164.01c0 -89 -74.0195 -163 -166.02 -163c-91 0 -166 74 -166 163c0 91 75 164.01 166 164.01z" />
    <glyph glyph-name="Ygrave" unicode="&#x1ef2;" horiz-adv-x="1295" 
d="M800.99 1605h-259.01l-252.99 302l281 -1zM942 1454.98h332.99l-483.99 -815.99v-639h-291v639l-481.02 815.99h330.02l296 -530.99h4z" />
    <glyph glyph-name="uni1EF6" unicode="&#x1ef6;" horiz-adv-x="1295" 
d="M651 1816.99c-50 0 -103.98 -28.0098 -137.98 -61l-93 88.9902c53 53 152 97.0195 251 97.0195c137 0 211 -69 211 -162c0 -85.0098 -68 -142.01 -185 -165.01l-15.0195 -50l-102.99 -3c-21 20.0098 -38 38.0098 -38 61.9902c0 63.0195 168 86.0195 168 154.02
c0 31 -27.0195 38.9902 -58.0098 38.9902zM942.02 1454.98h332.99l-483.99 -815.99v-639h-291v639l-481.02 815.99h330.02l296 -530.99h4z" />
    <glyph glyph-name="uni0232" unicode="&#x232;" horiz-adv-x="1295" 
d="M962.99 1873.98v-214h-623v214h623zM941.99 1454.98h332.99l-483.99 -815.99v-639h-291v639l-481.02 815.99h330.02l296 -530.99h4z" />
    <glyph glyph-name="uni1EF8" unicode="&#x1ef8;" horiz-adv-x="1295" 
d="M527.99 1700.99c-51 0 -88.9902 -40.0098 -114.98 -102l-160 69c42 136.99 125.99 238 246.01 238c83.9902 0 131.99 -30 175.98 -55.9902c37 -23.0195 70 -45.0195 111 -45.0195c49 0 90 39.0195 115.99 100.01l157 -52c-40.9805 -152 -125.99 -256 -239.98 -256
c-75 0 -131.02 31.0098 -179 61.0098c-39.0195 23 -73.0195 42.9902 -112.02 42.9902zM942 1454.98h332.99l-483.99 -815.99v-639h-291v639l-481.02 815.99h330.02l296 -530.99h4z" />
    <glyph glyph-name="Z" unicode="Z" horiz-adv-x="1277" 
d="M472.99 256.98h694.01v-256.98h-1062.01v224.99l678.01 965v7h-650v257.99h1031.99v-220l-692 -971v-7z" />
    <glyph glyph-name="Zacute" unicode="&#x179;" horiz-adv-x="1277" 
d="M930.98 1907l-253.99 -302h-258.99l232 301zM472.99 256.98h694.01v-256.98h-1062.01v224.99l678.01 965v7h-650v257.99h1031.99v-220l-692 -971v-7z" />
    <glyph glyph-name="Zcaron" unicode="&#x17d;" horiz-adv-x="1277" 
d="M751.98 1600.98h-236.99l-232 306.02h246l101.99 -154h6l103 154h246zM472.99 256.98h694.01v-256.98h-1062.01v224.99l678.01 965v7h-650v257.99h1031.99v-220l-692 -971v-7z" />
    <glyph glyph-name="Zdotaccent" unicode="&#x17b;" horiz-adv-x="1277" 
d="M634.98 1606.98c-92 0 -166 73.0098 -166 164.01c0 89 74 163 166 163c91.0195 0 166.02 -74 166.02 -163c0 -91 -75 -164.01 -166.02 -164.01zM472.98 256.98h694.01v-256.98h-1062.01v224.99l678.01 965v7h-650v257.99h1031.99v-220l-692 -971v-7z" />
    <glyph glyph-name="Q.alt" horiz-adv-x="1684" 
d="M1582.98 727.98c0 -261 -108 -471.99 -283 -601.99l276.01 -227l-173.02 -211.99l-373.99 315.98c-59 -12.9805 -121 -19.9805 -185.99 -19.9805c-440.02 0 -742.02 312.99 -742.02 744.98c0 431 302 744.02 742.02 744.02c426.99 0 739.99 -300.02 739.99 -744.02z
M399.98 727.971c0 -264.99 181 -477.02 443 -477.02c250.99 0 439.99 203 439.99 477s-189 475.02 -439.99 475.02c-262 0 -443 -211 -443 -475z" />
    <glyph glyph-name="a" unicode="a" horiz-adv-x="1244" 
d="M849 1000l268.01 0.0195312v-1000h-255.02v121h-5c-69 -89.0098 -170 -137.99 -298.99 -137.99c-277.01 0 -479.01 204.98 -479.01 513.98c0 304 203 520 471 520c118 0 221 -44.0195 294.99 -130.02h4.01953v113.01zM607 223.01c139 0 253.01 109 253.01 273
c0 160 -107.01 280 -252.01 280c-144 0 -257 -109 -257 -280c0 -162 106 -273 256 -273z" />
    <glyph glyph-name="aacute" unicode="&#xe1;" horiz-adv-x="1244" 
d="M968.99 1440.99l-254 -301.99h-259.01l232 300.99zM848.99 1000l268.01 0.0195312v-1000h-255.02v121h-5c-69 -89.0098 -170 -137.99 -298.99 -137.99c-277.01 0 -479.01 204.98 -479.01 513.98c0 304 203 520 471 520c118 0 221 -44.0195 294.99 -130.02h4.01953v113.01
zM606.99 223.01c139 0 253.01 109 253.01 273c0 160 -107.01 280 -252.01 280c-144 0 -257 -109 -257 -280c0 -162 106 -273 256 -273z" />
    <glyph glyph-name="abreve" unicode="&#x103;" horiz-adv-x="1244" 
d="M617.98 1128c-170.99 0 -319.029 109 -334.02 308h202c5 -72.0098 52 -129.01 132 -129.01c73.0195 0 127.01 48.9902 131.02 129.01h203c-14.0098 -176 -139 -308 -334 -308zM848.961 1000l268.01 0.0195312v-1000h-255.02v121h-5
c-69 -89.0098 -170 -137.99 -298.99 -137.99c-277.01 0 -479.01 204.98 -479.01 513.98c0 304 203 520 471 520c118 0 221 -44.0195 294.99 -130.02h4.01953v113.01zM606.961 223.01c139 0 253.01 109 253.01 273c0 160 -107.01 280 -252.01 280c-144 0 -257 -109 -257 -280
c0 -162 106 -273 256 -273z" />
    <glyph glyph-name="uni1EAF" unicode="&#x1eaf;" horiz-adv-x="1244" 
d="M953 1774l-254.02 -301.99h-258.99l232 300.99zM608.99 1128.01c-171 0 -319 109 -334.02 308h202.02c5 -72.0098 52 -129.01 132 -129.01c72.9902 0 126.99 48.9902 130.99 129.01h203c-13.9902 -176 -139 -308 -333.99 -308zM848.98 1000.01l268.01 0.0195312v-1000
h-255.02v121h-5c-69 -89.0098 -170 -137.99 -298.99 -137.99c-277.01 0 -479.01 204.98 -479.01 513.98c0 304 203 520 471 520c118 0 221 -44.0195 294.99 -130.02h4.01953v113.01zM606.98 223.02c139 0 253.01 109 253.01 273c0 160 -107.01 280 -252.01 280
c-144 0 -257 -109 -257 -280c0 -162 106 -273 256 -273z" />
    <glyph glyph-name="uni1EB7" unicode="&#x1eb7;" horiz-adv-x="1244" 
d="M618.99 1128c-170.99 0 -319.02 109 -334.02 308h202c5 -72.0098 52 -129.01 132 -129.01c73.0098 0 127 48.9902 131.02 129.01h203c-14.0098 -176 -139 -308 -334 -308zM848.961 1000l268.01 0.0195312v-1000h-255.02v121h-5
c-69 -89.0098 -170 -137.99 -298.99 -137.99c-277.01 0 -479.01 204.98 -479.01 513.98c0 304 203 520 471 520c118 0 221 -44.0195 294.99 -130.02h4.01953v113.01zM606.961 223.01c139 0 253.01 109 253.01 273c0 160 -107.01 280 -252.01 280c-144 0 -257 -109 -257 -280
c0 -162 106 -273 256 -273zM602.951 -183.971c92 0 166 -73.0098 166 -164.01c0 -89 -74 -163 -166 -163c-90.9902 0 -166.01 74 -166.01 163c0 91 75.0195 164.01 166.01 164.01z" />
    <glyph glyph-name="uni1EB1" unicode="&#x1eb1;" horiz-adv-x="1244" 
d="M721.98 1472l-259 -0.00976562l-253 302l281 -1zM614.98 1306.99c72.9902 0 126.99 48.9902 130.98 129.01h203c-13.9902 -176 -139 -308 -333.99 -308c-171 0 -318.99 109 -334 308h201.99c5.01953 -72.0098 52.0195 -129.01 132.02 -129.01zM848.98 999.99
l268.01 0.0195312v-1000h-255.02v121h-5c-69 -89.0098 -170 -137.99 -298.99 -137.99c-277.01 0 -479.01 204.98 -479.01 513.98c0 304 203 520 471 520c118 0 221 -44.0195 294.99 -130.02h4.01953v113.01zM606.98 223c139 0 253.01 109 253.01 273
c0 160 -107.01 280 -252.01 280c-144 0 -257 -109 -257 -280c0 -162 106 -273 256 -273z" />
    <glyph glyph-name="uni1EB3" unicode="&#x1eb3;" horiz-adv-x="1244" 
d="M618.99 1694.99c-49.9902 0 -103.98 -28 -137.98 -61l-93 88.9902c53 53 152 97.0195 251 97.0195c136.99 0 210.99 -69 210.99 -162c0 -85.0098 -68 -142.01 -185 -165.01l-15 -50.0195l-103.02 -2.99023c-20.9902 20.0098 -37.9902 38 -37.9902 62
c0 63.0195 168 86.0195 168 154.02c0 31 -27 38.9902 -58 38.9902zM618 1128c-170.99 0 -319.029 109 -334.02 308h202c5 -72.0098 52 -129.01 132 -129.01c73.0195 0 127.01 48.9902 131.02 129.01h203c-14.0098 -176 -139 -308 -334 -308zM848.98 1000l268.01 0.0195312
v-1000h-255.02v121h-5c-69 -89.0098 -170 -137.99 -298.99 -137.99c-277.01 0 -479.01 204.98 -479.01 513.98c0 304 203 520 471 520c118 0 221 -44.0195 294.99 -130.02h4.01953v113.01zM606.98 223.01c139 0 253.01 109 253.01 273c0 160 -107.01 280 -252.01 280
c-144 0 -257 -109 -257 -280c0 -162 106 -273 256 -273z" />
    <glyph glyph-name="uni1EB5" unicode="&#x1eb5;" horiz-adv-x="1244" 
d="M509.99 1578.99c-36 0 -70.9902 -39.9902 -96.9805 -101.99l-160 69c42 136.99 123 238 224 238c85 0 122 -30 166 -55.9902c36 -23.0195 70 -45.0195 111 -45.0195c48.9902 0 89.9902 39.0195 114.99 100.01l158 -52c-41 -152 -127 -256 -240.01 -256
c-75 0 -131 31 -179 61c-38.9902 23 -59 42.9902 -98 42.9902zM617.99 1307c73.0195 0 126.971 48.9902 130.98 129.01h203c-14.0098 -176 -139 -308 -334 -308c-170.99 0 -318.99 109 -333.98 308h202c5 -72.0098 52 -129.01 132 -129.01zM848.971 1000l268.01 0.0195312
v-1000h-255.02v121h-5c-69 -89.0098 -170 -137.99 -298.99 -137.99c-277.01 0 -479.01 204.98 -479.01 513.98c0 304 203 520 471 520c118 0 221 -44.0195 294.99 -130.02h4.01953v113.01zM606.971 223.01c139 0 253.01 109 253.01 273c0 160 -107.01 280 -252.01 280
c-144 0 -257 -109 -257 -280c0 -162 106 -273 256 -273z" />
    <glyph glyph-name="acircumflex" unicode="&#xe2;" horiz-adv-x="1244" 
d="M612.99 1288.99l-102 -154h-245l227 306.01h237l239 -306.01h-247l-103 154h-6zM848.99 1000l268.01 0.0195312v-1000h-255.02v121h-5c-69 -89.0098 -170 -137.99 -298.99 -137.99c-277.01 0 -479.01 204.98 -479.01 513.98c0 304 203 520 471 520
c118 0 221 -44.0195 294.99 -130.02h4.01953v113.01zM606.99 223.01c139 0 253.01 109 253.01 273c0 160 -107.01 280 -252.01 280c-144 0 -257 -109 -257 -280c0 -162 106 -273 256 -273z" />
    <glyph glyph-name="uni1EA5" unicode="&#x1ea5;" horiz-adv-x="1244" 
d="M1366 1629l-305.01 -301.02h-199.99l232 300.02zM614.99 1288.99l-102.02 -154h-245l227 306.01h237.02l239 -306.01h-247l-103 154h-6zM848.99 886.99l0.00976562 113.029h268v-1000h-255.02v121h-5c-69 -89.0098 -170 -137.99 -298.99 -137.99
c-277.01 0 -479.01 204.98 -479.01 513.98c0 304 203 520 471 520c118 0 221 -44.0195 294.99 -130.02h4.01953zM607 223.01c139 0 253.01 109 253.01 273c0 160 -107.01 280 -252.01 280c-144 0 -257 -109 -257 -280c0 -162 106 -273 256 -273z" />
    <glyph glyph-name="uni1EAD" unicode="&#x1ead;" horiz-adv-x="1244" 
d="M613.99 1288.99l-102.01 -154h-245l227 306.01h237l239 -306.01h-247l-102.99 154h-6zM848.98 1000l268.01 0.0195312v-1000h-255.02v121h-5c-69 -89.0098 -170 -137.99 -298.99 -137.99c-277.01 0 -479.01 204.98 -479.01 513.98c0 304 203 520 471 520
c118 0 221 -44.0195 294.99 -130.02h4.01953v113.01zM606.98 223.01c139 0 253.01 109 253.01 273c0 160 -107.01 280 -252.01 280c-144 0 -257 -109 -257 -280c0 -162 106 -273 256 -273zM602.971 -183.971c92 0 166 -73.0098 166 -164.01c0 -89 -74 -163 -166 -163
c-90.9902 0 -166.01 74 -166.01 163c0 91 75.0195 164.01 166.01 164.01z" />
    <glyph glyph-name="uni1EA7" unicode="&#x1ea7;" horiz-adv-x="1244" 
d="M1139 1328.99h-196.01l-248 301l270.01 -0.990234zM612.99 1288.99l-102 -154h-245l227 306.01h237l239 -306.01h-247l-103 154h-6zM848.99 886.99l0.00976562 113.029h268v-1000h-255.02v121h-5c-69 -89.0098 -170 -137.99 -298.99 -137.99
c-277.01 0 -479.01 204.98 -479.01 513.98c0 304 203 520 471 520c118 0 221 -44.0195 294.99 -130.02h4.01953zM607 223.01c139 0 253.01 109 253.01 273c0 160 -107.01 280 -252.01 280c-144 0 -257 -109 -257 -280c0 -162 106 -273 256 -273z" />
    <glyph glyph-name="uni1EA9" unicode="&#x1ea9;" horiz-adv-x="1244" 
d="M1006 1652.98c127 0 200 -69.0098 200 -163.01c0 -83.9902 -68 -140.99 -174 -164.99l-14.9902 -50l-103.02 -2.99023c-21 19.9902 -38 38.9902 -38 62.9902c0 62 159.99 85 159.99 154.02c0 24.9902 -17.9902 37.9902 -49.9902 37.9902
c-49.9902 0 -103.99 -28 -137.99 -61l-93 88.9902c53 53 152 98 251 98zM614 1288.98l-102.01 -154h-245l227 306.01h237l239 -306.01h-247l-102.99 154h-6zM848.99 886.98l0.00976562 113.029h268v-1000h-255.02v121h-5c-69 -89.0098 -170 -137.99 -298.99 -137.99
c-277.01 0 -479.01 204.98 -479.01 513.98c0 304 203 520 471 520c118 0 221 -44.0195 294.99 -130.02h4.01953zM607 223c139 0 253.01 109 253.01 273c0 160 -107.01 280 -252.01 280c-144 0 -257 -109 -257 -280c0 -162 106 -273 256 -273z" />
    <glyph glyph-name="uni1EAB" unicode="&#x1eab;" horiz-adv-x="1244" 
d="M509.99 1578.99c-36 0 -70.9902 -39.9902 -96.9805 -101.99l-160 69c42 136.99 123 238 224 238c85 0 122 -30 166 -55.9902c36 -23.0195 70 -45.0195 111 -45.0195c48.9902 0 89.9902 39.0195 114.99 100.01l158 -52c-41 -152 -127 -256 -240.01 -256
c-75 0 -131 31 -179 61c-38.9902 23 -59 42.9902 -98 42.9902zM494 1441h236.98l239 -306.01h-247l-102.99 154h-6l-101.99 -154h-245zM848.98 1000l268.01 0.0195312v-1000h-255.02v121h-5c-69 -89.0098 -170 -137.99 -298.99 -137.99
c-277.01 0 -479.01 204.98 -479.01 513.98c0 304 203 520 471 520c118 0 221 -44.0195 294.99 -130.02h4.01953v113.01zM606.98 223.01c139 0 253.01 109 253.01 273c0 160 -107.01 280 -252.01 280c-144 0 -257 -109 -257 -280c0 -162 106 -273 256 -273z" />
    <glyph glyph-name="adieresis" unicode="&#xe4;" horiz-adv-x="1244" 
d="M401.98 1140.98c-93 0 -167 73.0098 -167 164.01c0 89 74 163 167 163c90.0098 0 166.01 -74 166.01 -163c0 -91 -76 -164.01 -166.01 -164.01zM831 1142.98c-91.0195 0 -165.02 73.0195 -165.02 162.01c0 87 74 162 165.02 162c88.9902 0 163.99 -75 163.99 -162
c0 -88.9902 -75 -162.01 -163.99 -162.01zM849 999.99l268.01 0.0195312v-1000h-255.02v121h-5c-69 -89.0098 -170 -137.99 -298.99 -137.99c-277.01 0 -479.01 204.98 -479.01 513.98c0 304 203 520 471 520c118 0 221 -44.0195 294.99 -130.02h4.01953v113.01zM607 223
c139 0 253.01 109 253.01 273c0 160 -107.01 280 -252.01 280c-144 0 -257 -109 -257 -280c0 -162 106 -273 256 -273z" />
    <glyph glyph-name="uni1EA1" unicode="&#x1ea1;" horiz-adv-x="1244" 
d="M849 1000l268.01 0.0195312v-1000h-255.02v121h-5c-69 -89.0098 -170 -137.99 -298.99 -137.99c-277.01 0 -479.01 204.98 -479.01 513.98c0 304 203 520 471 520c118 0 221 -44.0195 294.99 -130.02h4.01953v113.01zM607 223.01c139 0 253.01 109 253.01 273
c0 160 -107.01 280 -252.01 280c-144 0 -257 -109 -257 -280c0 -162 106 -273 256 -273zM602.99 -183.971c92 0 166 -73.0098 166 -164.01c0 -89 -74 -163 -166 -163c-90.9902 0 -166.01 74 -166.01 163c0 91 75.0195 164.01 166.01 164.01z" />
    <glyph glyph-name="agrave" unicode="&#xe0;" horiz-adv-x="1244" 
d="M793.99 1139l-259 -0.00976562l-253 302l281.01 -1zM848.99 999.99l268.01 0.0195312v-1000h-255.02v121h-5c-69 -89.0098 -170 -137.99 -298.99 -137.99c-277.01 0 -479.01 204.98 -479.01 513.98c0 304 203 520 471 520c118 0 221 -44.0195 294.99 -130.02h4.01953
v113.01zM606.99 223c139 0 253.01 109 253.01 273c0 160 -107.01 280 -252.01 280c-144 0 -257 -109 -257 -280c0 -162 106 -273 256 -273z" />
    <glyph glyph-name="uni1EA3" unicode="&#x1ea3;" horiz-adv-x="1244" 
d="M618.99 1350.98c-49.9902 0 -103.98 -27.9902 -137.98 -60.9902l-93 88.9902c53 53 152 97 251 97c136.99 0 210.99 -69 210.99 -162c0 -85.0195 -68 -142.02 -185 -165.02l-15 -49.9902l-103.02 -3c-20.9902 20.0098 -37.9902 38.0098 -37.9902 62
c0 63.0195 168 86.0195 168 154.01c0 31.0098 -27 39 -58 39zM849 1000l268.01 0.0195312v-1000h-255.02v121h-5c-69 -89.0098 -170 -137.99 -298.99 -137.99c-277.01 0 -479.01 204.98 -479.01 513.98c0 304 203 520 471 520c118 0 221 -44.0195 294.99 -130.02h4.01953
v113.01zM607 223.01c139 0 253.01 109 253.01 273c0 160 -107.01 280 -252.01 280c-144 0 -257 -109 -257 -280c0 -162 106 -273 256 -273z" />
    <glyph glyph-name="amacron" unicode="&#x101;" horiz-adv-x="1244" 
d="M930 1408v-214.02h-623v214.02h623zM849 999.99l268.01 0.0195312v-1000h-255.02v121h-5c-69 -89.0098 -170 -137.99 -298.99 -137.99c-277.01 0 -479.01 204.98 -479.01 513.98c0 304 203 520 471 520c118 0 221 -44.0195 294.99 -130.02h4.01953v113.01zM607 223
c139 0 253.01 109 253.01 273c0 160 -107.01 280 -252.01 280c-144 0 -257 -109 -257 -280c0 -162 106 -273 256 -273z" />
    <glyph glyph-name="aogonek" unicode="&#x105;" horiz-adv-x="1244" 
d="M1088.98 0c-104 -18 -166.99 -85.9893 -166.99 -147.989c0 -51 30 -82.9902 84 -82.9902c51 0 59.9902 6 81.0098 13.9902l12.9902 -145c-40 -18 -94.9902 -24.9902 -148.99 -24.9902c-144 0 -232 75.9902 -232 186.99c0 68.0195 47 155.02 142.99 212.989v108.02h-5
c-69 -89.0098 -170 -137.99 -298.99 -137.99c-277.01 0 -479.01 204.98 -479.01 513.98c0 304 203 520 471 520c118 0 221 -44.0195 294.99 -130.02h4.01953v113.01h268v-1000h-28.0195zM606.99 223.001c139 0 253.01 109 253.01 273c0 160 -107.01 280 -252.01 280
c-144 0 -257 -109 -257 -280c0 -162 106 -273 256 -273z" />
    <glyph glyph-name="aring" unicode="&#xe5;" horiz-adv-x="1244" 
d="M616.98 1091.99c-120 0 -220.02 90.0098 -220.02 214.01c0 117 91.0195 213.99 220.01 213.99c123 0 222 -89.9902 222 -214c0 -117 -89.9902 -214 -221.99 -214zM616.961 1385c-42.9902 0 -76.9902 -35.9902 -76.9902 -76.9902c0 -43 34 -76 76.9902 -76
c43 0 77 34 77 77c0 40.9902 -34 75.9902 -77 75.9902zM848.98 1000.01l268.01 0.0195312v-1000h-255.02v121h-5c-69 -89.0098 -170 -137.99 -298.99 -137.99c-277.01 0 -479.01 204.98 -479.01 513.98c0 304 203 520 471 520c118 0 221 -44.0195 294.99 -130.02h4.01953
v113.01zM606.98 223.02c139 0 253.01 109 253.01 273c0 160 -107.01 280 -252.01 280c-144 0 -257 -109 -257 -280c0 -162 106 -273 256 -273z" />
    <glyph glyph-name="aringacute" unicode="&#x1fb;" horiz-adv-x="1244" 
d="M616.98 1091.99c-120 0 -220.029 90 -220.029 214c0 117 91.0195 213.99 220.01 213.99c57.0195 0 108.02 -18.9902 147.02 -51.9902l132.02 99l285.98 1l-343 -270.99c-5 -113.01 -93 -205.01 -222 -205.01zM616.951 1384.99
c-42.9902 0 -76.9902 -35.9902 -76.9902 -76.9902c0 -43 34 -76 76.9902 -76c43 0 77 34 77 77c0 40.9902 -34 75.9902 -77 75.9902zM848.971 886.99l0.00976562 113.029h268v-1000h-255.02v121h-5c-69 -89.0098 -170 -137.99 -298.99 -137.99
c-277.01 0 -479.01 204.98 -479.01 513.98c0 304 203 520 471 520c118 0 221 -44.0195 294.99 -130.02h4.01953zM606.98 223.01c139 0 253.01 109 253.01 273c0 160 -107.01 280 -252.01 280c-144 0 -257 -109 -257 -280c0 -162 106 -273 256 -273z" />
    <glyph glyph-name="atilde" unicode="&#xe3;" horiz-adv-x="1244" 
d="M494.98 1234.98c-51 0 -88.9609 -39.9805 -114.971 -101.98l-159.99 69c41.9902 136.99 125.99 237.99 245.99 237.99c84.0098 0 132.01 -30 176 -55.9902c37 -23 70 -45.0195 111 -45.0195c49 0 90 39.0195 115.99 100.01l157 -52c-41 -152 -126 -256 -240.01 -256
c-75 0 -130.99 31 -178.99 61c-39 23 -73 42.9902 -112.02 42.9902zM849.029 1000.01l268.01 0.0195312v-1000h-255.02v121h-5c-69 -89.0098 -170 -137.99 -298.99 -137.99c-277.01 0 -479.01 204.98 -479.01 513.98c0 304 203 520 471 520
c118 0 221 -44.0195 294.99 -130.02h4.01953v113.01zM607.029 223.02c139 0 253.01 109 253.01 273c0 160 -107.01 280 -252.01 280c-144 0 -257 -109 -257 -280c0 -162 106 -273 256 -273z" />
    <glyph glyph-name="ae" unicode="&#xe6;" horiz-adv-x="1624" 
d="M1568.99 508.99c0 -31.9902 -5 -87.0195 -8 -96.0195l-655 -2c29 -115 115 -190 238 -190c83.9902 0 153.99 51 200.01 107l185 -156c-86.0195 -107.99 -227 -188.99 -401 -188.99c-140 0 -258 56.9902 -336.01 145.98h-5c-69 -78.9902 -193 -145.98 -355 -145.98
c-256 0 -369.99 133.98 -369.99 307.98c0 192 128 314.02 401 315.01h179v15.0098c0 130.99 -53 169.01 -146 169.01c-78.9902 0 -173.99 -23 -256.99 -66l-106.99 199c53 30 206.99 94 380.99 94c130 0 231 -35 291.99 -136.01h5c77 86 186 136.02 317 136.02
c257.99 0 441.99 -215 441.99 -508.01zM1114.99 780.961c-100 0 -179 -63 -208 -175h396.99c-27 106 -94.9902 175 -188.99 175zM460.971 194.971c106 0 181 85.9902 181 146.99v76.9805l-151 -0.980469c-106 -1 -167.99 -37 -167.99 -110.99c0 -64 47 -112 137.99 -112z
" />
    <glyph glyph-name="aeacute" unicode="&#x1fd;" horiz-adv-x="1624" 
d="M1193.98 1422.99l-253.99 -302h-259.01l232.02 301zM1568.99 508.99c0 -31.9902 -5 -87.0195 -8 -96.0195l-655 -2c29 -115 115 -190 238 -190c83.9902 0 153.99 51 200.01 107l185 -156c-86.0195 -107.99 -227 -188.99 -401 -188.99c-140 0 -258 56.9902 -336.01 145.98
h-5c-69 -78.9902 -193 -145.98 -355 -145.98c-256 0 -369.99 133.98 -369.99 307.98c0 192 128 314.02 401 315.01h179v15.0098c0 130.99 -53 169.01 -146 169.01c-78.9902 0 -173.99 -23 -256.99 -66l-106.99 199c53 30 206.99 94 380.99 94c130 0 231 -35 291.99 -136.01
h5c77 86 186 136.02 317 136.02c257.99 0 441.99 -215 441.99 -508.01zM1114.99 780.961c-100 0 -179 -63 -208 -175h396.99c-27 106 -94.9902 175 -188.99 175zM460.971 194.971c106 0 181 85.9902 181 146.99v76.9805l-151 -0.980469c-106 -1 -167.99 -37 -167.99 -110.99
c0 -64 47 -112 137.99 -112z" />
    <glyph glyph-name="b" unicode="b" horiz-adv-x="1264" 
d="M710.98 1017c268 0 471.01 -216.01 471.01 -520.01c0 -309 -202 -513.98 -478.99 -513.98c-133 0 -236.02 48.9805 -306.02 137.99h-5v-121h-256v1507.98h268v-621h5c75 86 180 130.02 302 130.02zM653.99 222.98c151 0 256 111 256 273c0 171 -112.99 280 -255.99 280
c-153.99 0 -263.01 -120 -263.01 -280c0 -164 116 -273 263 -273z" />
    <glyph glyph-name="c" unicode="c" horiz-adv-x="1088" 
d="M594.98 -17c-296 0 -513.99 209.01 -513.99 516.01s216.99 518 526.99 518c159 0 323.99 -65 425 -192l-181 -156c-54 63 -131.99 106.99 -232.99 106.99c-159.99 0 -265.99 -112.99 -265.99 -275.01c0 -163.99 109 -277 268 -277c106 0 185 48 232 101l183.99 -162.02
c-86 -99.9805 -240.99 -179.971 -442.01 -179.971z" />
    <glyph glyph-name="cacute" unicode="&#x107;" horiz-adv-x="1088" 
d="M456.99 1139l231.99 301l281 1l-254 -302h-258.99zM594.98 -16.9805c-296 0 -513.99 209.01 -513.99 516.01s216.99 518 526.99 518c159 0 323.99 -65 425 -192l-181 -156c-54 63 -131.99 106.99 -232.99 106.99c-159.99 0 -265.99 -112.99 -265.99 -275.01
c0 -163.99 109 -277 268 -277c106 0 185 48 232 101l183.99 -162.02c-86 -99.9805 -240.99 -179.971 -442.01 -179.971z" />
    <glyph glyph-name="ccaron" unicode="&#x10d;" horiz-adv-x="1088" 
d="M724.99 1134.98h-237l-232 306.01h245.99l102.01 -154h6l103 154h246zM852.99 324.99l183.99 -162.01c-86 -99.9805 -240.99 -179.971 -442.01 -179.971c-296 0 -513.99 209 -513.99 516s216.99 518 526.99 518c159 0 323.99 -65 425 -192l-181 -156
c-54 63 -131.99 106.99 -232.99 106.99c-159.99 0 -265.99 -112.99 -265.99 -275.01c0 -163.99 109 -277 268 -277c106 0 185 48 232 101z" />
    <glyph glyph-name="ccedilla" unicode="&#xe7;" horiz-adv-x="1088" 
d="M627 -15.9902l-23.0098 -44.9316l1.99023 -3c121.02 -5 188.01 -62 188.01 -165.02c0 -93 -72.9902 -162 -250.99 -162c-59 0 -94 6 -124.99 12v120.01c25.9902 -9.00977 55.9902 -14.0098 104.99 -14.0098c46 0 98 14.9902 98 57.9902c0 37 -59 66 -168 66v76
l30.9902 63v2.99023c-238 45.9902 -402.99 238.99 -402.99 505.99c0 307 216.99 518 526.99 518c159 0 323.99 -65 425 -192l-181 -156c-54 63 -131.99 106.99 -232.99 106.99c-159.99 0 -265.99 -112.99 -265.99 -275.01c0 -163.99 109 -277 268 -277c106 0 185 48 232 101
l183.99 -162.02c-81 -94.9902 -224 -170.99 -410 -178.98z" />
    <glyph glyph-name="ccircumflex" unicode="&#x109;" horiz-adv-x="1088" 
d="M602.99 1288.99l-102.02 -154h-244.98l226.98 306.01h237.02l239 -306.01h-247l-103 154h-6zM852.98 325l183.99 -162.01c-86 -99.9805 -240.99 -179.971 -442.01 -179.971c-296 0 -513.99 209 -513.99 516s216.99 518 526.99 518c159 0 323.99 -65 425 -192l-181 -156
c-54 63 -131.99 106.99 -232.99 106.99c-159.99 0 -265.99 -112.99 -265.99 -275.01c0 -163.99 109 -277 268 -277c106 0 185 48 232 101z" />
    <glyph glyph-name="cdotaccent" unicode="&#x10b;" horiz-adv-x="1088" 
d="M607.99 1140.98c-92 0 -166 73.0098 -166 164.01c0 89 74 163 166 163c91 0 166 -74 166 -163c0 -91 -75 -164.01 -166 -164.01zM594.99 -17c-296 0 -513.99 209.01 -513.99 516.01s216.99 518 526.99 518c159 0 323.99 -65 425 -192l-181 -156
c-54 63 -131.99 106.99 -232.99 106.99c-159.99 0 -265.99 -112.99 -265.99 -275.01c0 -163.99 109 -277 268 -277c106 0 185 48 232 101l183.99 -162.02c-86 -99.9805 -240.99 -179.971 -442.01 -179.971z" />
    <glyph glyph-name="d" unicode="d" horiz-adv-x="1261" 
d="M857.99 1507.98l268.02 0.00976562v-1507.98h-255v121h-6c-70 -89.0098 -173 -137.99 -306.02 -137.99c-277 0 -479 204.98 -479 513.98c0 304 203 520 471 520c122 0 227 -44.0195 302 -130.02h5v621zM608.01 222.99c147 0 264.01 109 264.01 273
c0 160 -110 280 -263 280c-144 0 -257.01 -109 -257.01 -280c0 -162 106 -273 256 -273z" />
    <glyph glyph-name="eth" unicode="&#xf0;" horiz-adv-x="1213" 
d="M1129.98 521.99l0.0390625 -3.00977c0 -317.99 -217.99 -535.98 -531.99 -535.98c-291 0 -516.02 206.99 -516.02 485.99c0 302 213 487 477.99 487c65 0 139 -17 205 -44l1 2.99023c-57 98 -130.01 181 -217.01 249l-135.99 -105l-114.01 131.02l94 73.9902
c-49 26.0098 -101 48.0098 -154.99 66.0098l116 188c82 -28.0195 159.99 -62.0195 231.99 -102.02l141 111l115 -138l-100 -77c240 -187 387.99 -457.99 387.99 -789.99zM605.029 222.98c145.99 0 251.98 113.01 251.98 265.01c0 142.99 -106 250 -255 250
c-142 0 -247.99 -114.02 -247.99 -250.01c0 -152 106.99 -265 251.01 -265z" />
    <glyph glyph-name="dcaron" unicode="&#x10f;" horiz-adv-x="1369" 
d="M1304.99 1611h255.99l-130.99 -423.02h-189zM857.98 886.99l0.0195312 621.01h268v-1507.98h-255v121h-6c-70 -89.0098 -173 -137.99 -306.02 -137.99c-277 0 -479 204.98 -479 513.98c0 304 203 520 471 520c122 0 227 -44.0195 302 -130.02h5zM608 223
c147 0 264.01 109 264.01 273c0 160 -110 280 -263 280c-144 0 -257.01 -109 -257.01 -280c0 -162 106 -273 256 -273z" />
    <glyph glyph-name="dcroat" unicode="&#x111;" horiz-adv-x="1248" 
d="M1246.99 1305.99l0.0195312 -170.99h-121v-1134.98h-255v121h-6c-70 -89.0098 -173 -137.99 -306.02 -137.99c-277 0 -479 204.98 -479 513.98c0 304 203 520 471 520c122 0 227 -44.0195 302 -130.02h5v248h-203v171h203v202h268v-202h121zM608.01 223
c147 0 264.01 109 264.01 273c0 160 -110 280 -263 280c-144 0 -257.01 -109 -257.01 -280c0 -162 106 -273 256 -273z" />
    <glyph glyph-name="e" unicode="e" horiz-adv-x="1146" 
d="M1067.99 508.99c0 -31.9902 -2.00977 -77.9805 -7.00977 -95.9707h-700.99c31.9902 -119 126.99 -191.01 254.99 -192c105 -1 184 46 239 112.99l174 -162c-85.0098 -107.99 -231 -188.99 -432 -188.99c-293 0 -514.99 205.98 -514.99 517.98
c0 304 211.99 516 495.99 516c294.01 0 491.01 -215 491.01 -508.01zM585.98 781.02c-109 0 -194.01 -59 -225.01 -175h441.02c-27.0195 106 -100.01 175 -216.01 175z" />
    <glyph glyph-name="eacute" unicode="&#xe9;" horiz-adv-x="1146" 
d="M966.98 1440.99l-253.99 -301.99h-259.01l232.02 300.99zM1067.99 508.99c0 -31.9902 -2.00977 -77.9805 -7.00977 -95.9707h-700.99c31.9902 -119 126.99 -191.01 254.99 -192c105 -1 184 46 239 112.99l174 -162c-85.0098 -107.99 -231 -188.99 -432 -188.99
c-293 0 -514.99 205.98 -514.99 517.98c0 304 211.99 516 495.99 516c294.01 0 491.01 -215 491.01 -508.01zM585.98 781.02c-109 0 -194.01 -59 -225.01 -175h441.02c-27.0195 106 -100.01 175 -216.01 175z" />
    <glyph glyph-name="ebreve" unicode="&#x115;" horiz-adv-x="1146" 
d="M590.99 1128c-171 0 -319.02 109 -334.029 308h202.02c5 -72.0098 52 -129.01 132 -129.01c72.9902 0 126.99 48.9902 130.99 129.01h203.02c-14 -176 -139.01 -308 -334 -308zM1067.96 508.99c0 -31.9902 -2.00977 -77.9805 -7.00977 -95.9707h-700.99
c31.9902 -119 126.99 -191.01 254.99 -192c105 -1 184 46 239 112.99l174 -162c-85.0098 -107.99 -231 -188.99 -432 -188.99c-293 0 -514.99 205.98 -514.99 517.98c0 304 211.99 516 495.99 516c294.01 0 491.01 -215 491.01 -508.01zM585.951 781.02
c-109 0 -194.01 -59 -225.01 -175h441.02c-27.0195 106 -100.01 175 -216.01 175z" />
    <glyph glyph-name="ecaron" unicode="&#x11b;" horiz-adv-x="1146" 
d="M707.99 1134.98h-236.99l-232.02 306.01h246l102.01 -154h6l103 154h246zM1068 508.98c0 -31.9902 -2.00977 -77.9805 -7.00977 -95.9707h-700.99c31.9902 -119 126.99 -191.01 254.99 -192c105 -1 184 46 239 112.99l174 -162
c-85.0098 -107.99 -231 -188.99 -432 -188.99c-293 0 -514.99 205.98 -514.99 517.98c0 304 211.99 516 495.99 516c294.01 0 491.01 -215 491.01 -508.01zM585.99 781.01c-109 0 -194.01 -59 -225.01 -175h441.02c-27.0195 106 -100.01 175 -216.01 175z" />
    <glyph glyph-name="ecircumflex" unicode="&#xea;" horiz-adv-x="1146" 
d="M585.99 1288.99l-102.02 -154h-245l227 306.01h237.02l239 -306.01h-247l-103 154h-6zM1067.98 508.99c0 -31.9902 -2.00977 -77.9805 -7.00977 -95.9707h-700.99c31.9902 -119 126.99 -191.01 254.99 -192c105 -1 184 46 239 112.99l174 -162
c-85.0098 -107.99 -231 -188.99 -432 -188.99c-293 0 -514.99 205.98 -514.99 517.98c0 304 211.99 516 495.99 516c294.01 0 491.01 -215 491.01 -508.01zM585.971 781.02c-109 0 -194.01 -59 -225.01 -175h441.02c-27.0195 106 -100.01 175 -216.01 175z" />
    <glyph glyph-name="uni1EBF" unicode="&#x1ebf;" horiz-adv-x="1146" 
d="M1338.98 1629l-305 -301.02h-200l232 300.02zM587.971 1288.99l-101.99 -154h-245l227 306.01h237l239 -306.01h-246.99l-103.02 154h-6zM576.971 1017c294.01 0 491 -214.971 491 -507.98c0 -31.9902 -2 -78.0098 -7 -96h-700.99
c31.9902 -119 126.99 -191.01 254.99 -192c105 -1 184 46 239 112.99l174 -162c-85.0098 -107.99 -231 -188.99 -432 -188.99c-293 0 -514.99 205.98 -514.99 517.98c0 304 211.99 516 495.99 516zM585.971 781.01c-109 0 -194.01 -59 -225.01 -175h441.02
c-27.0195 106 -100.01 175 -216.01 175z" />
    <glyph glyph-name="uni1EC7" unicode="&#x1ec7;" horiz-adv-x="1146" 
d="M587 1288.99l-102.01 -154h-245l227 306.01h237.02l238.98 -306.01h-246.99l-103 154h-6zM1067.99 508.99c0 -31.9902 -2.00977 -77.9805 -7.00977 -95.9707h-700.99c31.9902 -119 126.99 -191.01 254.99 -192c105 -1 184 46 239 112.99l174 -162
c-85.0098 -107.99 -231 -188.99 -432 -188.99c-293 0 -514.99 205.98 -514.99 517.98c0 304 211.99 516 495.99 516c294.01 0 491.01 -215 491.01 -508.01zM585.98 781.02c-109 0 -194.01 -59 -225.01 -175h441.02c-27.0195 106 -100.01 175 -216.01 175zM598.98 -183.95
c92 0 165.99 -73.0098 165.99 -164.01c0 -89 -73.9902 -163 -165.99 -163c-91.0098 0 -166.01 74 -166.01 163c0 91 75 164.01 166.01 164.01z" />
    <glyph glyph-name="uni1EC1" unicode="&#x1ec1;" horiz-adv-x="1146" 
d="M1111.98 1328.99h-195.99l-247.99 301l269.98 -0.990234zM585.99 1288.99l-102.02 -154h-245l227 306.01h237.02l239 -306.01h-247l-103 154h-6zM576.971 1017c294.01 0 491 -214.971 491 -507.98c0 -31.9902 -2 -78.0098 -7 -96h-700.99
c31.9902 -119 126.99 -191.01 254.99 -192c105 -1 184 46 239 112.99l174 -162c-85.0098 -107.99 -231 -188.99 -432 -188.99c-293 0 -514.99 205.98 -514.99 517.98c0 304 211.99 516 495.99 516zM585.971 781.01c-109 0 -194.01 -59 -225.01 -175h441.02
c-27.0195 106 -100.01 175 -216.01 175z" />
    <glyph glyph-name="uni1EC3" unicode="&#x1ec3;" horiz-adv-x="1146" 
d="M978.98 1652.98c127 0 200.029 -69.0098 200.029 -163.01c0 -83.9902 -68 -140.99 -174 -164.99l-15.0098 -50l-103 -2.99023c-20.9902 19.9902 -37.9902 38.9902 -37.9902 62.9902c0 62 159.99 85 159.99 154.02c0 24.9902 -18 37.9902 -49.9902 37.9902
c-50.0195 0 -104.01 -28 -138.029 -61l-93 88.9902c53 53 152 98 251 98zM587.01 1288.98l-102.01 -154h-245l227 306.01h237.02l238.98 -306.01h-246.99l-103 154h-6zM577 1016.99c294.01 0 491 -214.971 491 -507.98c0 -31.9902 -2 -78.0098 -7 -96h-700.99
c31.9902 -119 126.99 -191.01 254.99 -192c105 -1 184 46 239 112.99l174 -162c-85.0098 -107.99 -231 -188.99 -432 -188.99c-293 0 -514.99 205.98 -514.99 517.98c0 304 211.99 516 495.99 516zM586 781c-109 0 -194.01 -59 -225.01 -175h441.02
c-27.0195 106 -100.01 175 -216.01 175z" />
    <glyph glyph-name="uni1EC5" unicode="&#x1ec5;" horiz-adv-x="1146" 
d="M482.98 1578.99c-35.9805 0 -70.9707 -39.9902 -96.9805 -101.99l-159.99 69c41.9902 136.99 123.01 238 224 238c85.0098 0 122 -30 166 -55.9902c35.9902 -23.0195 70.0098 -45.0195 111.01 -45.0195c48.9902 0 89.9902 39.0195 114.99 100.01l158 -52
c-41 -152 -127.02 -256 -240.01 -256c-75 0 -131 31 -178.99 61c-39.0195 23 -59.0098 42.9902 -98.0293 42.9902zM466.99 1441h237.02l238.98 -306.01h-246.99l-103 154h-6l-102.01 -154h-245zM1068 509c0 -31.9902 -2.00977 -77.9805 -7.00977 -95.9707h-700.99
c31.9902 -119 126.99 -191.01 254.99 -192c105 -1 184 46 239 112.99l174 -162c-85.0098 -107.99 -231 -188.99 -432 -188.99c-293 0 -514.99 205.98 -514.99 517.98c0 304 211.99 516 495.99 516c294.01 0 491.01 -215 491.01 -508.01zM585.99 781.029
c-109 0 -194.01 -59 -225.01 -175h441.02c-27.0195 106 -100.01 175 -216.01 175z" />
    <glyph glyph-name="edieresis" unicode="&#xeb;" horiz-adv-x="1146" 
d="M374.99 1140.98c-93 0 -167 73.0098 -167 164.01c0 89 74 163 167 163c90.0098 0 166.01 -74 166.01 -163c0 -91 -76 -164.01 -166.01 -164.01zM803.99 1142.98c-90.9902 0 -164.99 73.0195 -164.99 162.01c0 87 74 162 164.99 162c89 0 164 -75 164 -162
c0 -88.9902 -75 -162.01 -164 -162.01zM1068 508.98c0 -31.9902 -2.00977 -77.9805 -7.00977 -95.9707h-700.99c31.9902 -119 126.99 -191.01 254.99 -192c105 -1 184 46 239 112.99l174 -162c-85.0098 -107.99 -231 -188.99 -432 -188.99
c-293 0 -514.99 205.98 -514.99 517.98c0 304 211.99 516 495.99 516c294.01 0 491.01 -215 491.01 -508.01zM585.99 781.01c-109 0 -194.01 -59 -225.01 -175h441.02c-27.0195 106 -100.01 175 -216.01 175z" />
    <glyph glyph-name="edotaccent" unicode="&#x117;" horiz-adv-x="1146" 
d="M590.99 1140.98c-92 0 -166.02 73.0098 -166.02 164.01c0 89 74.0195 163 166.02 163c90.9902 0 165.99 -74 165.99 -163c0 -91 -75 -164.01 -165.99 -164.01zM1067.99 508.98c0 -31.9902 -2.00977 -77.9805 -7.00977 -95.9707h-700.99
c31.9902 -119 126.99 -191.01 254.99 -192c105 -1 184 46 239 112.99l174 -162c-85.0098 -107.99 -231 -188.99 -432 -188.99c-293 0 -514.99 205.98 -514.99 517.98c0 304 211.99 516 495.99 516c294.01 0 491.01 -215 491.01 -508.01zM585.98 781.01
c-109 0 -194.01 -59 -225.01 -175h441.02c-27.0195 106 -100.01 175 -216.01 175z" />
    <glyph glyph-name="uni1EB9" unicode="&#x1eb9;" horiz-adv-x="1146" 
d="M1067.99 508.99c0 -31.9902 -2.00977 -77.9805 -7.00977 -95.9707h-700.99c31.9902 -119 126.99 -191.01 254.99 -192c105 -1 184 46 239 112.99l174 -162c-85.0098 -107.99 -231 -188.99 -432 -188.99c-293 0 -514.99 205.98 -514.99 517.98
c0 304 211.99 516 495.99 516c294.01 0 491.01 -215 491.01 -508.01zM585.98 781.02c-109 0 -194.01 -59 -225.01 -175h441.02c-27.0195 106 -100.01 175 -216.01 175zM598.98 -183.95c92 0 165.99 -73.0098 165.99 -164.01c0 -89 -73.9902 -163 -165.99 -163
c-91.0098 0 -166.01 74 -166.01 163c0 91 75 164.01 166.01 164.01z" />
    <glyph glyph-name="egrave" unicode="&#xe8;" horiz-adv-x="1146" 
d="M771.99 1139l-259.01 -0.00976562l-252.99 302l281 -1zM1067.99 508.98c0 -31.9902 -2.00977 -77.9805 -7.00977 -95.9707h-700.99c31.9902 -119 126.99 -191.01 254.99 -192c105 -1 184 46 239 112.99l174 -162c-85.0098 -107.99 -231 -188.99 -432 -188.99
c-293 0 -514.99 205.98 -514.99 517.98c0 304 211.99 516 495.99 516c294.01 0 491.01 -215 491.01 -508.01zM585.98 781.01c-109 0 -194.01 -59 -225.01 -175h441.02c-27.0195 106 -100.01 175 -216.01 175z" />
    <glyph glyph-name="uni1EBB" unicode="&#x1ebb;" horiz-adv-x="1146" 
d="M591.99 1350.98c-50 0 -103.99 -27.9902 -138.01 -60.9902l-93 88.9902c53 53 152 97 251 97c137 0 211 -69 211 -162c0 -85.0195 -67.9902 -142.02 -184.99 -165.02l-15.0098 -49.9902l-103 -3c-20.9902 20.0098 -37.9902 38.0098 -37.9902 62
c0 63.0195 168 86.0195 168 154.01c0 31.0098 -27.0098 39 -58 39zM1067.99 508.99c0 -31.9902 -2.00977 -77.9805 -7.00977 -95.9707h-700.99c31.9902 -119 126.99 -191.01 254.99 -192c105 -1 184 46 239 112.99l174 -162c-85.0098 -107.99 -231 -188.99 -432 -188.99
c-293 0 -514.99 205.98 -514.99 517.98c0 304 211.99 516 495.99 516c294.01 0 491.01 -215 491.01 -508.01zM585.98 781.02c-109 0 -194.01 -59 -225.01 -175h441.02c-27.0195 106 -100.01 175 -216.01 175z" />
    <glyph glyph-name="emacron" unicode="&#x113;" horiz-adv-x="1146" 
d="M902.98 1408v-214.02h-623v214.02h623zM1067.98 508.98c0 -31.9902 -2.00977 -77.9805 -7.00977 -95.9707h-700.99c31.9902 -119 126.99 -191.01 254.99 -192c105 -1 184 46 239 112.99l174 -162c-85.0098 -107.99 -231 -188.99 -432 -188.99
c-293 0 -514.99 205.98 -514.99 517.98c0 304 211.99 516 495.99 516c294.01 0 491.01 -215 491.01 -508.01zM585.971 781.01c-109 0 -194.01 -59 -225.01 -175h441.02c-27.0195 106 -100.01 175 -216.01 175z" />
    <glyph glyph-name="eogonek" unicode="&#x119;" horiz-adv-x="1146" 
d="M1067.99 508.99c0 -31.9902 -1.98047 -77.9717 -6.98047 -95.9619h-700.99c31.9902 -119 126.99 -191.01 254.99 -192c105 -1 184 46 239 112.99l174 -162c-58 -74 -144 -135 -257 -166c-97 -33.9697 -165.02 -85.9697 -165.02 -148.97
c0 -46.0195 31 -78.0098 85 -78.0098c49.9902 0 59 6 81 14l13 -150.02c-40.0195 -18 -96.0195 -24.9902 -149.02 -24.9902c-156 0 -244 76 -244 187c0 57 33 128 101.01 182.99v4c-240 42 -411.99 234.98 -411.99 508.98c0 304 211.99 516 495.99 516
c294.01 0 491.01 -215 491.01 -508.01zM586.01 781.028c-109 0 -194.01 -59 -225.01 -175h441.02c-27.0195 106 -100.01 175 -216.01 175z" />
    <glyph glyph-name="uni1EBD" unicode="&#x1ebd;" horiz-adv-x="1146" 
d="M468.99 1234.98c-51 0 -88.9902 -39.9805 -114.98 -101.98l-160 69c42 136.99 126.01 237.99 246 237.99c83.9902 0 131.99 -30 175.99 -55.9902c36.9902 -23 70.0098 -45.0195 111.01 -45.0195c48.9902 0 89.9902 39.0195 116 100.01l157 -52
c-41 -152 -126.02 -256 -240.01 -256c-75 0 -131 31 -178.99 61c-39.0195 23 -73.0195 42.9902 -112.02 42.9902zM1068 509c0 -31.9902 -2.00977 -77.9805 -7.00977 -95.9707h-700.99c31.9902 -119 126.99 -191.01 254.99 -192c105 -1 184 46 239 112.99l174 -162
c-85.0098 -107.99 -231 -188.99 -432 -188.99c-293 0 -514.99 205.98 -514.99 517.98c0 304 211.99 516 495.99 516c294.01 0 491.01 -215 491.01 -508.01zM585.99 781.029c-109 0 -194.01 -59 -225.01 -175h441.02c-27.0195 106 -100.01 175 -216.01 175z" />
    <glyph glyph-name="f" unicode="f" horiz-adv-x="713" 
d="M172.99 0l-0.00976562 777.98h-106v222h106v171.99c0 233 116 353 314 353c121 0 214 -41.9902 259 -71.9902l-53.9902 -210c-57.0195 28 -112.01 44 -150.01 44c-63 0 -100.99 -36.9902 -100.99 -134.99v-152h222.99v-222h-222.99v-777.99h-268z" />
    <glyph glyph-name="g" unicode="g" horiz-adv-x="1239" 
d="M844.98 1000l268 0.00976562v-885c0 -311.99 -138 -536.99 -522 -536.99c-156 0 -293.02 34 -410.02 100.99l62.0195 226c98 -53.9902 197 -93.0098 325 -93.0098c187 0 282.99 100 282.99 222v100.99h-5c-71 -75 -169 -117 -291 -117c-275.99 0 -476.99 201 -476.99 492
c0 293.99 195 507.01 463 507.01c111.99 0 220.01 -40 299 -120.02h5v103.02zM603.99 261.01c147.99 0 252.99 108.01 252.99 259.01c0 153 -111 253 -252.99 253c-149.02 0 -254.02 -104 -254.02 -255.02c0 -157.99 111 -256.99 254.02 -256.99z" />
    <glyph glyph-name="gbreve" unicode="&#x11f;" horiz-adv-x="1239" 
d="M607.99 1128c-171 0 -319.01 109 -334.02 308h202.02c5 -72.0098 52 -129.01 132 -129.01c73 0 127 48.9902 130.99 129.01h203.02c-14.0098 -176 -139.02 -308 -334.01 -308zM844.971 1000l268 0.00976562v-885c0 -311.99 -138 -536.99 -522 -536.99
c-156 0 -293.02 34 -410.02 100.99l62.0195 226c98 -53.9902 197 -93.0098 325 -93.0098c187 0 282.99 100 282.99 222v100.99h-5c-71 -75 -169 -117 -291 -117c-275.99 0 -476.99 201 -476.99 492c0 293.99 195 507.01 463 507.01c111.99 0 220.01 -40 299 -120.02h5
v103.02zM603.98 261.01c147.99 0 252.99 108.01 252.99 259.01c0 153 -111 253 -252.99 253c-149.02 0 -254.02 -104 -254.02 -255.02c0 -157.99 111 -256.99 254.02 -256.99z" />
    <glyph glyph-name="gcaron" unicode="&#x1e7;" horiz-adv-x="1239" 
d="M726 1134.98h-237.01l-232 306.01h246l102.01 -154h5.98047l103.02 154h246zM844.99 999.99l268 0.00976562v-885c0 -311.99 -138 -536.99 -522 -536.99c-156 0 -293.02 34 -410.02 100.99l62.0195 226c98 -53.9902 197 -93.0098 325 -93.0098
c187 0 282.99 100 282.99 222v100.99h-5c-71 -75 -169 -117 -291 -117c-275.99 0 -476.99 201 -476.99 492c0 293.99 195 507.01 463 507.01c111.99 0 220.01 -40 299 -120.02h5v103.02zM604 261c147.99 0 252.99 108.01 252.99 259.01c0 153 -111 253 -252.99 253
c-149.02 0 -254.02 -104 -254.02 -255.02c0 -157.99 111 -256.99 254.02 -256.99z" />
    <glyph glyph-name="gcircumflex" unicode="&#x11d;" horiz-adv-x="1239" 
d="M602.99 1288.99l-102.02 -154h-244.98l226.98 306.01h237.02l239 -306.01h-247l-103 154h-6zM844.971 1000l268 0.00976562v-885c0 -311.99 -138 -536.99 -522 -536.99c-156 0 -293.02 34 -410.02 100.99l62.0195 226c98 -53.9902 197 -93.0098 325 -93.0098
c187 0 282.99 100 282.99 222v100.99h-5c-71 -75 -169 -117 -291 -117c-275.99 0 -476.99 201 -476.99 492c0 293.99 195 507.01 463 507.01c111.99 0 220.01 -40 299 -120.02h5v103.02zM603.98 261.01c147.99 0 252.99 108.01 252.99 259.01c0 153 -111 253 -252.99 253
c-149.02 0 -254.02 -104 -254.02 -255.02c0 -157.99 111 -256.99 254.02 -256.99z" />
    <glyph glyph-name="gcommaaccent" unicode="&#x123;" horiz-adv-x="1239" 
d="M730.99 1151h-231.02c-7 30 -9 54.9902 -9 91.9902c0 169 119.01 258 284 251l56.0195 -151c-81 -24 -112 -54 -112 -114c0 -28 3.99023 -45 12 -77.9902zM844.961 1000l268 0.00976562v-885c0 -311.99 -138 -536.99 -522 -536.99c-156 0 -293.02 34 -410.02 100.99
l62.0195 226c98 -53.9902 197 -93.0098 325 -93.0098c187 0 282.99 100 282.99 222v100.99h-5c-71 -75 -169 -117 -291 -117c-275.99 0 -476.99 201 -476.99 492c0 293.99 195 507.01 463 507.01c111.99 0 220.01 -40 299 -120.02h5v103.02zM603.971 261.01
c147.99 0 252.99 108.01 252.99 259.01c0 153 -111 253 -252.99 253c-149.02 0 -254.02 -104 -254.02 -255.02c0 -157.99 111 -256.99 254.02 -256.99z" />
    <glyph glyph-name="gdotaccent" unicode="&#x121;" horiz-adv-x="1239" 
d="M607.99 1140.98c-92 0 -166 73.0098 -166 164.01c0 89 74 163 166 163c91 0 166 -74 166 -163c0 -91 -75 -164.01 -166 -164.01zM844.99 999.99l268 0.00976562v-885c0 -311.99 -138 -536.99 -522 -536.99c-156 0 -293.02 34 -410.02 100.99l62.0195 226
c98 -53.9902 197 -93.0098 325 -93.0098c187 0 282.99 100 282.99 222v100.99h-5c-71 -75 -169 -117 -291 -117c-275.99 0 -476.99 201 -476.99 492c0 293.99 195 507.01 463 507.01c111.99 0 220.01 -40 299 -120.02h5v103.02zM604 261
c147.99 0 252.99 108.01 252.99 259.01c0 153 -111 253 -252.99 253c-149.02 0 -254.02 -104 -254.02 -255.02c0 -157.99 111 -256.99 254.02 -256.99z" />
    <glyph glyph-name="h" unicode="h" horiz-adv-x="1222" 
d="M733 1017c215.99 0 368.971 -111 368.971 -416v-601.99h-269v533.99c0 182.99 -66.9902 242.99 -194.99 242.99c-143 0 -234 -89.9902 -234 -269.01v-506.98h-268v1507.98h268v-629h4c82 92.0195 198 138.02 325.02 138.02z" />
    <glyph glyph-name="hbar" unicode="&#x127;" horiz-adv-x="1222" 
d="M733 1017c215.99 0 368.971 -111 368.971 -416v-601.99h-269v533.99c0 182.99 -66.9902 242.99 -194.99 242.99c-143 0 -234 -89.9902 -234 -269.01v-506.98h-268v1134.98h-124v171h124v202h268v-202h200v-171h-200v-256h4c82 92.0195 198 138.02 325.02 138.02z" />
    <glyph glyph-name="hcircumflex" unicode="&#x125;" horiz-adv-x="1222" 
d="M511 1777.99l-102.01 -154h-245l227 306.01h237.02l238.98 -306.01h-246.99l-103 154h-6zM733 1017c215.99 0 368.971 -111 368.971 -416v-601.99h-269v533.99c0 182.99 -66.9902 242.99 -194.99 242.99c-143 0 -234 -89.9902 -234 -269.01v-506.98h-268v1507.98h268
v-629h4c82 92.0195 198 138.02 325.02 138.02z" />
    <glyph glyph-name="i" unicode="i" horiz-adv-x="564" 
d="M281.98 1140.98c-92 0 -166 73.0098 -166 164.01c0 89 74 163 166 163c91 0 166.02 -74 166.02 -163c0 -91 -75.0195 -164.01 -166.02 -164.01zM147.98 0v1000h268v-1000h-268z" />
    <glyph glyph-name="dotlessi" unicode="&#x131;" horiz-adv-x="564" 
d="M147.99 0v1000h268v-1000h-268z" />
    <glyph glyph-name="iacute" unicode="&#xed;" horiz-adv-x="565" 
d="M159.99 1139l232.01 301l281 1l-254.02 -302h-258.99zM148 0.00976562v1000h268v-1000h-268z" />
    <glyph glyph-name="ibreve" unicode="&#x12d;" horiz-adv-x="564" 
d="M281.98 1128c-158 0 -282.99 109 -297.98 308h198.98c5 -72.0098 35 -129.01 99 -129.01c56 0 94 48.9902 98 129.01h199c-13 -176 -116 -308 -297 -308zM147.98 0v1000h268v-1000h-268z" />
    <glyph glyph-name="icircumflex" unicode="&#xee;" horiz-adv-x="564" 
d="M276.99 1288.99l-102.02 -154h-244.98l227 306.01h237l239 -306.01h-247l-103 154h-6zM147.971 0.00976562v1000h268v-1000h-268z" />
    <glyph glyph-name="idieresis" unicode="&#xef;" horiz-adv-x="564" 
d="M93 1140.98c-88 0 -161.99 73.0098 -161.99 164.01c0 89 73.9902 163 161.99 163c89.9902 0 165.99 -74 165.99 -163c0 -91 -76 -164.01 -165.99 -164.01zM469 1142.98c-91 0 -165.02 73.0195 -165.02 162.01c0 87 74.0195 162 165.02 162c83 0 158 -75 158 -162
c0 -88.9902 -75 -162.01 -158 -162.01zM148 -0.00976562v1000h268v-1000h-268z" />
    <glyph glyph-name="i.loclTRK" horiz-adv-x="564" 
d="M281.98 1140.98c-92 0 -166 73.0098 -166 164.01c0 89 74 163 166 163c91 0 166.02 -74 166.02 -163c0 -91 -75.0195 -164.01 -166.02 -164.01zM147.98 0v1000h268v-1000h-268z" />
    <glyph glyph-name="uni1ECB" unicode="&#x1ecb;" horiz-adv-x="564" 
d="M281.98 1140.98c-92 0 -166 73.0098 -166 164.01c0 89 74 163 166 163c91 0 166.02 -74 166.02 -163c0 -91 -75.0195 -164.01 -166.02 -164.01zM147.98 0v1000h268v-1000h-268zM282.98 -183.99c92 0 166 -73.0098 166 -164.01c0 -89 -74 -163 -166 -163
c-90.9902 0 -166.01 74 -166.01 163c0 91 75.0195 164.01 166.01 164.01z" />
    <glyph glyph-name="igrave" unicode="&#xec;" horiz-adv-x="564" 
d="M151.98 1139l-176.99 301.99l281 -1l153.99 -300.99h-258zM147.98 0v1000h268v-1000h-268z" />
    <glyph glyph-name="uni1EC9" unicode="&#x1ec9;" horiz-adv-x="564" 
d="M210.98 1095.99c-20.9902 20.0098 -37.9805 38.0195 -37.9805 62.0098c0 63.0195 168 86.0195 168 154.01c0 31.0098 -27 39 -58 39c-50 0 -103.99 -28 -137.99 -61l-93 88.9902c52.9902 53 151.99 97 250.99 97c137 0 211 -69 211 -162
c0 -85.0195 -68 -142.02 -185 -165.02l-15 -49.9902zM147.99 0.00976562v1000h268v-1000h-268z" />
    <glyph glyph-name="ij" unicode="&#x133;" horiz-adv-x="1091" 
d="M827.99 1146.98c-92 0 -165.99 73.0098 -165.99 164.01c0 89 73.9902 163 165.99 163c91.0098 0 166.01 -74 166.01 -163c0 -91 -75 -164.01 -166.01 -164.01zM281.99 1140.98c-92 0 -166 73.0098 -166 164.01c0 89 74 163 166 163c91 0 166.02 -74 166.02 -163
c0 -91 -75.0195 -164.01 -166.02 -164.01zM147.99 0v1000h268v-1000h-268zM669.99 -421.99c-88.9902 0 -143.01 10.0098 -209.02 36l45.0195 223c28 -16 58 -25.0098 88.9902 -25.0098c64 0 102.02 46 102.02 139v1049h268v-1060c0 -240.99 -119.01 -361.99 -295.01 -361.99
z" />
    <glyph glyph-name="imacron" unicode="&#x12b;" horiz-adv-x="564" 
d="M-29 1193.98v214.02h622.97v-214.02h-622.97zM147.98 0v1000h268v-1000h-268z" />
    <glyph glyph-name="iogonek" unicode="&#x12f;" horiz-adv-x="564" 
d="M281.98 1140.98c-92 0 -166 73.0098 -166 164.01c0 89 74 163 166 163c91 0 166.02 -74 166.02 -163c0 -91 -75.0195 -164.01 -166.02 -164.01zM147.98 2.99023l0.00976562 997h268v-1000h-26c-104 -18 -167 -86 -167 -148c0 -51 30 -82.9902 84 -82.9902
c51 0 59.9902 6 81 13.9902l13 -145c-40.0195 -18 -95.0098 -24.9902 -149.01 -24.9902c-144 0 -232 75.9902 -232 186.99c0 65 42 146 128 203z" />
    <glyph glyph-name="itilde" unicode="&#x129;" horiz-adv-x="564" 
d="M450.99 1130.99c-75 0 -131.02 31.0195 -179.02 61.0195c-39 23 -58.9902 42.9902 -97.9902 42.9902c-36 0 -71 -40 -97.0098 -102l-159.99 69c42 136.99 123 237.99 223.99 237.99c85.0195 0 122.01 -30 166.029 -55.9902c36 -23 70 -45.0195 111 -45.0195
c48.9902 0 89.9902 39.0195 114.99 100.01l158 -52c-41 -152 -127 -256 -240 -256zM147.961 0.0195312v1000h268v-1000h-268z" />
    <glyph glyph-name="j" unicode="j" horiz-adv-x="527" 
d="M263.98 1146.98c-92 0 -166 73.0098 -166 164.01c0 89 74 163 166 163c90.9902 0 166.01 -74 166.01 -163c0 -91 -75.0195 -164.01 -166.01 -164.01zM105.98 -421.989c-88.9902 0 -142.99 10.0098 -208.98 36l45 223c28 -16 58 -25.0098 88.9902 -25.0098
c64 0 102 46 102 139v1049h268v-1060c0 -240.99 -119.01 -361.99 -295.01 -361.99z" />
    <glyph glyph-name="uni0237" unicode="&#x237;" horiz-adv-x="527" 
d="M105.98 -421.99c-88.9902 0 -142.99 10.0098 -208.98 36l45 223c28 -16 58 -25.0098 88.9902 -25.0098c64 0 102 46 102 139v1049h268v-1060c0 -240.99 -119.01 -361.99 -295.01 -361.99z" />
    <glyph glyph-name="jcircumflex" unicode="&#x135;" horiz-adv-x="527" 
d="M258.99 1294.99l-102.01 -154h-245l227 306.01h237l239 -306.01h-247l-102.99 154h-6zM132.98 -49v1049.01h268v-1060c0 -240.99 -119.01 -361.99 -295.01 -361.99c-88.9902 0 -142.99 10 -208.98 35.9902l45 223c28 -16 58 -25.0098 88.9902 -25.0098
c64 0 102 46 102 139z" />
    <glyph glyph-name="k" unicode="k" horiz-adv-x="1104" 
d="M546.97 397.99h-3l-141 -159v-238.98h-268v1507.98h268v-910.99h4.01953l356.99 403h314l-353 -398.01l359 -601.99h-298.99z" />
    <glyph glyph-name="kcommaaccent" unicode="&#x137;" horiz-adv-x="1104" 
d="M724.99 601.99l358.99 -601.99h-298.99l-238.02 397.99h-2.99023l-141 -159v-238.98h-268v1507.98h268v-910.99h4.01953l356.99 403h314zM457.98 -107.99l230.99 0.00976562c7 -30 9 -55.0098 9 -92.0098c0 -169 -119 -257.99 -284 -250.99l-55.9902 151
c81 23.9902 112.01 53.9902 112.01 113.99c0 28 -4.01953 45 -12.0098 78z" />
    <glyph glyph-name="kgreenlandic" unicode="&#x138;" horiz-adv-x="1106" 
d="M546.97 397.99l-2.99023 -0.00976562l-141 -159v-238.98h-268v1000h268v-406.02h2l359 406.02h315l-354 -398.01l361 -601.99h-300.01z" />
    <glyph glyph-name="l" unicode="l" horiz-adv-x="563" 
d="M147.99 0v1507.98h268v-1507.98h-268z" />
    <glyph glyph-name="lacute" unicode="&#x13a;" horiz-adv-x="563" 
d="M151 1632.99l232.01 301l280.98 1l-254 -302h-258.99zM148.01 0v1507.98h268v-1507.98h-268z" />
    <glyph glyph-name="lcaron" unicode="&#x13e;" horiz-adv-x="656" 
d="M529 1187.98l63.9902 423.02h255l-130 -423.02h-188.99zM147.98 0v1507.98h268v-1507.98h-268z" />
    <glyph glyph-name="lcommaaccent" unicode="&#x13c;" horiz-adv-x="563" 
d="M147.99 0v1507.98h268v-1507.98h-268zM116.99 -450.989l-55.9902 151.01c81 23.9902 112 53.9902 112 113.99c0 28 -4.00977 45 -12 78h231c7 -30 9 -55.0098 9 -92.0098c0 -169 -119.01 -257.99 -284.01 -250.99z" />
    <glyph glyph-name="ldot" unicode="&#x140;" horiz-adv-x="952" 
d="M147.99 0v1507.98h268v-1507.98h-268zM761 361.98c-93 0 -167.02 73.0195 -167.02 163.01c0 90.0098 74.0195 164.01 167.02 164.01c89.9902 0 164.99 -74 164.99 -164.01c0 -89.9902 -75 -163.01 -164.99 -163.01z" />
    <glyph glyph-name="lslash" unicode="&#x142;" horiz-adv-x="619" 
d="M564.98 905.99v-242l-115 -54.9902v-608.99h-268v482l-121 -57.0195v241l121 58v784h268v-657z" />
    <glyph glyph-name="m" unicode="m" horiz-adv-x="1827" 
d="M1352.99 1017c217 0 353 -130.971 353 -435.961v-582h-268v516.99c0 159.99 -48.9902 259.99 -175 259.99c-112.99 0 -204.01 -97 -204.01 -276v-501h-267.98v516.99c0 159.99 -52.0195 259.99 -177.01 259.99c-120 0 -211.02 -97 -211.02 -276v-500h-268v1000h268
v-132.02h3.01953c78.9902 97.0195 187.99 149.02 298.99 149.02c132.02 0 236.02 -50.0195 297.01 -161.02h3c82 105 205 161.02 348 161.02z" />
    <glyph glyph-name="n" unicode="n" horiz-adv-x="1212" 
d="M727.98 1017c214.02 0 363 -116.01 363 -424.01v-594h-268v526.99c0 191 -67.9902 250 -192 250c-136 0 -227 -95 -227 -273v-502.99h-268v1000h268v-129h3c81.9902 95.9902 198.01 146.01 321 146.01z" />
    <glyph glyph-name="nacute" unicode="&#x144;" horiz-adv-x="1212" 
d="M942.98 1440.99l-253.99 -301.99h-258.99l232 300.99zM727.99 1017c214.02 0 363 -116.01 363 -424.01v-594h-268v526.99c0 191 -67.9902 250 -192 250c-136 0 -227 -95 -227 -273v-502.99h-268v1000h268v-129h3c81.9902 95.9902 198.01 146.01 321 146.01z" />
    <glyph glyph-name="napostrophe" unicode="&#x149;" horiz-adv-x="1422" 
d="M-30 1012l63.9902 442.99h255l-130 -442.99h-188.99zM937.98 1017c214.02 0 363 -116.01 363 -424.01v-594h-268v526.99c0 191 -68 250 -192 250c-136 0 -226.99 -95 -226.99 -273v-502.99h-268v1000h268v-129h2.99023c82 95.9902 198 146.01 321 146.01z" />
    <glyph glyph-name="ncaron" unicode="&#x148;" horiz-adv-x="1212" 
d="M732 1134.98h-237l-232 306.01h246l101.99 -154h6l103.01 154h245.99zM728 1016.99c214.02 0 363 -116.01 363 -424.01v-594h-268v526.99c0 191 -67.9902 250 -192 250c-136 0 -227 -95 -227 -273v-502.99h-268v1000h268v-129h3
c81.9902 95.9902 198.01 146.01 321 146.01z" />
    <glyph glyph-name="ncommaaccent" unicode="&#x146;" horiz-adv-x="1212" 
d="M727.98 1017c214.02 0 363 -116.01 363 -424.01v-594h-268v526.99c0 191 -67.9902 250 -192 250c-136 0 -227 -95 -227 -273v-502.99h-268v1000h268v-129h3c81.9902 95.9902 198.01 146.01 321 146.01zM483.961 -108l231 0.00976562
c6.99023 -30 8.99023 -55.0098 8.99023 -92.0098c0 -169 -118.99 -257.99 -283.99 -250.99l-55.9902 151c81 23.9902 111.99 53.9902 111.99 113.99c0 28 -3.99023 45 -12 78z" />
    <glyph glyph-name="eng" unicode="&#x14b;" horiz-adv-x="1176" 
d="M715 1017c203 0 340.98 -119 340.98 -425v-647c0 -239.99 -119 -366.99 -293.99 -366.99c-90.0098 0 -144.01 10 -210 35.9902l45 213.02c28 -16.0195 58 -25.0195 89 -25.0195c64 0 101.99 56 101.99 139v582.98c0 185.02 -46 252.01 -171.01 252.01
c-112.99 0 -212.99 -97 -212.99 -276v-500h-268v1000h268v-128h4c81 93.9902 203 145.01 307.02 145.01z" />
    <glyph glyph-name="uni0272" unicode="&#x272;" horiz-adv-x="1212" 
d="M727.98 1017c214.02 0 362.99 -116.01 362.99 -424.01v-594h-268v526.99c0 191 -67.9902 250 -192 250c-136 0 -227 -95 -227 -273v-557.99c0 -239.99 -119.99 -366.99 -294.99 -366.99c-89 0 -143.99 10 -209.99 35.9902l45.0195 213.02
c29 -16.0195 58.9805 -25.0195 88.9805 -25.0195c65 0 102.99 56 102.99 139v1059h268v-129h3c81.9902 95.9902 198.01 146.01 321 146.01z" />
    <glyph glyph-name="ntilde" unicode="&#xf1;" horiz-adv-x="1212" 
d="M491.99 1234.98c-51 0 -89.0195 -39.9805 -115.01 -101.98l-160 69c42 136.99 126 237.99 246 237.99c83.9902 0 131.99 -30 176.01 -55.9902c36.9902 -23 70.0098 -45.0195 111.01 -45.0195c48.9902 0 89.9902 39.0195 116 100.01l157 -52
c-41 -152 -126.02 -256 -240.01 -256c-75 0 -131 31 -178.99 61c-39.0195 23 -73.0195 42.9902 -112.01 42.9902zM727.98 1017.01c214.02 0 363 -116.01 363 -424.01v-594h-268v526.99c0 191 -67.9902 250 -192 250c-136 0 -227 -95 -227 -273v-502.99h-268v1000h268v-129h3
c81.9902 95.9902 198.01 146.01 321 146.01z" />
    <glyph glyph-name="o" unicode="o" horiz-adv-x="1225" 
d="M612.99 -17c-318 0 -532 218 -532 516c0 298.98 214 518 532 518c311.01 0 532.01 -211 532.01 -518c0 -306.02 -221 -516 -532.01 -516zM612.99 222.99c145 0 259.99 114.02 259.99 276.02c0 164 -111.99 276.99 -259.99 276.99c-156 0 -261 -118.99 -261 -276.99
c0 -155.02 108 -276.02 261 -276.02z" />
    <glyph glyph-name="oacute" unicode="&#xf3;" horiz-adv-x="1225" 
d="M480.99 1139l232.01 301l281 1l-254.02 -302h-258.99zM613 -16.9805c-318 0 -532 218 -532 516c0 298.98 214 518 532 518c311.01 0 532.01 -211 532.01 -518c0 -306.02 -221 -516 -532.01 -516zM613 223.01c145 0 259.99 114.02 259.99 276.02
c0 164 -111.99 276.99 -259.99 276.99c-156 0 -261 -118.99 -261 -276.99c0 -155.02 108 -276.02 261 -276.02z" />
    <glyph glyph-name="obreve" unicode="&#x14f;" horiz-adv-x="1225" 
d="M613.99 1128c-171 0 -319.02 109 -334.029 308h202.02c5 -72.0098 52 -129.01 132 -129.01c72.9902 0 126.99 48.9902 130.99 129.01h203.02c-14 -176 -139.01 -308 -334 -308zM612.961 -16.9902c-318 0 -532 218 -532 516c0 298.98 214 518 532 518
c311.01 0 532.01 -211 532.01 -518c0 -306.02 -221 -516 -532.01 -516zM612.961 223c145 0 259.99 114.02 259.99 276.02c0 164 -111.99 276.99 -259.99 276.99c-156 0 -261 -118.99 -261 -276.99c0 -155.02 108 -276.02 261 -276.02z" />
    <glyph glyph-name="ocircumflex" unicode="&#xf4;" horiz-adv-x="1225" 
d="M608.99 1288.99l-102.02 -154h-245l227 306.01h237.02l239 -306.01h-247l-103 154h-6zM612.971 1017c311.01 0 532.01 -210.99 532.01 -517.99c0 -306.02 -221 -516 -532.01 -516c-318 0 -532 217.99 -532 515.99c0 298.98 214 518 532 518zM612.971 223
c145 0 259.99 114.02 259.99 276.02c0 164 -111.99 276.99 -259.99 276.99c-156 0 -261 -118.99 -261 -276.99c0 -155.02 108 -276.02 261 -276.02z" />
    <glyph glyph-name="uni1ED1" unicode="&#x1ed1;" horiz-adv-x="1225" 
d="M1361.98 1629l-305 -301.02h-200l232 300.02zM610.961 1288.99l-102 -154h-245l227 306.01h237l239 -306.01h-246.99l-103.01 154h-6zM612.961 1017c311.01 0 532.01 -210.99 532.01 -517.99c0 -306.02 -221 -516 -532.01 -516c-318 0 -532 217.99 -532 515.99
c0 298.98 214 518 532 518zM612.961 223c145 0 259.99 114.02 259.99 276.02c0 164 -111.99 276.99 -259.99 276.99c-156 0 -261 -118.99 -261 -276.99c0 -155.02 108 -276.02 261 -276.02z" />
    <glyph glyph-name="uni1ED9" unicode="&#x1ed9;" horiz-adv-x="1225" 
d="M610 1288.99l-102.02 -154h-245l227 306.01h237.02l238.99 -306.01h-246.99l-103 154h-6zM612.98 1017c311.01 0 532.01 -210.99 532.01 -517.99c0 -306.02 -221 -516 -532.01 -516c-318 0 -532 217.99 -532 515.99c0 298.98 214 518 532 518zM612.98 223
c145 0 259.99 114.02 259.99 276.02c0 164 -111.99 276.99 -259.99 276.99c-156 0 -261 -118.99 -261 -276.99c0 -155.02 108 -276.02 261 -276.02zM613.971 -183.971c92 0 166 -73.0098 166 -164.01c0 -89 -74 -163 -166 -163c-91 0 -166 74 -166 163
c0 91 75 164.01 166 164.01z" />
    <glyph glyph-name="uni1ED3" unicode="&#x1ed3;" horiz-adv-x="1225" 
d="M1134.98 1328.99h-195.99l-247.99 301l269.98 -0.990234zM608.99 1288.99l-102.02 -154h-245l227 306.01h237.02l239 -306.01h-247l-103 154h-6zM612.971 1017c311.01 0 532.01 -210.99 532.01 -517.99c0 -306.02 -221 -516 -532.01 -516c-318 0 -532 217.99 -532 515.99
c0 298.98 214 518 532 518zM612.971 223c145 0 259.99 114.02 259.99 276.02c0 164 -111.99 276.99 -259.99 276.99c-156 0 -261 -118.99 -261 -276.99c0 -155.02 108 -276.02 261 -276.02z" />
    <glyph glyph-name="uni1ED5" unicode="&#x1ed5;" horiz-adv-x="1225" 
d="M1001.98 1652.98c127 0 200.029 -69.0098 200.029 -163.01c0 -83.9902 -68 -140.99 -174 -164.99l-15.0098 -50l-103 -2.99023c-20.9902 19.9902 -37.9902 38.9902 -37.9902 62.9902c0 62 159.99 85 159.99 154.02c0 24.9902 -18 37.9902 -49.9902 37.9902
c-50.0195 0 -104.01 -28 -138.029 -61l-93 88.9902c53 53 152 98 251 98zM610.01 1288.98l-102.02 -154h-245l227 306.01h237.02l238.99 -306.01h-246.99l-103 154h-6zM612.99 1016.99c311.01 0 532.01 -210.99 532.01 -517.99c0 -306.02 -221 -516 -532.01 -516
c-318 0 -532 217.99 -532 515.99c0 298.98 214 518 532 518zM612.99 222.99c145 0 259.99 114.02 259.99 276.02c0 164 -111.99 276.99 -259.99 276.99c-156 0 -261 -118.99 -261 -276.99c0 -155.02 108 -276.02 261 -276.02z" />
    <glyph glyph-name="uni1ED7" unicode="&#x1ed7;" horiz-adv-x="1225" 
d="M506 1578.99c-36 0 -70.9902 -39.9902 -97 -101.99l-159.99 69c41.9805 136.99 123 238 223.99 238c85.0098 0 122 -30 166.02 -55.9902c35.9805 -23.0195 70 -45.0195 111 -45.0195c48.9902 0 89.9902 39.0195 114.99 100.01l158 -52c-41 -152 -127 -256 -240.01 -256
c-75 0 -131 31 -178.99 61c-39.0195 23 -59.0098 42.9902 -98.0098 42.9902zM489.99 1441h237.01l238.99 -306.01h-246.99l-103 154h-6l-102.01 -154h-245zM612.99 1017c311.01 0 532.01 -210.99 532.01 -517.99c0 -306.02 -221 -516 -532.01 -516
c-318 0 -532 217.99 -532 515.99c0 298.98 214 518 532 518zM612.99 223c145 0 259.99 114.02 259.99 276.02c0 164 -111.99 276.99 -259.99 276.99c-156 0 -261 -118.99 -261 -276.99c0 -155.02 108 -276.02 261 -276.02z" />
    <glyph glyph-name="odieresis" unicode="&#xf6;" horiz-adv-x="1225" 
d="M397.99 1140.98c-93 0 -167 73.0098 -167 164.01c0 89 74 163 167 163c90.0098 0 166.01 -74 166.01 -163c0 -91 -76 -164.01 -166.01 -164.01zM826.99 1142.98c-91 0 -164.99 73.0195 -164.99 162.01c0 87 73.9902 162 164.99 162c89 0 164 -75 164 -162
c0 -88.9902 -75 -162.01 -164 -162.01zM612.99 -17c-318 0 -532 218 -532 516c0 298.98 214 518 532 518c311.01 0 532.01 -211 532.01 -518c0 -306.02 -221 -516 -532.01 -516zM612.99 222.99c145 0 259.99 114.02 259.99 276.02c0 164 -111.99 276.99 -259.99 276.99
c-156 0 -261 -118.99 -261 -276.99c0 -155.02 108 -276.02 261 -276.02z" />
    <glyph glyph-name="uni1ECD" unicode="&#x1ecd;" horiz-adv-x="1225" 
d="M612.99 -17c-318 0 -532 218 -532 516c0 298.98 214 518 532 518c311.01 0 532.01 -211 532.01 -518c0 -306.02 -221 -516 -532.01 -516zM612.99 222.99c145 0 259.99 114.02 259.99 276.02c0 164 -111.99 276.99 -259.99 276.99c-156 0 -261 -118.99 -261 -276.99
c0 -155.02 108 -276.02 261 -276.02zM613.98 -183.98c92 0 166 -73.0098 166 -164.01c0 -89 -74 -163 -166 -163c-91 0 -166 74 -166 163c0 91 75 164.01 166 164.01z" />
    <glyph glyph-name="ograve" unicode="&#xf2;" horiz-adv-x="1225" 
d="M515.99 1139l-253.01 301.99l281 -1l231 -300.99h-258.99zM612.98 -17c-318 0 -532 218 -532 516c0 298.98 214 518 532 518c311.01 0 532.01 -211 532.01 -518c0 -306.02 -221 -516 -532.01 -516zM612.98 222.99c145 0 259.99 114.02 259.99 276.02
c0 164 -111.99 276.99 -259.99 276.99c-156 0 -261 -118.99 -261 -276.99c0 -155.02 108 -276.02 261 -276.02z" />
    <glyph glyph-name="uni1ECF" unicode="&#x1ecf;" horiz-adv-x="1225" 
d="M542.99 1095.99c-21 20.0098 -37.9805 38.0195 -37.9805 62.0098c0 63.0195 168 86.0195 168 154.01c0 31.0098 -27.0098 39 -58 39c-50 0 -103.99 -28 -137.99 -61l-93 88.9902c52.9805 53 151.98 97 250.98 97c137 0 211 -69 211 -162
c0 -85.0195 -68 -142.02 -185 -165.02l-15.0098 -49.9902zM613.01 -16.9805c-318 0 -532 218 -532 516c0 298.98 214 518 532 518c311.01 0 532.01 -211 532.01 -518c0 -306.02 -221 -516 -532.01 -516zM613.01 223.01c145 0 259.99 114.02 259.99 276.02
c0 164 -111.99 276.99 -259.99 276.99c-156 0 -261 -118.99 -261 -276.99c0 -155.02 108 -276.02 261 -276.02z" />
    <glyph glyph-name="ohorn" unicode="&#x1a1;" horiz-adv-x="1399" 
d="M1128 1158.98l250.98 0.00976562v-151c0 -195.99 -88.9902 -322.99 -248.99 -365.99l-1 -2.99023c10.0195 -44.0195 16.0195 -91.0195 16.0195 -140.01c0 -306.02 -221 -516 -532.01 -516c-318 0 -532 217.99 -532 515.99c0 298.98 214 518 532 518
c196 0 356 -84.0098 448 -222.01c65 39 67 119 67 219v145zM612.99 222.99c145 0 259.99 114.02 259.99 276.02c0 164 -111.99 276.99 -259.99 276.99c-156 0 -261 -118.99 -261 -276.99c0 -155.02 108 -276.02 261 -276.02z" />
    <glyph glyph-name="uni1EDB" unicode="&#x1edb;" horiz-adv-x="1399" 
d="M994 1440.99l-254.01 -301.99h-258.99l232 300.99zM1128.01 1158.99l250.98 0.00976562v-151c0 -195.99 -88.9902 -322.99 -248.99 -365.99l-1 -2.99023c10.0195 -44.0195 16.0195 -91.0195 16.0195 -140.01c0 -306.02 -221 -516 -532.01 -516
c-318 0 -532 217.99 -532 515.99c0 298.98 214 518 532 518c196 0 356 -84.0098 448 -222.01c65 39 67 119 67 219v145zM613 223c145 0 259.99 114.02 259.99 276.02c0 164 -111.99 276.99 -259.99 276.99c-156 0 -261 -118.99 -261 -276.99
c0 -155.02 108 -276.02 261 -276.02z" />
    <glyph glyph-name="uni1EE3" unicode="&#x1ee3;" horiz-adv-x="1399" 
d="M1128 1158.98l250.98 0.00976562v-151c0 -195.99 -88.9902 -322.99 -248.99 -365.99l-1 -2.99023c10.0195 -44.0195 16.0195 -91.0195 16.0195 -140.01c0 -306.02 -221 -516 -532.01 -516c-318 0 -532 217.99 -532 515.99c0 298.98 214 518 532 518
c196 0 356 -84.0098 448 -222.01c65 39 67 119 67 219v145zM612.99 222.99c145 0 259.99 114.02 259.99 276.02c0 164 -111.99 276.99 -259.99 276.99c-156 0 -261 -118.99 -261 -276.99c0 -155.02 108 -276.02 261 -276.02zM613.98 -183.98c92 0 166 -73.0098 166 -164.01
c0 -89 -74 -163 -166 -163c-91 0 -166 74 -166 163c0 91 75 164.01 166 164.01z" />
    <glyph glyph-name="uni1EDD" unicode="&#x1edd;" horiz-adv-x="1399" 
d="M774.98 1139l-259 -0.00976562l-253 302l281 -1zM1127.98 1158.98l250.98 0.00976562v-151c0 -195.99 -88.9902 -322.99 -248.99 -365.99l-1 -2.99023c10.0195 -44.0195 16.0195 -91.0195 16.0195 -140.01c0 -306.02 -221 -516 -532.01 -516
c-318 0 -532 217.99 -532 515.99c0 298.98 214 518 532 518c196 0 356 -84.0098 448 -222.01c65 39 67 119 67 219v145zM612.971 222.99c145 0 259.99 114.02 259.99 276.02c0 164 -111.99 276.99 -259.99 276.99c-156 0 -261 -118.99 -261 -276.99
c0 -155.02 108 -276.02 261 -276.02z" />
    <glyph glyph-name="uni1EDF" unicode="&#x1edf;" horiz-adv-x="1399" 
d="M614.99 1350.98c-50 0 -103.971 -27.9902 -137.971 -60.9902l-93 88.9902c52.9805 53 151.98 97 250.98 97c137 0 211 -69 211 -162c0 -85.0195 -68 -142.02 -185 -165.02l-15.0098 -49.9902l-103 -3c-21 20.0098 -38 38.0098 -38 62c0 63.0195 168 86.0195 168 154.01
c0 31.0098 -27.0098 39 -58 39zM1128.01 1158.99l250.98 0.00976562v-151c0 -195.99 -88.9902 -322.99 -248.99 -365.99l-1 -2.99023c10.0195 -44.0195 16.0195 -91.0195 16.0195 -140.01c0 -306.02 -221 -516 -532.01 -516c-318 0 -532 217.99 -532 515.99
c0 298.98 214 518 532 518c196 0 356 -84.0098 448 -222.01c65 39 67 119 67 219v145zM613 223c145 0 259.99 114.02 259.99 276.02c0 164 -111.99 276.99 -259.99 276.99c-156 0 -261 -118.99 -261 -276.99c0 -155.02 108 -276.02 261 -276.02z" />
    <glyph glyph-name="uni1EE1" unicode="&#x1ee1;" horiz-adv-x="1399" 
d="M491.99 1234.98c-51 0 -89.0195 -39.9805 -115.01 -101.98l-160 69c42 136.99 126 237.99 246 237.99c83.9902 0 131.99 -30 176.01 -55.9902c36.9902 -23 70.0098 -45.0195 111.01 -45.0195c48.9902 0 89.9902 39.0195 116 100.01l157 -52
c-41 -152 -126.02 -256 -240.01 -256c-75 0 -131 31 -178.99 61c-39.0195 23 -73.0195 42.9902 -112.01 42.9902zM1127.99 1159l250.98 0.00976562v-151c0 -195.99 -88.9902 -322.99 -248.99 -365.99l-1 -2.99023c10.0195 -44.0195 16.0195 -91.0195 16.0195 -140.01
c0 -306.02 -221 -516 -532.01 -516c-318 0 -532 217.99 -532 515.99c0 298.98 214 518 532 518c196 0 356 -84.0098 448 -222.01c65 39 67 119 67 219v145zM612.98 223.01c145 0 259.99 114.02 259.99 276.02c0 164 -111.99 276.99 -259.99 276.99
c-156 0 -261 -118.99 -261 -276.99c0 -155.02 108 -276.02 261 -276.02z" />
    <glyph glyph-name="ohungarumlaut" unicode="&#x151;" horiz-adv-x="1225" 
d="M253.99 1139l230.99 301l269 1l-253 -302h-246.99zM671.98 1139.01l229.99 301l270 1l-253.99 -302h-246zM612.971 -16.9707c-318 0 -532 218 -532 516c0 298.98 214 518 532 518c311.01 0 532.01 -211 532.01 -518c0 -306.02 -221 -516 -532.01 -516zM612.971 223.02
c145 0 259.99 114.02 259.99 276.02c0 164 -111.99 276.99 -259.99 276.99c-156 0 -261 -118.99 -261 -276.99c0 -155.02 108 -276.02 261 -276.02z" />
    <glyph glyph-name="omacron" unicode="&#x14d;" horiz-adv-x="1225" 
d="M302.98 1193.98v214.02h623v-214.02h-623zM612.98 -17c-318 0 -532 218 -532 516c0 298.98 214 518 532 518c311.01 0 532.01 -211 532.01 -518c0 -306.02 -221 -516 -532.01 -516zM612.98 222.99c145 0 259.99 114.02 259.99 276.02
c0 164 -111.99 276.99 -259.99 276.99c-156 0 -261 -118.99 -261 -276.99c0 -155.02 108 -276.02 261 -276.02z" />
    <glyph glyph-name="uni01EB" unicode="&#x1eb;" horiz-adv-x="1225" 
d="M689.99 -12c-75 -28 -119 -84.0088 -119 -136.009c0 -51 30 -82.9902 84 -82.9902c51 0 60.0098 6 81 13.9902l13 -145c-40 -18 -95 -24.9902 -149 -24.9902c-144 0 -232 75.9902 -232 186.99c0 61 37 136 113 193v3c-244 51.9697 -400 247.989 -400 502.989
c0 298.98 214 518 532 518c311.01 0 532.01 -211 532.01 -518c0 -280 -185 -480 -455.01 -510.98zM351.99 499.011c0 -155.02 107.99 -276.01 260.99 -276.01c145 0 260 114.01 260 276.01c0 164 -111.99 276.99 -259.99 276.99c-156 0 -261 -118.99 -261 -276.99z" />
    <glyph glyph-name="oslash" unicode="&#xf8;" horiz-adv-x="1225" 
d="M1146.98 943.98l-109.02 -117.971c68 -86.0195 107.02 -198.01 107.02 -327.01c0 -306.02 -221 -516 -532.01 -516c-111 0 -209 25.9902 -290 72.9902l-105 -112.99l-118 109.98l99 107c-75 89.0098 -117.99 206.01 -117.99 339.01c0 298.98 214 518 532 518
c117 0 221 -30 306.01 -84l110.99 120.01zM351.961 499.01c0 -51 12.0098 -99.0098 33 -139.01l357.01 383c-37.9902 21 -82.0098 33 -129.01 33c-156 0 -261 -118.99 -261 -276.99zM872.971 499c0 46 -9 87 -23.9902 123.99l-348.02 -374.99
c33.0195 -16 71.0098 -25.0098 112.01 -25.0098c145 0 260 114.01 260 276.01z" />
    <glyph glyph-name="oslashacute" unicode="&#x1ff;" horiz-adv-x="1225" 
d="M988 1440.99l-254.01 -301.99h-258.99l232 300.99zM1146.99 943.98l-109.02 -117.971c68 -86.0195 107.02 -198.01 107.02 -327.01c0 -306.02 -221 -516 -532.01 -516c-111 0 -209 25.9902 -290 72.9902l-105 -112.99l-118 109.98l99 107
c-75 89.0098 -117.99 206.01 -117.99 339.01c0 298.98 214 518 532 518c117 0 221 -30 306.01 -84l110.99 120.01zM351.971 499.01c0 -51 12.0098 -99.0098 33 -139.01l357.01 383c-37.9902 21 -82.0098 33 -129.01 33c-156 0 -261 -118.99 -261 -276.99zM872.98 499
c0 46 -9 87 -23.9902 123.99l-348.02 -374.99c33.0195 -16 71.0098 -25.0098 112.01 -25.0098c145 0 260 114.01 260 276.01z" />
    <glyph glyph-name="otilde" unicode="&#xf5;" horiz-adv-x="1225" 
d="M781.99 1130.99c-75 0 -130.99 31.0195 -178.99 61.0195c-39 23 -73.0195 42.9902 -112.02 42.9902c-51 0 -89 -40 -114.99 -102l-160 69c42 136.99 126.01 237.99 246 237.99c84.0098 0 132 -30 176 -55.9902c36.9902 -23 70.0098 -45.0195 111.01 -45.0195
c48.9902 0 89.9902 39.0195 116 100.01l157 -52c-41 -152 -125.99 -256 -240.01 -256zM613 -16.9707c-318 0 -532 218 -532 516c0 298.98 214 518 532 518c311.01 0 532.01 -211 532.01 -518c0 -306.02 -221 -516 -532.01 -516zM613 223.02
c145 0 259.99 114.02 259.99 276.02c0 164 -111.99 276.99 -259.99 276.99c-156 0 -261 -118.99 -261 -276.99c0 -155.02 108 -276.02 261 -276.02z" />
    <glyph glyph-name="oe" unicode="&#x153;" horiz-adv-x="1658" 
d="M1602.99 508.99c0 -42 -3.99023 -78 -6.99023 -97.9902h-601.01c23.0195 -116 91.0195 -190 202.02 -190c76 0 141.99 46.9902 181.01 106.99l183.99 -156c-78 -107.99 -216 -188.99 -381.99 -188.99c-138.02 0 -255.01 54.9902 -337.01 148.99h-5.01953
c-79 -94 -192 -148.99 -320.99 -148.99c-272.02 0 -455.01 214.98 -455.01 516c0 302 199.99 518 465 518c123 0 232 -54 310.01 -147h6c81 92 194.99 147 331.99 147c249 0 428 -215 428 -508.01zM1169.99 780.99c-91 0 -151.971 -60.9902 -173.99 -171.99h345
c-22 106 -81 171.99 -171.01 171.99zM519.01 222.99c108.02 0 196.01 114 196.01 276c0 164 -79.0098 276.99 -189.01 276.99c-104 0 -192 -117 -192 -276.99c0 -158 74 -276 185 -276z" />
    <glyph glyph-name="p" unicode="p" horiz-adv-x="1264" 
d="M710.98 1017c268 0 471.01 -216.021 471.01 -520.021c0 -309 -202 -513.98 -478.99 -513.98c-126.02 0 -226.01 45.9902 -295.029 128.98h-4v-516.97h-268v1404.99h268v-115.02h4c74.0195 87 180.01 132.02 303.01 132.02zM653.99 222.97c151 0 255.99 111 255.99 273
c0 171 -112.99 280 -255.99 280c-153.99 0 -260.99 -120 -260.99 -280c0 -164 113.99 -273 260.99 -273z" />
    <glyph glyph-name="thorn" unicode="&#xfe;" horiz-adv-x="1264" 
d="M710.98 1017c268 0 471.01 -216.02 471.01 -520.02c0 -309 -202 -513.98 -478.99 -513.98c-126.02 0 -226.01 45.9902 -295.029 128.98h-4v-516.97h-268v1912.97h268v-623h4c74.0195 87 180.01 132.02 303.01 132.02zM653.99 222.971c151 0 255.99 111 255.99 273
c0 171 -112.99 280 -255.99 280c-153.99 0 -260.99 -120 -260.99 -280c0 -164 113.99 -273 260.99 -273z" />
    <glyph glyph-name="q" unicode="q" horiz-adv-x="1258" 
d="M860 1000l268 0.0195312v-1404.99h-267v518.98h-4.00977c-70 -84.0098 -170 -130.99 -297 -130.99c-276.99 0 -478.99 204.98 -478.99 513.98c0 304 203 520 471 520c122.98 0 228.98 -45.0195 303 -132.02h5v115.02zM609 223.01c147 0 261.01 109 261.01 273
c0 160 -107.01 280 -260 280c-144.02 0 -257.01 -109 -257.01 -280c0 -162 106 -273 256 -273z" />
    <glyph glyph-name="r" unicode="r" horiz-adv-x="768" 
d="M709 1017c7.99023 0 15.0098 0 21.0098 -1v-294.01c-26.9902 2 -55.9902 3 -71.0098 3c-164.99 0 -255 -112 -255 -261v-463.99h-268v1000h268v-147h3c75.9805 106 184 164 302 164z" />
    <glyph glyph-name="racute" unicode="&#x155;" horiz-adv-x="768" 
d="M755 1440.99l-254.02 -301.99h-258.99l232 300.99zM406.99 853c75.9805 106 184.02 164 302.02 164c7.99023 0 14.9902 0 20.9902 -1v-294.01c-26.9902 2 -55.9902 3 -71.0098 3c-164.99 0 -255 -112 -255 -261v-463.99h-268v1000h268v-147h3z" />
    <glyph glyph-name="rcaron" unicode="&#x159;" horiz-adv-x="768" 
d="M576 1134.98h-237.02l-232 306.01h246l101.99 -154h6l103.02 154h245.99zM407 852.99c75.9805 106 184.02 164 302.02 164c7.99023 0 14.9902 0 20.9902 -1v-294.01c-26.9902 2 -55.9902 3 -71.0098 3c-164.99 0 -255 -112 -255 -261v-463.99h-268v1000h268v-147h3z" />
    <glyph glyph-name="rcommaaccent" unicode="&#x157;" horiz-adv-x="768" 
d="M709 1017c7.99023 0 15.0098 0 21.0098 -1v-294.01c-26.9902 2 -55.9902 3 -71.0098 3c-164.99 0 -255 -112 -255 -261v-463.99h-268v1000h268v-147h3c75.9805 106 184 164 302 164zM153.01 -107.99l231.02 0.00976562c6.98047 -30 8.98047 -55.0098 8.98047 -92.0098
c0 -169 -119.01 -257.99 -284 -250.99l-56 151c81 23.9902 112 53.9902 112 113.99c0 28 -4 45 -12 78z" />
    <glyph glyph-name="s" unicode="s" horiz-adv-x="917" 
d="M459 -17l-0.0683594 0.00976562c-160 0 -296 50.9902 -404.99 146.98l130 185c82 -76.9902 168 -117.01 277 -117.01c78.0098 0 123.01 34.0195 123.01 83.0098c0 46 -52 69 -182 111c-164.99 54 -307.99 131.99 -307.99 324.99c0 181 156.02 300.01 360.01 300.01
c139.02 0 252.01 -38.0195 366.02 -126.02l-130 -196c-77 73.0195 -165 106.01 -238.99 106.01c-44 0 -98 -23 -98 -75c0 -42 52 -71 150 -108c217 -80 344 -127 344 -324c0 -177 -126 -310.98 -388 -310.98z" />
    <glyph glyph-name="sacute" unicode="&#x15b;" horiz-adv-x="917" 
d="M298.98 1139l232 301l281.01 1l-254 -302h-259.01zM458.99 -16.9805l-0.0683594 0.00976562c-160 0 -296 50.9902 -404.99 146.98l130 185c82 -76.9902 168 -117.01 277 -117.01c78.0098 0 123.01 34.0195 123.01 83.0098c0 46 -52 69 -182 111
c-164.99 54 -307.99 131.99 -307.99 324.99c0 181 156.02 300.01 360.01 300.01c139.02 0 252.01 -38.0195 366.02 -126.02l-130 -196c-77 73.0195 -165 106.01 -238.99 106.01c-44 0 -98 -23 -98 -75c0 -42 52 -71 150 -108c217 -80 344 -127 344 -324
c0 -177 -126 -310.98 -388 -310.98z" />
    <glyph glyph-name="scaron" unicode="&#x161;" horiz-adv-x="917" 
d="M585.99 1134.98h-236.99l-232.02 306.01h246l102.01 -154h6l103 154h246zM502.99 617.98l-0.0683594 0.00976562c217 -80 344 -127 344 -324c0 -177 -126 -310.98 -388 -310.98c-160 0 -296 50.9902 -404.99 146.98l130 185c82 -76.9902 168 -117.01 277 -117.01
c78.0098 0 123.01 34.0195 123.01 83.0098c0 46 -52 69 -182 111c-164.99 54 -307.99 131.99 -307.99 324.99c0 181 156.02 300.01 360.01 300.01c139.02 0 252.01 -38.0195 366.02 -126.02l-130 -196c-77 73.0195 -165 106.01 -238.99 106.01c-44 0 -98 -23 -98 -75
c0 -42 52 -71 150 -108z" />
    <glyph glyph-name="scedilla" unicode="&#x15f;" horiz-adv-x="917" 
d="M478.99 -17l-23.0586 -43.9414l2 -3c121 -5 187.99 -62 187.99 -165.02c0 -93 -73 -162 -250.99 -162c-59 0 -94 6 -125 12v120.01c26.0098 -9.00977 56 -14.0098 105 -14.0098c46 0 98 14.9902 98 57.9902c0 37 -59 66 -168 66v76l33 65.9902
c-109 19.9805 -204 65.9805 -284 136.98l130 185c82 -76.9902 168 -117.01 277 -117.01c78.0098 0 123.01 34.0195 123.01 83.0098c0 46 -52 69 -182 111c-164.99 54 -307.99 131.99 -307.99 324.99c0 181 156.02 300.01 360.01 300.01
c139.02 0 252.01 -38.0195 366.02 -126.02l-130 -196c-77 73.0195 -165 106.01 -238.99 106.01c-44 0 -98 -23 -98 -75c0 -42 52 -71 150 -108c217 -80 344 -127 344 -324c0 -172 -120 -303.99 -368 -310.99z" />
    <glyph glyph-name="scircumflex" unicode="&#x15d;" horiz-adv-x="917" 
d="M463.99 1288.99l-102.029 -154h-245l227 306.01h237.02l239 -306.01h-247l-102.99 154h-6zM502.961 617.99l-0.0683594 0.00976562c217 -80 344 -127 344 -324c0 -177 -126 -310.98 -388 -310.98c-160 0 -296 50.9902 -404.99 146.98l130 185
c82 -76.9902 168 -117.01 277 -117.01c78.0098 0 123.01 34.0195 123.01 83.0098c0 46 -52 69 -182 111c-164.99 54 -307.99 131.99 -307.99 324.99c0 181 156.02 300.01 360.01 300.01c139.02 0 252.01 -38.0195 366.02 -126.02l-130 -196
c-77 73.0195 -165 106.01 -238.99 106.01c-44 0 -98 -23 -98 -75c0 -42 52 -71 150 -108z" />
    <glyph glyph-name="scommaaccent" unicode="&#x219;" horiz-adv-x="917" 
d="M459 -17l-0.0683594 0.00976562c-160 0 -296 50.9902 -404.99 146.98l130 185c82 -76.9902 168 -117.01 277 -117.01c78.0098 0 123.01 34.0195 123.01 83.0098c0 46 -52 69 -182 111c-164.99 54 -307.99 131.99 -307.99 324.99c0 181 156.02 300.01 360.01 300.01
c139.02 0 252.01 -38.0195 366.02 -126.02l-130 -196c-77 73.0195 -165 106.01 -238.99 106.01c-44 0 -98 -23 -98 -75c0 -42 52 -71 150 -108c217 -80 344 -127 344 -324c0 -177 -126 -310.98 -388 -310.98zM297.912 -450.99l-55.9805 151.01
c81 23.9902 112 53.9902 112 113.99c0 28 -4.01953 45 -12.0098 78h230.99c7 -30 8.99023 -55.0098 8.99023 -92.0098c0 -169 -118.99 -257.99 -283.99 -250.99z" />
    <glyph glyph-name="germandbls" unicode="&#xdf;" horiz-adv-x="1306" 
d="M994 863.99c152.99 -75 243.99 -230.971 243.99 -409.99c0 -289 -183 -470.98 -460 -470.98h-197v237.99h132c145 0 251 103 251 243c0 138 -103 254 -274 254h-82v216h69c174 1 210 121 210 186c0 87 -72 169 -219.99 169c-161 0 -262 -74 -262 -284v-1004.99h-268
v992.99c0 360 193 531.99 523 531.99c326 0 490 -175 490 -378.99c0 -90.0098 -35 -206.01 -156 -279.029v-2.99023z" />
    <glyph glyph-name="longs" unicode="&#x17f;" horiz-adv-x="705" 
d="M172.99 0l-0.00976562 777.99h-106v222h106v171.99c0 233 116 353 314 353c121 0 214 -41.9902 259 -71.9902l-53.9902 -210c-57.0195 28 -112.01 44 -150.01 44c-63 0 -100.99 -36.9902 -100.99 -134.99v-1152h-268z" />
    <glyph glyph-name="uni0259" unicode="&#x259;" horiz-adv-x="1146" 
d="M534 1017c298 0 532 -195.01 532 -519.01c0 -304 -210.99 -514.98 -495.99 -514.98c-294.01 0 -491.01 212.99 -491.01 506.98c0 32 2.99023 82 7.00977 98h706.99c-31.9902 130 -135.01 196 -272 196c-74 0 -162 -18 -252.01 -61l-106 200
c107.01 55.9902 235.01 94.0098 371.01 94.0098zM561.01 218.99c115 0 200 59.0098 230.99 173h-444.99c22 -111 105 -173 214 -173z" />
    <glyph glyph-name="t" unicode="t" horiz-adv-x="764" 
d="M447 -17c-172.02 0 -286.029 108 -286.029 333v462h-118v222h118v326.98l268 29v-355.99h272v-222h-272v-425c0 -86 24.9902 -128 88.0098 -128c30.9902 0 81.0098 12 126.01 35l69 -214c-64 -35 -130 -62.9902 -264.99 -62.9902z" />
    <glyph glyph-name="tbar" unicode="&#x167;" horiz-adv-x="764" 
d="M642.99 259.99l68.9805 -213.99c-64 -35 -130 -62.9902 -264.99 -62.9902c-172.02 0 -286.01 107.99 -286.01 332.99v136h-102.01v170h102.01v156h-118v222h118v326.98l268 29v-355.99h272v-222h-272v-156h222v-170h-222v-99c0 -86 24.9902 -128 88.0098 -128
c30.9902 0 81.0098 12 126.01 35z" />
    <glyph glyph-name="tcaron" unicode="&#x165;" horiz-adv-x="764" 
d="M521.99 1187.98l63.9902 423.02h256l-131 -423.02h-188.99zM446.98 -16.9902c-172.02 0 -286.029 108 -286.029 333v462h-118v222h118v326.98l268 29v-355.99h272v-222h-272v-425c0 -86 24.9902 -128 88.0098 -128c30.9902 0 81.0098 12 126.01 35l69 -214
c-64 -35 -130 -62.9902 -264.99 -62.9902z" />
    <glyph glyph-name="uni0163" unicode="&#x163;" horiz-adv-x="764" 
d="M431.98 -64l-0.0195312 0.0576172c121 -5 188.01 -62 188.01 -165.02c0 -93 -73.0195 -162 -251.01 -162c-59 0 -94 6 -124.99 12v120.01c25.9902 -9.00977 55.9902 -14.0098 104.99 -14.0098c46 0 98 14.9902 98 57.9902c0 37 -59 66 -168 66v76l40 80.9805
c-98 44 -158 144.99 -158 307.99v462h-118v222h118v326.98l268 29v-355.99h272v-222h-272v-425c0 -86 24.9902 -128 88.0098 -128c30.9902 0 81.0098 12 126.01 35l69 -214c-63 -34.0195 -128 -61.9893 -258.99 -62.9893l-23 -44z" />
    <glyph glyph-name="uni021B" unicode="&#x21b;" horiz-adv-x="764" 
d="M447 -17c-172.02 0 -286.029 108 -286.029 333v462h-118v222h118v326.98l268 29v-355.99h272v-222h-272v-425c0 -86 24.9902 -128 88.0098 -128c30.9902 0 81.0098 12 126.01 35l69 -214c-64 -35 -130 -62.9902 -264.99 -62.9902zM271.98 -450.99l-55.9902 151.01
c81 23.9902 112 53.9902 112 113.99c0 28 -4 45 -12 78h230.99c7 -30 9 -55.0098 9 -92.0098c0 -169 -119.01 -257.99 -284 -250.99z" />
    <glyph glyph-name="u" unicode="u" horiz-adv-x="1182" 
d="M786.98 1000l268 0.00976562v-1000h-268v122h-3.99023c-78.0098 -92.0195 -184 -139 -297 -139c-216 0 -368 109.99 -368 414.98v602.01h268v-532.01c0 -183.99 54 -243.99 178.99 -243.99c117 0 222 97 222 291v485z" />
    <glyph glyph-name="uacute" unicode="&#xfa;" horiz-adv-x="1182" 
d="M965 1440.99l-254.01 -301.99h-258.99l232 300.99zM786.99 1000l268 0.00976562v-1000h-268v122h-3.99023c-78.0098 -92.0195 -184 -139 -297 -139c-216 0 -368 109.99 -368 414.98v602.01h268v-532.01c0 -183.99 54 -243.99 178.99 -243.99c117 0 222 97 222 291v485z
" />
    <glyph glyph-name="ubreve" unicode="&#x16d;" horiz-adv-x="1182" 
d="M589.99 1128c-171 0 -319.02 109 -334.01 308h201.99c5 -72.0098 52 -129.01 132 -129.01c73.0098 0 127 48.9902 131.02 129.01h203c-14.0098 -176 -139 -308 -334 -308zM786.961 1000l268 0.00976562v-1000h-268v122h-3.99023c-78.0098 -92.0195 -184 -139 -297 -139
c-216 0 -368 109.99 -368 414.98v602.01h268v-532.01c0 -183.99 54 -243.99 178.99 -243.99c117 0 222 97 222 291v485z" />
    <glyph glyph-name="ucircumflex" unicode="&#xfb;" horiz-adv-x="1182" 
d="M584.99 1288.99l-102.02 -154h-244.98l227 306.01h237l239 -306.01h-247l-103 154h-6zM786.971 1000l268 0.00976562v-1000h-268v122h-3.99023c-78.0098 -92.0195 -184 -139 -297 -139c-216 0 -368 109.99 -368 414.98v602.01h268v-532.01
c0 -183.99 54 -243.99 178.99 -243.99c117 0 222 97 222 291v485z" />
    <glyph glyph-name="udieresis" unicode="&#xfc;" horiz-adv-x="1182" 
d="M373.99 1140.98c-93 0 -167 73.0098 -167 164.01c0 89 74 163 167 163c90 0 166 -74 166 -163c0 -91 -76 -164.01 -166 -164.01zM802.98 1142.98c-90.9902 0 -164.99 73.0195 -164.99 162.01c0 87 74 162 164.99 162c89.0098 0 164.01 -75 164.01 -162
c0 -88.9902 -75 -162.01 -164.01 -162.01zM786.98 999.99l268 0.00976562v-1000h-268v122h-3.99023c-78.0098 -92.0195 -184 -139 -297 -139c-216 0 -368 109.99 -368 414.98v602.01h268v-532.01c0 -183.99 54 -243.99 178.99 -243.99c117 0 222 97 222 291v485z" />
    <glyph glyph-name="uni1EE5" unicode="&#x1ee5;" horiz-adv-x="1182" 
d="M786.98 1000l268 0.00976562v-1000h-268v122h-3.99023c-78.0098 -92.0195 -184 -139 -297 -139c-216 0 -368 109.99 -368 414.98v602.01h268v-532.01c0 -183.99 54 -243.99 178.99 -243.99c117 0 222 97 222 291v485zM600.98 -183.98
c92 0 166.02 -73.0098 166.02 -164.01c0 -89 -74.0195 -163 -166.02 -163c-91 0 -166 74 -166 163c0 91 75 164.01 166 164.01z" />
    <glyph glyph-name="ugrave" unicode="&#xf9;" horiz-adv-x="1182" 
d="M763.99 1139l-259 -0.00976562l-253 302l281 -1zM786.971 999.99l268 0.00976562v-1000h-268v122h-3.99023c-78.0098 -92.0195 -184 -139 -297 -139c-216 0 -368 109.99 -368 414.98v602.01h268v-532.01c0 -183.99 54 -243.99 178.99 -243.99c117 0 222 97 222 291v485z
" />
    <glyph glyph-name="uni1EE7" unicode="&#x1ee7;" horiz-adv-x="1182" 
d="M590.99 1350.98c-50 0 -104 -27.9902 -138 -60.9902l-93 88.9902c53 53 152 97 250.98 97c137.02 0 211.02 -69 211.02 -162c0 -85.0195 -68 -142.02 -185 -165.02l-14.9902 -49.9902l-103.02 -3c-20.9902 20.0098 -37.9902 38.0098 -37.9902 62
c0 63.0195 168 86.0195 168 154.01c0 31.0098 -27 39 -58 39zM786.98 1000l268 0.00976562v-1000h-268v122h-3.99023c-78.0098 -92.0195 -184 -139 -297 -139c-216 0 -368 109.99 -368 414.98v602.01h268v-532.01c0 -183.99 54 -243.99 178.99 -243.99c117 0 222 97 222 291
v485z" />
    <glyph glyph-name="uhorn" unicode="&#x1b0;" horiz-adv-x="1438" 
d="M1167.99 1158.98l251.02 -0.00976562v-151c0 -239 -133.02 -375.99 -364.02 -381.99v-625.99h-268v122h-3.99023c-78.0098 -92.0195 -184 -139 -297 -139c-216 0 -368 109.99 -368 414.98v602.01h268v-532.01c0 -183.99 54 -243.99 178.99 -243.99c117 0 222 97 222 291
v485h268v-223c110 26.9902 113 117 113 237v145z" />
    <glyph glyph-name="uni1EE9" unicode="&#x1ee9;" horiz-adv-x="1438" 
d="M965 1440.99l-254.01 -301.99h-258.99l232 300.99zM1168 1158.99l251.02 -0.00976562v-151c0 -239 -133.02 -375.99 -364.02 -381.99v-625.99h-268v122h-3.99023c-78.0098 -92.0195 -184 -139 -297 -139c-216 0 -368 109.99 -368 414.98v602.01h268v-532.01
c0 -183.99 54 -243.99 178.99 -243.99c117 0 222 97 222 291v485h268v-223c110 26.9902 113 117 113 237v145z" />
    <glyph glyph-name="uni1EF1" unicode="&#x1ef1;" horiz-adv-x="1438" 
d="M1167.99 1158.98l251.02 -0.00976562v-151c0 -239 -133.02 -375.99 -364.02 -381.99v-625.99h-268v122h-3.99023c-78.0098 -92.0195 -184 -139 -297 -139c-216 0 -368 109.99 -368 414.98v602.01h268v-532.01c0 -183.99 54 -243.99 178.99 -243.99c117 0 222 97 222 291
v485h268v-223c110 26.9902 113 117 113 237v145zM601 -183.999c92 0 166.02 -73.0098 166.02 -164.01c0 -89 -74.0195 -163 -166.02 -163c-91 0 -166 74 -166 163c0 91 75 164.01 166 164.01z" />
    <glyph glyph-name="uni1EEB" unicode="&#x1eeb;" horiz-adv-x="1438" 
d="M763.99 1139l-259 -0.00976562l-253 302l281 -1zM1167.99 1158.98l251.02 -0.00976562v-151c0 -239 -133.02 -375.99 -364.02 -381.99v-625.99h-268v122h-3.99023c-78.0098 -92.0195 -184 -139 -297 -139c-216 0 -368 109.99 -368 414.98v602.01h268v-532.01
c0 -183.99 54 -243.99 178.99 -243.99c117 0 222 97 222 291v485h268v-223c110 26.9902 113 117 113 237v145z" />
    <glyph glyph-name="uni1EED" unicode="&#x1eed;" horiz-adv-x="1438" 
d="M590.99 1350.98c-50 0 -104 -27.9902 -138 -60.9902l-93 88.9902c53 53 152 97 250.98 97c137.02 0 211.02 -69 211.02 -162c0 -85.0195 -68 -142.02 -185 -165.02l-14.9902 -49.9902l-103.02 -3c-20.9902 20.0098 -37.9902 38.0098 -37.9902 62
c0 63.0195 168 86.0195 168 154.01c0 31.0098 -27 39 -58 39zM1167.99 1158.99l251.02 -0.00976562v-151c0 -239 -133.02 -375.99 -364.02 -381.99v-625.99h-268v122h-3.99023c-78.0098 -92.0195 -184 -139 -297 -139c-216 0 -368 109.99 -368 414.98v602.01h268v-532.01
c0 -183.99 54 -243.99 178.99 -243.99c117 0 222 97 222 291v485h268v-223c110 26.9902 113 117 113 237v145z" />
    <glyph glyph-name="uni1EEF" unicode="&#x1eef;" horiz-adv-x="1438" 
d="M467.99 1234.98c-51 0 -88.9707 -39.9805 -114.961 -101.98l-160 69c42 136.99 126.01 237.99 246 237.99c84.0098 0 132 -30 176 -55.9902c36.9902 -23 69.9902 -45.0195 110.99 -45.0195c48.9902 0 89.9902 39.0195 116 100.01l157 -52
c-41 -152 -126.01 -256 -240.01 -256c-75 0 -131 31 -179 61c-39 23 -73.0195 42.9902 -112.02 42.9902zM1168.02 1159l251.02 -0.00976562v-151c0 -239 -133.02 -375.99 -364.02 -381.99v-625.99h-268v122h-3.99023c-78.0098 -92.0195 -184 -139 -297 -139
c-216 0 -368 109.99 -368 414.98v602.01h268v-532.01c0 -183.99 54 -243.99 178.99 -243.99c117 0 222 97 222 291v485h268v-223c110 26.9902 113 117 113 237v145z" />
    <glyph glyph-name="uhungarumlaut" unicode="&#x171;" horiz-adv-x="1183" 
d="M740.99 1440.99l-253 -301.99h-247l231 300.99zM904.99 1139l-246.01 0.00976562l230.02 300.99l269.98 1zM786.98 515.01v485.01h268v-1000h-268v122h-3.99023c-78.0098 -92.0195 -184 -139 -297 -139c-216 0 -368 109.99 -368 414.98v602.01h268v-532.01
c0 -183.99 54 -243.99 178.99 -243.99c117 0 222 97 222 291z" />
    <glyph glyph-name="umacron" unicode="&#x16b;" horiz-adv-x="1182" 
d="M901.98 1408v-214.02h-622.99v214.02h622.99zM786.98 999.99l268 0.00976562v-1000h-268v122h-3.99023c-78.0098 -92.0195 -184 -139 -297 -139c-216 0 -368 109.99 -368 414.98v602.01h268v-532.01c0 -183.99 54 -243.99 178.99 -243.99c117 0 222 97 222 291v485z" />
    <glyph glyph-name="uogonek" unicode="&#x173;" horiz-adv-x="1182" 
d="M1029 0c-104 -18 -167.02 -85.9902 -167.02 -147.99c0 -51 30 -82.9902 84 -82.9902c51 0 60.0098 6 81.0098 13.9902l13 -145c-40 -18 -95 -24.9902 -149 -24.9902c-144 0 -232 75.9902 -232 186.99c0 65 42 146 128 203v119h-3.99023
c-78.0098 -92.0195 -184 -139 -297 -139c-216 0 -368 109.99 -368 414.98v602.01h268v-532.01c0 -183.99 54 -243.99 178.99 -243.99c117 0 222 97 222 291v485h268v-1000h-25.9902z" />
    <glyph glyph-name="uring" unicode="&#x16f;" horiz-adv-x="1182" 
d="M588.98 1091.99c-119.99 0 -219.99 90.0098 -219.99 214.01c0 117 91 213.99 220 213.99c123 0 222 -89.9902 222 -214c0 -117 -89.9902 -214 -222.01 -214zM588.98 1385c-42.9902 0 -76.9902 -35.9902 -76.9902 -76.9902c0 -43 34 -76 76.9902 -76c43 0 77 34 77 77
c0 40.9902 -34 75.9902 -77 75.9902zM786.98 1000.01l268 0.00976562v-1000h-268v122h-3.99023c-78.0098 -92.0195 -184 -139 -297 -139c-216 0 -368 109.99 -368 414.98v602.01h268v-532.01c0 -183.99 54 -243.99 178.99 -243.99c117 0 222 97 222 291v485z" />
    <glyph glyph-name="utilde" unicode="&#x169;" horiz-adv-x="1182" 
d="M466.98 1234.98c-51 0 -88.9805 -39.9805 -114.99 -101.98l-159.99 69c41.9805 136.99 125.99 237.99 245.99 237.99c84 0 132 -30 176 -55.9902c37 -23 70 -45.0195 111 -45.0195c48.9902 0 89.9902 39.0195 116 100.01l157 -52c-41 -152 -125.99 -256 -240 -256
c-75 0 -130.99 31 -178.99 61c-39 23 -73 42.9902 -112.02 42.9902zM786.99 1000.01l268 0.00976562v-1000h-268v122h-3.99023c-78.0098 -92.0195 -184 -139 -297 -139c-216 0 -368 109.99 -368 414.98v602.01h268v-532.01c0 -183.99 54 -243.99 178.99 -243.99
c117 0 222 97 222 291v485z" />
    <glyph glyph-name="v" unicode="v" horiz-adv-x="1106" 
d="M785.98 1000h286.01l-392.99 -1000h-250l-394.02 1000h283.02l234.99 -672.01h3z" />
    <glyph glyph-name="w" unicode="w" horiz-adv-x="1581" 
d="M1271.99 1000h269.029l-341.02 -1000h-230.99l-178 616.98h-3l-176 -616.98h-229.99l-341.01 1000h269l194 -608.01h2.99023l175 608.01h216l177 -608.01h2.99023z" />
    <glyph glyph-name="wacute" unicode="&#x1e83;" horiz-adv-x="1581" 
d="M1180 1440.99l-254.01 -301.99h-258.99l232 300.99zM1272 1000h269.029l-341.02 -1000h-230.99l-178 616.98h-3l-176 -616.98h-229.99l-341.01 1000h269l194 -608.01h2.99023l175 608.01h216l177 -608.01h2.99023z" />
    <glyph glyph-name="wcircumflex" unicode="&#x175;" horiz-adv-x="1581" 
d="M785 1288.99l-102.01 -154h-245l227 306.01h237l239 -306.01h-246.99l-103 154h-6zM1271.99 1000h269.029l-341.02 -1000h-230.99l-178 616.98h-3l-176 -616.98h-229.99l-341.01 1000h269l194 -608.01h2.99023l175 608.01h216l177 -608.01h2.99023z" />
    <glyph glyph-name="wdieresis" unicode="&#x1e85;" horiz-adv-x="1581" 
d="M573.99 1140.98c-93 0 -167 73.0098 -167 164.01c0 89 74 163 167 163c89.9902 0 165.99 -74 165.99 -163c0 -91 -76 -164.01 -165.99 -164.01zM1002.99 1142.98c-91 0 -165.01 73.0195 -165.01 162.01c0 87 74.0098 162 165.01 162c89 0 164 -75 164 -162
c0 -88.9902 -75 -162.01 -164 -162.01zM1271.99 999.99h269.029l-341.02 -1000h-230.99l-178 616.98h-3l-176 -616.98h-229.99l-341.01 1000h269l194 -608.01h2.99023l175 608.01h216l177 -608.01h2.99023z" />
    <glyph glyph-name="wgrave" unicode="&#x1e81;" horiz-adv-x="1581" 
d="M919 1139l-259.01 -0.00976562l-252.99 302l280.98 -1zM1271.99 999.99h269.029l-341.02 -1000h-230.99l-178 616.98h-3l-176 -616.98h-229.99l-341.01 1000h269l194 -608.01h2.99023l175 608.01h216l177 -608.01h2.99023z" />
    <glyph glyph-name="x" unicode="x" horiz-adv-x="1082" 
d="M744.98 0l-201.99 286.98h-5l-203 -286.98h-291l344 511l-341.01 489h305l185 -286h5l187 286h303l-340.99 -488l346.99 -512h-293z" />
    <glyph glyph-name="y" unicode="y" horiz-adv-x="1104" 
d="M791 1000l278.01 0.00976562l-539.01 -1404.99h-273.98l177.99 466.98l-400 938h280l244.99 -619.01h3z" />
    <glyph glyph-name="yacute" unicode="&#xfd;" horiz-adv-x="1104" 
d="M905.99 1440.99l-254.01 -301.99h-258.99l232 300.99zM791 1000l278.01 0.00976562l-539.01 -1404.99h-273.98l177.99 466.98l-400 938h280l244.99 -619.01h3z" />
    <glyph glyph-name="ycircumflex" unicode="&#x177;" horiz-adv-x="1104" 
d="M549.99 1288.99l-102.01 -154h-245l227 306.01h237l239 -306.01h-247l-102.99 154h-6zM790.98 1000l278.01 0.00976562l-539.01 -1404.99h-273.98l177.99 466.98l-400 938h280l244.99 -619.01h3z" />
    <glyph glyph-name="ydieresis" unicode="&#xff;" horiz-adv-x="1104" 
d="M338.98 1140.98c-93 0 -167 73.0098 -167 164.01c0 89 74 163 167 163c90.0098 0 166.01 -74 166.01 -163c0 -91 -76 -164.01 -166.01 -164.01zM768 1142.98c-91.0195 0 -165.02 73.0195 -165.02 162.01c0 87 74 162 165.02 162c88.9902 0 163.99 -75 163.99 -162
c0 -88.9902 -75 -162.01 -163.99 -162.01zM791 999.99l278.01 0.00976562l-539.01 -1404.99h-273.98l177.99 466.98l-400 938h280l244.99 -619.01h3z" />
    <glyph glyph-name="uni1EF5" unicode="&#x1ef5;" horiz-adv-x="1104" 
d="M791 1000l278.01 0.00976562l-539.01 -1404.99h-273.98l177.99 466.98l-400 938h280l244.99 -619.01h3zM846.01 -183.98c92 0 166.02 -73.0098 166.02 -164.01c0 -89 -74.0195 -163 -166.02 -163c-90.9902 0 -165.99 74 -165.99 163c0 91 75 164.01 165.99 164.01z" />
    <glyph glyph-name="ygrave" unicode="&#x1ef3;" horiz-adv-x="1104" 
d="M719.99 1135.98l-259 0.00976562l-252.99 302l280.99 -0.990234zM791.01 1000l278.01 0.00976562l-539.01 -1404.99h-273.98l177.99 466.98l-400 938h280l244.99 -619.01h3z" />
    <glyph glyph-name="uni1EF7" unicode="&#x1ef7;" horiz-adv-x="1104" 
d="M555.99 1350.98c-50 0 -103.99 -27.9902 -137.99 -60.9902l-93 88.9902c53 53 152 97 251 97c136.99 0 210.98 -69 210.98 -162c0 -85.0195 -67.9902 -142.02 -184.99 -165.02l-14.9902 -49.9902l-103.02 -3c-20.9902 20.0098 -37.9902 38.0098 -37.9902 62
c0 63.0195 168 86.0195 168 154.01c0 31.0098 -27 39 -58 39zM791 1000l278.01 0.00976562l-539.01 -1404.99h-273.98l177.99 466.98l-400 938h280l244.99 -619.01h3z" />
    <glyph glyph-name="uni0233" unicode="&#x233;" horiz-adv-x="1104" 
d="M867.98 1408v-214.02h-623v214.02h623zM790.99 999.99l278.01 0.00976562l-539.01 -1404.99h-273.98l177.99 466.98l-400 938h280l244.99 -619.01h3z" />
    <glyph glyph-name="uni1EF9" unicode="&#x1ef9;" horiz-adv-x="1104" 
d="M432.99 1234.98c-51 0 -88.9707 -39.9805 -114.961 -101.98l-160 69c42 136.99 126.01 237.99 246 237.99c84.0098 0 132 -30 176 -55.9902c36.9902 -23 69.9902 -45.0195 110.99 -45.0195c48.9902 0 89.9902 39.0195 116 100.01l157 -52
c-41 -152 -126.01 -256 -240.01 -256c-75 0 -131 31 -179 61c-39 23 -73.0195 42.9902 -112.02 42.9902zM791.029 1000.01l278.01 0.00976562l-539.01 -1404.99h-273.98l177.99 466.98l-400 938h280l244.99 -619.01h3z" />
    <glyph glyph-name="z" unicode="z" horiz-adv-x="996" 
d="M918 820l-488.01 -594v-6h477v-220h-832v182.99l482 595v2.99023h-446.01v219.02h807.02v-180z" />
    <glyph glyph-name="zacute" unicode="&#x17a;" horiz-adv-x="996" 
d="M797.98 1440.99l-253.99 -301.99h-258.99l232 300.99zM918 820l-488.01 -594v-6h477v-220h-832v182.99l482 595v2.99023h-446.01v219.02h807.02v-180z" />
    <glyph glyph-name="zcaron" unicode="&#x17e;" horiz-adv-x="996" 
d="M618.99 1134.98h-237l-232 306.01h245.99l102.01 -154h6l103 154h246zM917.99 820l-488.01 -594v-6h477v-220h-832v182.99l482 595v2.99023h-446.01v219.02h807.02v-180z" />
    <glyph glyph-name="zdotaccent" unicode="&#x17c;" horiz-adv-x="996" 
d="M501.99 1140.98c-92 0 -166 73.0098 -166 164.01c0 89 74 163 166 163c91.0098 0 166.01 -74 166.01 -163c0 -91 -75 -164.01 -166.01 -164.01zM918 820l-488.01 -594v-6h477v-220h-832v182.99l482 595v2.99023h-446.01v219.02h807.02v-180z" />
    <glyph glyph-name="a.alt" horiz-adv-x="1058" 
d="M540 1017c250 0 408.99 -121.02 408.99 -424.02v-593h-248l-9.99023 87h-5c-68.0195 -56 -165.01 -103.98 -279.01 -103.98c-224 0 -333 133.98 -333 315.98c0 202 128 324 401 325h208c-7 114.02 -66 165.02 -171.99 165.02c-88 0 -192 -27 -277.02 -71l-89.9902 205
c65 35 216.99 94 396.01 94zM472.99 201.98c135 0 211.01 81.9902 211.01 125.98v108.01l-180 -1c-105 0 -167 -37 -167 -120c0 -64.9902 47 -112.99 135.99 -112.99z" />
    <glyph glyph-name="aacute.alt" horiz-adv-x="1058" 
d="M901 1440.99l-254.01 -301.99h-258.99l232 300.99zM540 1017c250 0 408.99 -121.02 408.99 -424.02v-593h-248l-9.99023 87h-5c-68.0195 -56 -165.01 -103.98 -279.01 -103.98c-224 0 -333 133.98 -333 315.98c0 202 128 324 401 325h208
c-7 114.02 -66 165.02 -171.99 165.02c-88 0 -192 -27 -277.02 -71l-89.9902 205c65 35 216.99 94 396.01 94zM472.99 201.98c135 0 211.01 81.9902 211.01 125.98v108.01l-180 -1c-105 0 -167 -37 -167 -120c0 -64.9902 47 -112.99 135.99 -112.99z" />
    <glyph glyph-name="abreve.alt" horiz-adv-x="1058" 
d="M542.99 1128c-170.99 0 -319.039 109 -334.029 308h202c5 -72.0098 52 -129.01 132 -129.01c73.0098 0 127 48.9902 131.02 129.01h203c-14 -176 -138.99 -308 -333.99 -308zM539.951 1017c250 0 408.99 -121.02 408.99 -424.02v-593h-248l-9.99023 87h-5
c-68.0195 -56 -165.01 -103.98 -279.01 -103.98c-224 0 -333 133.98 -333 315.98c0 202 128 324 401 325h208c-7 114.02 -66 165.02 -171.99 165.02c-88 0 -192 -27 -277.02 -71l-89.9902 205c65 35 216.99 94 396.01 94zM472.941 201.98
c135 0 211.01 81.9902 211.01 125.98v108.01l-180 -1c-105 0 -167 -37 -167 -120c0 -64.9902 47 -112.99 135.99 -112.99z" />
    <glyph glyph-name="uni1EAF.alt" horiz-adv-x="1058" 
d="M878 1774l-254.01 -301.99h-258.99l232 300.99zM534 1128.01c-171 0 -319.02 109 -334.029 308h202c5.01953 -72.0098 52.0098 -129.01 132.029 -129.01c72.9902 0 126.99 48.9902 130.99 129.01h203c-13.9902 -176 -139 -308 -333.99 -308zM539.971 1017.01
c250 0 408.99 -121.02 408.99 -424.02v-593h-248l-9.99023 87h-5c-68.0195 -56 -165.01 -103.98 -279.01 -103.98c-224 0 -333 133.98 -333 315.98c0 202 128 324 401 325h208c-7 114.02 -66 165.02 -171.99 165.02c-88 0 -192 -27 -277.02 -71l-89.9902 205
c65 35 216.99 94 396.01 94zM472.961 201.99c135 0 211.01 81.9902 211.01 125.98v108.01l-180 -1c-105 0 -167 -37 -167 -120c0 -64.9902 47 -112.99 135.99 -112.99z" />
    <glyph glyph-name="uni1EB7.alt" horiz-adv-x="1058" 
d="M543.99 1128c-171 0 -319.01 109 -334.02 308h202.02c5 -72.0098 52 -129.01 132 -129.01c73 0 127 48.9902 130.99 129.01h203.02c-14.0098 -176 -139.02 -308 -334.01 -308zM539.98 1017c250 0 408.99 -121.02 408.99 -424.02v-593h-248l-9.99023 87h-5
c-68.0195 -56 -165.01 -103.98 -279.01 -103.98c-224 0 -333 133.98 -333 315.98c0 202 128 324 401 325h208c-7 114.02 -66 165.02 -171.99 165.02c-88 0 -192 -27 -277.02 -71l-89.9902 205c65 35 216.99 94 396.01 94zM472.971 201.98
c135 0 211.01 81.9902 211.01 125.98v108.01l-180 -1c-105 0 -167 -37 -167 -120c0 -64.9902 47 -112.99 135.99 -112.99zM542.98 -184.01c92 0 166.02 -73.0098 166.02 -164.01c0 -89 -74.0195 -163 -166.02 -163c-91 0 -166 74 -166 163c0 91 75 164.01 166 164.01z" />
    <glyph glyph-name="uni1EB1.alt" horiz-adv-x="1058" 
d="M646.98 1472l-259 -0.00976562l-253 302l281 -1zM539.98 1306.99c72.9902 0 126.961 48.9902 130.961 129.01h203c-13.9902 -176 -139 -308 -333.99 -308c-171 0 -318.99 109 -334 308h202c5.01953 -72.0098 52.0098 -129.01 132.029 -129.01zM539.951 1016.99
c250 0 408.99 -121.02 408.99 -424.02v-593h-248l-9.99023 87h-5c-68.0195 -56 -165.01 -103.98 -279.01 -103.98c-224 0 -333 133.98 -333 315.98c0 202 128 324 401 325h208c-7 114.02 -66 165.02 -171.99 165.02c-88 0 -192 -27 -277.02 -71l-89.9902 205
c65 35 216.99 94 396.01 94zM472.941 201.971c135 0 211.01 81.9902 211.01 125.98v108.01l-180 -1c-105 0 -167 -37 -167 -120c0 -64.9902 47 -112.99 135.99 -112.99z" />
    <glyph glyph-name="uni1EB3.alt" horiz-adv-x="1058" 
d="M543.99 1694.99c-49.9902 0 -104 -28 -138 -61l-93 88.9902c53 53 152 97.0195 251 97.0195c136.99 0 210.99 -69 210.99 -162c0 -85.0098 -67.9902 -142.01 -184.99 -165.01l-14.9902 -50.0195l-103.02 -2.99023c-20.9902 20.0098 -37.9902 38 -37.9902 62
c0 63.0195 168 86.0195 168 154.02c0 31 -26.9902 38.9902 -58 38.9902zM542.98 1128c-170.99 0 -319.039 109 -334.029 308h202c5 -72.0098 52 -129.01 132 -129.01c73.0098 0 127 48.9902 131.02 129.01h203c-14 -176 -138.99 -308 -333.99 -308zM539.941 1017
c250 0 408.99 -121.02 408.99 -424.02v-593h-248l-9.99023 87h-5c-68.0195 -56 -165.01 -103.98 -279.01 -103.98c-224 0 -333 133.98 -333 315.98c0 202 128 324 401 325h208c-7 114.02 -66 165.02 -171.99 165.02c-88 0 -192 -27 -277.02 -71l-89.9902 205
c65 35 216.99 94 396.01 94zM472.932 201.98c135 0 211.01 81.9902 211.01 125.98v108.01l-180 -1c-105 0 -167 -37 -167 -120c0 -64.9902 47 -112.99 135.99 -112.99z" />
    <glyph glyph-name="uni1EB5.alt" horiz-adv-x="1058" 
d="M435 1578.99c-36 0 -70.9805 -39.9902 -96.9902 -101.99l-159.99 69c42 136.99 123 238 223.99 238c85.0098 0 122 -30 166 -55.9902c36 -23.0195 70 -45.0195 111 -45.0195c48.9902 0 89.9902 39.0195 114.99 100.01l158 -52c-41 -152 -127 -256 -240.01 -256
c-75 0 -130.99 31 -178.99 61c-39 23 -59.0098 42.9902 -98 42.9902zM543.01 1307c73.0098 0 126.951 48.9902 130.971 129.01h203c-14 -176 -138.99 -308 -333.99 -308c-170.99 0 -318.99 109 -333.98 308h202c5 -72.0098 52 -129.01 132 -129.01zM539.971 1017
c250 0 408.99 -121.02 408.99 -424.02v-593h-248l-9.99023 87h-5c-68.0195 -56 -165.01 -103.98 -279.01 -103.98c-224 0 -333 133.98 -333 315.98c0 202 128 324 401 325h208c-7 114.02 -66 165.02 -171.99 165.02c-88 0 -192 -27 -277.02 -71l-89.9902 205
c65 35 216.99 94 396.01 94zM472.961 201.98c135 0 211.01 81.9902 211.01 125.98v108.01l-180 -1c-105 0 -167 -37 -167 -120c0 -64.9902 47 -112.99 135.99 -112.99z" />
    <glyph glyph-name="acircumflex.alt" horiz-adv-x="1058" 
d="M537.99 1288.99l-102 -154h-245l227 306.01h237l239 -306.01h-247l-103 154h-6zM539.99 1017c250 0 408.99 -121.02 408.99 -424.02v-593h-248l-9.99023 87h-5c-68.0195 -56 -165.01 -103.98 -279.01 -103.98c-224 0 -333 133.98 -333 315.98c0 202 128 324 401 325h208
c-7 114.02 -66 165.02 -171.99 165.02c-88 0 -192 -27 -277.02 -71l-89.9902 205c65 35 216.99 94 396.01 94zM472.98 201.98c135 0 211.01 81.9902 211.01 125.98v108.01l-180 -1c-105 0 -167 -37 -167 -120c0 -64.9902 47 -112.99 135.99 -112.99z" />
    <glyph glyph-name="uni1EA5.alt" horiz-adv-x="1058" 
d="M1018 1628l272.99 1l-305.01 -301.02h-200zM539.99 1289l-102.02 -154h-245l227 306.01h237.02l239 -306.01h-247l-103 154h-6zM539.98 1017.01c250 0 408.99 -121.02 408.99 -424.02v-593h-248l-9.99023 87h-5c-68.0195 -56 -165.01 -103.98 -279.01 -103.98
c-224 0 -333 133.98 -333 315.98c0 202 128 324 401 325h208c-7 114.02 -66 165.02 -171.99 165.02c-88 0 -192 -27 -277.02 -71l-89.9902 205c65 35 216.99 94 396.01 94zM472.971 201.99c135 0 211.01 81.9902 211.01 125.98v108.01l-180 -1c-105 0 -167 -37 -167 -120
c0 -64.9902 47 -112.99 135.99 -112.99z" />
    <glyph glyph-name="uni1EAD.alt" horiz-adv-x="1058" 
d="M538.99 1288.99l-102.02 -154h-244.98l226.98 306.01h237.02l239 -306.01h-247l-103 154h-6zM539.99 1017c250 0 408.99 -121.02 408.99 -424.02v-593h-248l-9.99023 87h-5c-68.0195 -56 -165.01 -103.98 -279.01 -103.98c-224 0 -333 133.98 -333 315.98
c0 202 128 324 401 325h208c-7 114.02 -66 165.02 -171.99 165.02c-88 0 -192 -27 -277.02 -71l-89.9902 205c65 35 216.99 94 396.01 94zM472.98 201.98c135 0 211.01 81.9902 211.01 125.98v108.01l-180 -1c-105 0 -167 -37 -167 -120
c0 -64.9902 47 -112.99 135.99 -112.99zM542.99 -184.01c92 0 166.02 -73.0098 166.02 -164.01c0 -89 -74.0195 -163 -166.02 -163c-91 0 -166 74 -166 163c0 91 75 164.01 166 164.01z" />
    <glyph glyph-name="uni1EA7.alt" horiz-adv-x="1058" 
d="M1064 1328.99h-196.01l-247.99 301l270 -0.990234zM537.99 1288.99l-102 -154h-245l227 306.01h237l239 -306.01h-247l-103 154h-6zM539.99 1017c250 0 408.99 -121.02 408.99 -424.02v-593h-248l-9.99023 87h-5c-68.0195 -56 -165.01 -103.98 -279.01 -103.98
c-224 0 -333 133.98 -333 315.98c0 202 128 324 401 325h208c-7 114.02 -66 165.02 -171.99 165.02c-88 0 -192 -27 -277.02 -71l-89.9902 205c65 35 216.99 94 396.01 94zM472.98 201.98c135 0 211.01 81.9902 211.01 125.98v108.01l-180 -1c-105 0 -167 -37 -167 -120
c0 -64.9902 47 -112.99 135.99 -112.99z" />
    <glyph glyph-name="uni1EA9.alt" horiz-adv-x="1058" 
d="M930.98 1652.98c127.02 0 200.02 -69.0098 200.02 -163.01c0 -83.9902 -68 -140.99 -174 -164.99l-14.9902 -50l-103.02 -2.99023c-20.9902 19.9902 -37.9902 38.9902 -37.9902 62.9902c0 62 159.99 85 159.99 154.02c0 24.9902 -18 37.9902 -49.9902 37.9902
c-50 0 -104 -28 -138 -61l-93 88.9902c53 53 152 98 250.98 98zM539 1288.98l-102.02 -154h-244.98l226.98 306.01h237.02l239 -306.01h-247l-103 154h-6zM540 1016.99c250 0 408.99 -121.02 408.99 -424.02v-593h-248l-9.99023 87h-5
c-68.0195 -56 -165.01 -103.98 -279.01 -103.98c-224 0 -333 133.98 -333 315.98c0 202 128 324 401 325h208c-7 114.02 -66 165.02 -171.99 165.02c-88 0 -192 -27 -277.02 -71l-89.9902 205c65 35 216.99 94 396.01 94zM472.99 201.971
c135 0 211.01 81.9902 211.01 125.98v108.01l-180 -1c-105 0 -167 -37 -167 -120c0 -64.9902 47 -112.99 135.99 -112.99z" />
    <glyph glyph-name="uni1EAB.alt" horiz-adv-x="1058" 
d="M435 1578.99c-36 0 -70.9805 -39.9902 -96.9902 -101.99l-159.99 69c42 136.99 123 238 223.99 238c85.0098 0 122 -30 166 -55.9902c36 -23.0195 70 -45.0195 111 -45.0195c48.9902 0 89.9902 39.0195 114.99 100.01l158 -52c-41 -152 -127 -256 -240.01 -256
c-75 0 -130.99 31 -178.99 61c-39 23 -59.0098 42.9902 -98 42.9902zM419 1441h237.01l239 -306.01h-247l-103 154h-6l-102.01 -154h-244.98zM540.01 1017c250 0 408.99 -121.02 408.99 -424.02v-593h-248l-9.99023 87h-5c-68.0195 -56 -165.01 -103.98 -279.01 -103.98
c-224 0 -333 133.98 -333 315.98c0 202 128 324 401 325h208c-7 114.02 -66 165.02 -171.99 165.02c-88 0 -192 -27 -277.02 -71l-89.9902 205c65 35 216.99 94 396.01 94zM473 201.98c135 0 211.01 81.9902 211.01 125.98v108.01l-180 -1c-105 0 -167 -37 -167 -120
c0 -64.9902 47 -112.99 135.99 -112.99z" />
    <glyph glyph-name="adieresis.alt" horiz-adv-x="1058" 
d="M326.98 1140.98c-93 0 -167 73.0098 -167 164.01c0 89 74 163 167 163c90.0098 0 166.01 -74 166.01 -163c0 -91 -76 -164.01 -166.01 -164.01zM756 1142.98c-91.0098 0 -165.01 73.0195 -165.01 162.01c0 87 74 162 165.01 162c88.9902 0 163.99 -75 163.99 -162
c0 -88.9902 -75 -162.01 -163.99 -162.01zM540 1016.99c250 0 408.99 -121.02 408.99 -424.02v-593h-248l-9.99023 87h-5c-68.0195 -56 -165.01 -103.98 -279.01 -103.98c-224 0 -333 133.98 -333 315.98c0 202 128 324 401 325h208c-7 114.02 -66 165.02 -171.99 165.02
c-88 0 -192 -27 -277.02 -71l-89.9902 205c65 35 216.99 94 396.01 94zM472.99 201.971c135 0 211.01 81.9902 211.01 125.98v108.01l-180 -1c-105 0 -167 -37 -167 -120c0 -64.9902 47 -112.99 135.99 -112.99z" />
    <glyph glyph-name="uni1EA1.alt" horiz-adv-x="1058" 
d="M540 1017c250 0 408.99 -121.02 408.99 -424.02v-593h-248l-9.99023 87h-5c-68.0195 -56 -165.01 -103.98 -279.01 -103.98c-224 0 -333 133.98 -333 315.98c0 202 128 324 401 325h208c-7 114.02 -66 165.02 -171.99 165.02c-88 0 -192 -27 -277.02 -71l-89.9902 205
c65 35 216.99 94 396.01 94zM472.99 201.98c135 0 211.01 81.9902 211.01 125.98v108.01l-180 -1c-105 0 -167 -37 -167 -120c0 -64.9902 47 -112.99 135.99 -112.99zM543 -184.01c92 0 166.02 -73.0098 166.02 -164.01c0 -89 -74.0195 -163 -166.02 -163
c-91 0 -166 74 -166 163c0 91 75 164.01 166 164.01z" />
    <glyph glyph-name="agrave.alt" horiz-adv-x="1058" 
d="M740.99 1139l-259 -0.00976562l-253 302l281 -1zM539.99 1016.99c250 0 408.99 -121.02 408.99 -424.02v-593h-248l-9.99023 87h-5c-68.0195 -56 -165.01 -103.98 -279.01 -103.98c-224 0 -333 133.98 -333 315.98c0 202 128 324 401 325h208
c-7 114.02 -66 165.02 -171.99 165.02c-88 0 -192 -27 -277.02 -71l-89.9902 205c65 35 216.99 94 396.01 94zM472.98 201.971c135 0 211.01 81.9902 211.01 125.98v108.01l-180 -1c-105 0 -167 -37 -167 -120c0 -64.9902 47 -112.99 135.99 -112.99z" />
    <glyph glyph-name="uni1EA3.alt" horiz-adv-x="1058" 
d="M543.99 1350.98c-49.9902 0 -104 -27.9902 -138 -60.9902l-93 88.9902c53 53 152 97 251 97c136.99 0 210.99 -69 210.99 -162c0 -85.0195 -67.9902 -142.02 -184.99 -165.02l-14.9902 -49.9902l-103.02 -3c-20.9902 20.0098 -37.9902 38.0098 -37.9902 62
c0 63.0195 168 86.0195 168 154.01c0 31.0098 -26.9902 39 -58 39zM539.99 1017c250 0 408.99 -121.02 408.99 -424.02v-593h-248l-9.99023 87h-5c-68.0195 -56 -165.01 -103.98 -279.01 -103.98c-224 0 -333 133.98 -333 315.98c0 202 128 324 401 325h208
c-7 114.02 -66 165.02 -171.99 165.02c-88 0 -192 -27 -277.02 -71l-89.9902 205c65 35 216.99 94 396.01 94zM472.98 201.98c135 0 211.01 81.9902 211.01 125.98v108.01l-180 -1c-105 0 -167 -37 -167 -120c0 -64.9902 47 -112.99 135.99 -112.99z" />
    <glyph glyph-name="amacron.alt" horiz-adv-x="1058" 
d="M855 1408v-214.02h-623v214.02h623zM540 1016.99c250 0 408.99 -121.02 408.99 -424.02v-593h-248l-9.99023 87h-5c-68.0195 -56 -165.01 -103.98 -279.01 -103.98c-224 0 -333 133.98 -333 315.98c0 202 128 324 401 325h208c-7 114.02 -66 165.02 -171.99 165.02
c-88 0 -192 -27 -277.02 -71l-89.9902 205c65 35 216.99 94 396.01 94zM472.99 201.971c135 0 211.01 81.9902 211.01 125.98v108.01l-180 -1c-105 0 -167 -37 -167 -120c0 -64.9902 47 -112.99 135.99 -112.99z" />
    <glyph glyph-name="aogonek.alt" horiz-adv-x="1058" 
d="M932.99 0c-104 -18 -166.99 -86.0098 -166.99 -148.01c0 -51 30 -82.9902 83.9902 -82.9902c51.0195 0 60.0098 6 81 13.9902l13 -145c-40 -18 -94.9902 -24.9902 -148.99 -24.9902c-144 0 -232 75.9902 -232 186.99c0 66 43.9902 149 132.99 205.98l4 8
l-8.99023 73.0098h-5c-68.0195 -56 -165.01 -103.98 -279.01 -103.98c-224 0 -333 133.98 -333 315.98c0 202 128 324 401 325h208c-7 114.02 -66 165.02 -171.99 165.02c-88 0 -192 -27 -277.02 -71l-89.9902 205c65 35 216.99 94 396.01 94c250 0 408.99 -121 408.99 -424
v-593h-16zM473 201.98c135 0 211.01 81.9902 211.01 125.98v108.01l-180 -1c-105 0 -167 -37 -167 -120c0 -64.9902 47 -112.99 135.99 -112.99z" />
    <glyph glyph-name="aring.alt" horiz-adv-x="1058" 
d="M541.98 1091.99c-119.99 0 -219.99 90.0098 -219.99 214.01c0 117 91.0098 213.99 220 213.99c123 0 222 -89.9902 222 -214c0 -117 -89.9902 -214 -222.01 -214zM541.98 1385c-42.9902 0 -76.9902 -35.9902 -76.9902 -76.9902c0 -43 34 -76 76.9902 -76
c43 0 77 34 77 77c0 40.9902 -34 75.9902 -77 75.9902zM539.99 1017.01c250 0 408.99 -121.02 408.99 -424.02v-593h-248l-9.99023 87h-5c-68.0195 -56 -165.01 -103.98 -279.01 -103.98c-224 0 -333 133.98 -333 315.98c0 202 128 324 401 325h208
c-7 114.02 -66 165.02 -171.99 165.02c-88 0 -192 -27 -277.02 -71l-89.9902 205c65 35 216.99 94 396.01 94zM472.98 201.99c135 0 211.01 81.9902 211.01 125.98v108.01l-180 -1c-105 0 -167 -37 -167 -120c0 -64.9902 47 -112.99 135.99 -112.99z" />
    <glyph glyph-name="aringacute.alt" horiz-adv-x="1058" 
d="M541.98 1091.99c-119.99 0 -220.01 90.0098 -220.01 214.01c0 117 91.0098 213.99 220 213.99c55 0 104.99 -18 144.01 -48.9902l128 95.9902l285 1l-335.01 -264.99c-1.99023 -116.02 -90.9902 -211.01 -221.99 -211.01zM541.961 1385
c-42.9902 0 -76.9902 -35.9902 -76.9902 -76.9902c0 -43 34 -76 76.9902 -76c43 0 77 34 77 77c0 40.9902 -34 75.9902 -77 75.9902zM539.971 1017.01c250 0 408.99 -121.02 408.99 -424.02v-593h-248l-9.99023 87h-5c-68.0195 -56 -165.01 -103.98 -279.01 -103.98
c-224 0 -333 133.98 -333 315.98c0 202 128 324 401 325h208c-7 114.02 -66 165.02 -171.99 165.02c-88 0 -192 -27 -277.02 -71l-89.9902 205c65 35 216.99 94 396.01 94zM472.961 201.99c135 0 211.01 81.9902 211.01 125.98v108.01l-180 -1c-105 0 -167 -37 -167 -120
c0 -64.9902 47 -112.99 135.99 -112.99z" />
    <glyph glyph-name="atilde.alt" horiz-adv-x="1058" 
d="M419.98 1234.98c-51 0 -88.9414 -39.9805 -114.951 -101.98l-159.99 69c41.9902 136.99 126 237.99 245.99 237.99c84.0098 0 132.01 -30 176 -55.9902c37 -23 69.9902 -45.0195 110.99 -45.0195c49 0 90 39.0195 115.99 100.01l157 -52
c-41 -152 -125.99 -256 -240.01 -256c-75 0 -131 31 -179 61c-39 23 -73 42.9902 -112.02 42.9902zM540.049 1017.01c250 0 408.99 -121.02 408.99 -424.02v-593h-248l-9.99023 87h-5c-68.0195 -56 -165.01 -103.98 -279.01 -103.98c-224 0 -333 133.98 -333 315.98
c0 202 128 324 401 325h208c-7 114.02 -66 165.02 -171.99 165.02c-88 0 -192 -27 -277.02 -71l-89.9902 205c65 35 216.99 94 396.01 94zM473.039 201.99c135 0 211.01 81.9902 211.01 125.98v108.01l-180 -1c-105 0 -167 -37 -167 -120
c0 -64.9902 47 -112.99 135.99 -112.99z" />
    <glyph glyph-name="g.alt" horiz-adv-x="1095" 
d="M636.99 175.98c194 0 424 -51.0391 424 -289.029c0 -176.99 -139 -336.99 -531.99 -336.99c-318.02 0 -487.02 106 -487.02 289.99c0 96.0098 57 174 117 225v4.01953c-46 34 -71 82.9902 -71 146.01c0 69 30 126 115.01 214v6c-52 59 -83 135 -83 221
c0 210 165 361 415.99 361c77 0 147 -14.0098 206 -41.0098l7 1l173 178l152 -151l-168 -156v-14c30 -51 47 -111 47 -177.99c0 -206 -164 -359 -417 -359c-66.9902 0 -129.99 12 -184.99 35h-1.99023c-31 -34 -51.0098 -65.9902 -51.0098 -95.9902
c0 -29 17 -60.0098 98 -60.0098h241zM535.01 807.961c-85.0098 0 -148.01 -66 -148.01 -155.01c0 -86 63 -151 148.01 -151c83.9902 0 146.99 65 146.99 151c0 89.0098 -63 155.01 -146.99 155.01zM514 -232.029c173 0 271.02 43.9902 271.02 113.99
c0 68.0195 -84.0098 81.0098 -199.01 81.0098c-98 0 -195.02 3 -260.02 13c-29 -27 -51 -58 -51 -92c0 -76 79.0195 -116 239.01 -116z" />
    <glyph glyph-name="gbreve.alt" horiz-adv-x="1095" 
d="M536.99 1123.98c-170.99 0 -319.039 109.02 -334.029 308.01h202c5 -71.9902 52 -128.99 132 -128.99c73.0098 0 127 48.9902 131.02 128.99h203c-14 -175.99 -138.99 -308.01 -333.99 -308.01zM636.941 175.98c194 0 424 -51.0391 424 -289.029
c0 -176.99 -139 -336.99 -531.99 -336.99c-318.02 0 -487.02 106 -487.02 289.99c0 96.0098 57 174 117 225v4.01953c-46 34 -71 82.9902 -71 146.01c0 69 30 126 115.01 214v6c-52 59 -83 135 -83 221c0 210 165 361 415.99 361c77 0 147 -14.0098 206 -41.0098l7 1
l173 178l152 -151l-168 -156v-14c30 -51 47 -111 47 -177.99c0 -206 -164 -359 -417 -359c-66.9902 0 -129.99 12 -184.99 35h-1.99023c-31 -34 -51.0098 -65.9902 -51.0098 -95.9902c0 -29 17 -60.0098 98 -60.0098h241zM534.961 807.961
c-85.0098 0 -148.01 -66 -148.01 -155.01c0 -86 63 -151 148.01 -151c83.9902 0 146.99 65 146.99 151c0 89.0098 -63 155.01 -146.99 155.01zM513.951 -232.029c173 0 271.02 43.9902 271.02 113.99c0 68.0195 -84.0098 81.0098 -199.01 81.0098
c-98 0 -195.02 3 -260.02 13c-29 -27 -51 -58 -51 -92c0 -76 79.0195 -116 239.01 -116z" />
    <glyph glyph-name="gcaron.alt" horiz-adv-x="1095" 
d="M654.99 1130.99h-237.01l-232 306.01h245.99l102.02 -154h6l103 154h246zM636.971 175.99c194 0 424 -51.0391 424 -289.029c0 -176.99 -139 -336.99 -531.99 -336.99c-318.02 0 -487.02 106 -487.02 289.99c0 96.0098 57 174 117 225v4.01953
c-46 34 -71 82.9902 -71 146.01c0 69 30 126 115.01 214v6c-52 59 -83 135 -83 221c0 210 165 361 415.99 361c77 0 147 -14.0098 206 -41.0098l7 1l173 178l152 -151l-168 -156v-14c30 -51 47 -111 47 -177.99c0 -206 -164 -359 -417 -359
c-66.9902 0 -129.99 12 -184.99 35h-1.99023c-31 -34 -51.0098 -65.9902 -51.0098 -95.9902c0 -29 17 -60.0098 98 -60.0098h241zM534.99 807.971c-85.0098 0 -148.01 -66 -148.01 -155.01c0 -86 63 -151 148.01 -151c83.9902 0 146.99 65 146.99 151
c0 89.0098 -63 155.01 -146.99 155.01zM513.98 -232.02c173 0 271.02 43.9902 271.02 113.99c0 68.0195 -84.0098 81.0098 -199.01 81.0098c-98 0 -195.02 3 -260.02 13c-29 -27 -51 -58 -51 -92c0 -76 79.0195 -116 239.01 -116z" />
    <glyph glyph-name="gcircumflex.alt" horiz-adv-x="1095" 
d="M519.99 1292.98l-106.02 -158h-244l226 306.01h238.02l238 -306.01h-247zM636.971 175.98c194 0 424 -51.0391 424 -289.029c0 -176.99 -139 -336.99 -531.99 -336.99c-318.02 0 -487.02 106 -487.02 289.99c0 96.0098 57 174 117 225v4.01953
c-46 34 -71 82.9902 -71 146.01c0 69 30 126 115.01 214v6c-52 59 -83 135 -83 221c0 210 165 361 415.99 361c77 0 147 -14.0098 206 -41.0098l7 1l173 178l152 -151l-168 -156v-14c30 -51 47 -111 47 -177.99c0 -206 -164 -359 -417 -359
c-66.9902 0 -129.99 12 -184.99 35h-1.99023c-31 -34 -51.0098 -65.9902 -51.0098 -95.9902c0 -29 17 -60.0098 98 -60.0098h241zM534.99 807.961c-85.0098 0 -148.01 -66 -148.01 -155.01c0 -86 63 -151 148.01 -151c83.9902 0 146.99 65 146.99 151
c0 89.0098 -63 155.01 -146.99 155.01zM513.98 -232.029c173 0 271.02 43.9902 271.02 113.99c0 68.0195 -84.0098 81.0098 -199.01 81.0098c-98 0 -195.02 3 -260.02 13c-29 -27 -51 -58 -51 -92c0 -76 79.0195 -116 239.01 -116z" />
    <glyph glyph-name="gcommaaccent.alt" horiz-adv-x="1095" 
d="M659.99 1146.98l-231 0.00976562c-7 30 -9 55 -9 92c0 169 119.01 257.99 284.01 250.99l55.9902 -151c-81 -24 -112 -53.9805 -112 -113.98c0 -28 4 -45 12 -78.0195zM636.99 175.99c194 0 424 -51.0391 424 -289.029c0 -176.99 -139 -336.99 -531.99 -336.99
c-318.02 0 -487.02 106 -487.02 289.99c0 96.0098 57 174 117 225v4.01953c-46 34 -71 82.9902 -71 146.01c0 69 30 126 115.01 214v6c-52 59 -83 135 -83 221c0 210 165 361 415.99 361c77 0 147 -14.0098 206 -41.0098l7 1l173 178l152 -151l-168 -156v-14
c30 -51 47 -111 47 -177.99c0 -206 -164 -359 -417 -359c-66.9902 0 -129.99 12 -184.99 35h-1.99023c-31 -34 -51.0098 -65.9902 -51.0098 -95.9902c0 -29 17 -60.0098 98 -60.0098h241zM535.01 807.971c-85.0098 0 -148.01 -66 -148.01 -155.01c0 -86 63 -151 148.01 -151
c83.9902 0 146.99 65 146.99 151c0 89.0098 -63 155.01 -146.99 155.01zM514 -232.02c173 0 271.02 43.9902 271.02 113.99c0 68.0195 -84.0098 81.0098 -199.01 81.0098c-98 0 -195.02 3 -260.02 13c-29 -27 -51 -58 -51 -92c0 -76 79.0195 -116 239.01 -116z" />
    <glyph glyph-name="gdotaccent.alt" horiz-adv-x="1095" 
d="M536.99 1136.99c-92 0 -165.99 73.0098 -165.99 164.01c0 89 73.9902 163 165.99 163c91.0098 0 166.01 -74 166.01 -163c0 -91 -75 -164.01 -166.01 -164.01zM636.99 175.99c194 0 424 -51.0391 424 -289.029c0 -176.99 -139 -336.99 -531.99 -336.99
c-318.02 0 -487.02 106 -487.02 289.99c0 96.0098 57 174 117 225v4.01953c-46 34 -71 82.9902 -71 146.01c0 69 30 126 115.01 214v6c-52 59 -83 135 -83 221c0 210 165 361 415.99 361c77 0 147 -14.0098 206 -41.0098l7 1l173 178l152 -151l-168 -156v-14
c30 -51 47 -111 47 -177.99c0 -206 -164 -359 -417 -359c-66.9902 0 -129.99 12 -184.99 35h-1.99023c-31 -34 -51.0098 -65.9902 -51.0098 -95.9902c0 -29 17 -60.0098 98 -60.0098h241zM535.01 807.971c-85.0098 0 -148.01 -66 -148.01 -155.01c0 -86 63 -151 148.01 -151
c83.9902 0 146.99 65 146.99 151c0 89.0098 -63 155.01 -146.99 155.01zM514 -232.02c173 0 271.02 43.9902 271.02 113.99c0 68.0195 -84.0098 81.0098 -199.01 81.0098c-98 0 -195.02 3 -260.02 13c-29 -27 -51 -58 -51 -92c0 -76 79.0195 -116 239.01 -116z" />
    <glyph glyph-name="f.calt" horiz-adv-x="713" 
d="M172.99 0v777.99h-106v222h106v171.99c0 233 116 353 314 353c64 0 122 -11 168 -27l-44.0195 -223.99c-26.9902 9 -49.9902 12.9902 -68.9902 12.9902c-63 0 -100.99 -36.9902 -100.99 -134.99v-152h222.99v-222h-222.99v-777.99h-268z" />
    <glyph glyph-name="j.calt" horiz-adv-x="527" 
d="M263.98 1146.98c-92 0 -166 73.0098 -166 164.01c0 89 74 163 166 163c90.9902 0 166.01 -74 166.01 -163c0 -91 -75.0195 -164.01 -166.01 -164.01zM5.98047 -186c8 -1 34.0195 -2 43.0098 -2c64 0 84.0098 46 84.0098 139v1049h268v-1060
c0 -240.99 -101 -361.99 -285 -361.99c-53 0 -104.02 4 -142.01 11.9902z" />
    <glyph glyph-name="uni0237.calt" horiz-adv-x="527" 
d="M5.98047 -186c8 -1 34.0195 -2 43.0098 -2c64 0 84.0098 46 84.0098 139v1049h268v-1060c0 -240.99 -101 -361.99 -285 -361.99c-53 0 -104.02 4 -142.01 11.9902z" />
    <glyph glyph-name="jcircumflex.calt" horiz-adv-x="527" 
d="M258.99 1294.99l-102.01 -154h-245l227 306.01h237l239 -306.01h-247l-102.99 154h-6zM132.98 -49l0.00976562 1049h268v-1060c0 -240.99 -101 -361.99 -285 -361.99c-53 0 -104.02 4 -142.01 11.9902l31.9902 224c8 -1 34.0098 -2 43 -2c64 0 84.0098 46 84.0098 139z
" />
    <glyph glyph-name="germandbls.calt" horiz-adv-x="1582" 
d="M1100.98 869.99c242.02 -95.0098 431 -165 431 -439c0 -318 -279 -447.98 -488 -447.98c-146 0 -309 52.9805 -450 169.98l132.02 249c106 -107.99 233 -158.99 320 -158.99c118.99 0 185 64 185 153.99c0 108.02 -77 146.01 -253 207.01
c-78.9902 26.9902 -157.99 60.9902 -244.01 108.99h-1.99023l250 478v5c-105 13 -201.01 20.9902 -269 20.9902c-188 0 -295.99 -70 -296.99 -264.99l-1 -951.01h-284l1 965c1 368 218.99 506.02 556.99 506.02c172 0 445 -39.0195 678 -97.0195l-266.02 -502v-2.99023z" />
    <glyph glyph-name="a.smcp" horiz-adv-x="1227" 
d="M925 0l-77.0195 214h-469.01l-76 -214h-280.98l461.99 1190.99h256l465 -1190.99h-279.98zM458.98 436.99h309l-153 426h-4.01953z" />
    <glyph glyph-name="aacute.smcp" horiz-adv-x="1227" 
d="M1002.99 1634.98l-253.99 -302h-259.01l232 301.02zM925 0l-77.0195 214h-469.01l-76 -214h-280.98l461.99 1190.99h256l465 -1190.99h-279.98zM458.98 436.99h309l-153 426h-4.01953z" />
    <glyph glyph-name="abreve.smcp" horiz-adv-x="1227" 
d="M612.99 1323.99c-170.99 0 -319.02 108.99 -334.02 307.99h202c5 -72 52 -129 132 -129c73.0098 0 127 49 131.02 129h203c-14.0098 -176 -139 -307.99 -334 -307.99zM924.971 -0.00976562l-77.0195 214h-469.01l-76 -214h-280.98l461.99 1190.99h256l465 -1190.99
h-279.98zM458.951 436.98h309l-153 426h-4.01953z" />
    <glyph glyph-name="uni1EAF.smcp" horiz-adv-x="1227" 
d="M996.99 1673.99l-298.01 -212h-192.99l208 210zM612.98 1240.99c-177.99 0 -304 86 -350 243h173.02c25.9902 -70 90.9902 -105.99 176.99 -105.99c87 0 151 35.9902 177.01 105.99h173c-45 -157 -171.02 -243 -350.02 -243zM925 0l-77.0195 214h-469.01l-76 -214
h-280.98l461.99 1190.99h256l465 -1190.99h-279.98zM458.98 436.99h309l-153 426h-4.01953z" />
    <glyph glyph-name="uni1EB7.smcp" horiz-adv-x="1227" 
d="M613.99 1323.99c-171 0 -319.02 108.99 -334.029 307.99h202.02c5 -72 52 -129 132 -129c72.9902 0 126.99 49 130.99 129h203.02c-14 -176 -139.01 -307.99 -334 -307.99zM1204.95 -0.00976562h-280l-77 214h-469.01l-76 -214h-280.98l461.99 1190.99h256z
M458.951 436.971h309l-153 426h-4.01953zM612.932 -183.999c92 0 166.02 -73.0098 166.02 -164.01c0 -89 -74.0195 -163 -166.02 -163c-91 0 -166 74 -166 163c0 91 75 164.01 166 164.01z" />
    <glyph glyph-name="uni1EB1.smcp" horiz-adv-x="1227" 
d="M719.99 1461.99h-193.01l-298 212l283.02 -2zM436.971 1483.99c26.0098 -70 90.0195 -105.99 177.02 -105.99c86 0 151 35.9902 176.01 105.99h174c-46 -157 -172.02 -243 -350.01 -243c-179 0 -305.02 86 -350.02 243h173zM925 0.00976562l-77.0195 214h-469.01
l-76 -214h-280.98l461.99 1190.99h256l465 -1190.99h-279.98zM458.98 437h309l-153 426h-4.01953z" />
    <glyph glyph-name="uni1EB3.smcp" horiz-adv-x="1227" 
d="M606.99 1599c-45 0 -92.9805 -24.9902 -123.99 -53.9902l-81.9805 80c47 47 134.98 86 223.98 86c110 0 175 -58 175 -138c0 -69 -60 -120 -150.99 -141.01l-14.0098 -24.9902l-55.9902 -1c-32.0195 0 -51.0098 13 -51.0098 36.9805c0 53 129.99 74.0098 129.99 124.01
c0 25 -22 32 -51 32zM614.01 1241c-179 0 -305 86 -350 243h173c26.0098 -70 90.0098 -105.99 177.01 -105.99c83 0 149.99 34 176 105.99h174c-46 -157 -172.02 -243 -350.01 -243zM925.029 0.00976562l-77.0195 214h-469.01l-76 -214h-280.98l461.99 1190.99h256
l465 -1190.99h-279.98zM459.01 437h309l-153 426h-4.01953z" />
    <glyph glyph-name="uni1EB5.smcp" horiz-adv-x="1227" 
d="M488.98 1588.98c-29 0 -64.0098 -28.9902 -88 -73.9902l-126.02 44c36 93 108.01 158.99 197 158.99c69.0195 0 117.01 -28 160.01 -48.9902c31 -15.0098 58 -28.0098 92 -28.0098c42 0 78.9902 29 102.99 74.0195l124 -32.0195c-36 -105 -111 -170.99 -206.99 -170.99
c-59 0 -107 22 -150 42.9902c-37.9902 18 -71.9902 34 -104.99 34zM612.971 1240.99c-177.99 0 -304 86 -350 243h173.02c25.9902 -70 90.9902 -105.99 176.99 -105.99c87 0 151 35.9902 177.01 105.99h173c-45 -157 -171.02 -243 -350.02 -243zM924.99 0l-77.0195 214
h-469.01l-76 -214h-280.98l461.99 1190.99h256l465 -1190.99h-279.98zM458.971 436.99h309l-153 426h-4.01953z" />
    <glyph glyph-name="acircumflex.smcp" horiz-adv-x="1227" 
d="M607.99 1484.98l-102.01 -153.99h-245l227 305.99h237l239 -305.99h-247l-102.99 153.99h-6zM924.98 -0.00976562l-77.0195 214h-469.01l-76 -214h-280.98l461.99 1190.99h256l465 -1190.99h-279.98zM458.961 436.98h309l-153 426h-4.01953z" />
    <glyph glyph-name="uni1EA5.smcp" horiz-adv-x="1227" 
d="M1419 1693l-305.02 -301.02h-200l232.02 300.02zM608.98 1451.98l-102.02 -154h-245l227 306.01h237.02l239 -306.01h-247l-103 154h-6zM483.961 1190.99h255.98l465 -1190.99h-279.98l-77 214h-469.01l-76 -214h-280.98zM458.961 436.98h309l-153 426h-4.01953z" />
    <glyph glyph-name="uni1EAD.smcp" horiz-adv-x="1227" 
d="M608.99 1484.98l-102.02 -153.99h-245l227 305.99h237.02l239 -305.99h-247l-103 153.99h-6zM1204.97 -0.00976562h-280l-77 214h-469.01l-76 -214h-280.98l461.99 1190.99h256zM458.971 436.971h309l-153 426h-4.01953zM612.951 -183.999
c92 0 166.02 -73.0098 166.02 -164.01c0 -89 -74.0195 -163 -166.02 -163c-91 0 -166 74 -166 163c0 91 75 164.01 166 164.01z" />
    <glyph glyph-name="uni1EA7.smcp" horiz-adv-x="1227" 
d="M1218.99 1391.98l-195.99 0.00976562l-248.02 302l270.01 -0.990234zM610 1451.99l-102.02 -154h-245l227 306.01h237.02l238.99 -306.01h-246.99l-103 154h-6zM483.98 1191h255.98l465 -1190.99h-279.98l-77 214h-469.01l-76 -214h-280.98zM458.98 436.99h309l-153 426
h-4.01953z" />
    <glyph glyph-name="uni1EA9.smcp" horiz-adv-x="1227" 
d="M1079.99 1710c127 0 200.02 -69.0098 200.02 -162.01c0 -83.9902 -68.0195 -140.99 -174.02 -164.99l-14.9902 -50l-103 -2.99023c-21.0195 19.9902 -38.0195 38.9902 -38.0195 61.9902c0 63 160 86 160 155.02c0 24.9902 -18 37.9902 -50 37.9902
c-49.9902 0 -103.99 -28 -137.99 -61l-93 88.9902c53 53 152 97 251 97zM606.99 1452.01l-102 -154h-245l227 306.01h237l239 -306.01h-247l-103 154h-6zM483.971 1191.02h255.98l465 -1190.99h-279.98l-77 214h-469.01l-76 -214h-280.98zM458.971 437.01h309l-153 426
h-4.01953z" />
    <glyph glyph-name="uni1EAB.smcp" horiz-adv-x="1227" 
d="M488.98 1588.98c-29 0 -64.0098 -28.9902 -88 -73.9902l-126.02 44c36 93 108.01 158.99 197 158.99c69.0195 0 117.01 -28 160.01 -48.9902c31 -15.0098 58 -28.0098 92 -28.0098c42 0 78.9902 29 102.99 74.0195l124 -32.0195c-36 -105 -111 -170.99 -206.99 -170.99
c-59 0 -107 22 -150 42.9902c-37.9902 18 -71.9902 34 -104.99 34zM606.971 1363.99l-122 -124.99h-235.99l246.99 238.99h220l258 -238.99h-238l-123 124.99h-6zM924.98 0l-77.0195 214h-469.01l-76 -214h-280.98l461.99 1190.99h256l465 -1190.99h-279.98zM458.961 436.99
h309l-153 426h-4.01953z" />
    <glyph glyph-name="adieresis.smcp" horiz-adv-x="1227" 
d="M396.98 1337c-93 0 -166.99 72.9902 -166.99 164c0 88.9902 73.9902 163.01 166.99 163.01c90.0098 0 166.01 -74.0195 166.01 -163.01c0 -91.0098 -76 -164 -166.01 -164zM826 1338.99c-91.0098 0 -165.01 73.0098 -165.01 162.01c0 87 74 162 165.01 162
c88.9902 0 163.99 -75 163.99 -162c0 -89 -75 -162.01 -163.99 -162.01zM925 0.00976562l-77.0195 214h-469.01l-76 -214h-280.98l461.99 1190.99h256l465 -1190.99h-279.98zM458.98 437h309l-153 426h-4.01953z" />
    <glyph glyph-name="uni1EA1.smcp" horiz-adv-x="1227" 
d="M1204.98 0h-280l-77 214h-469.01l-76 -214h-280.98l461.99 1190.99h256zM458.98 436.98h309l-153 426h-4.01953zM612.961 -183.989c92 0 166.02 -73.0098 166.02 -164.01c0 -89 -74.0195 -163 -166.02 -163c-91 0 -166 74 -166 163c0 91 75 164.01 166 164.01z" />
    <glyph glyph-name="agrave.smcp" horiz-adv-x="1227" 
d="M740.99 1332.98h-259l-253 302l281 -0.980469zM924.99 0l-77.0195 214h-469.01l-76 -214h-280.98l461.99 1190.99h256l465 -1190.99h-279.98zM458.971 436.99h309l-153 426h-4.01953z" />
    <glyph glyph-name="uni1EA3.smcp" horiz-adv-x="1227" 
d="M613.99 1547c-50 0 -104.01 -27.9902 -138.01 -60.9902l-93 89c53 53 152 96.9902 251 96.9902c137 0 210.99 -69 210.99 -162c0 -85 -67.9902 -142.02 -184.99 -165.02l-14.9902 -49.9902l-103.02 -3c-20.9902 20 -37.9902 38 -37.9902 62c0 63 168 86 168 154
c0 31.0098 -26.9902 39.0098 -57.9902 39.0098zM924.98 0.0292969l-77.0195 214h-469.01l-76 -214h-280.98l461.99 1190.99h256l465 -1190.99h-279.98zM458.961 437.02h309l-153 426h-4.01953z" />
    <glyph glyph-name="q.alt.smcp" horiz-adv-x="1428" 
d="M1347.99 -64l-161.029 -200.02l-321.98 262c-47 -10 -98 -15 -150 -15c-375.01 0 -633.01 255.98 -633.01 615c0 355 258 610 633.01 610c365 0 631 -247.99 631 -609.99c0 -206 -83.9902 -375 -223.01 -482.99zM361.961 597.98c0 -203 144.02 -362.01 353.02 -362.01
c204.99 0 351.99 154.99 351.99 362.01c0 203 -147 356.99 -351.99 356.99c-209 0 -353.02 -157 -353.02 -356.99z" />
    <glyph glyph-name="amacron.smcp" horiz-adv-x="1227" 
d="M925 1603.99v-214h-623v214h623zM925 -0.00976562l-77.0195 214h-469.01l-76 -214h-280.98l461.99 1190.99h256l465 -1190.99h-279.98zM458.98 436.98h309l-153 426h-4.01953z" />
    <glyph glyph-name="aogonek.smcp" horiz-adv-x="1227" 
d="M1083.99 -230.99c51 0 60 6 80.9902 13.9902l13 -145c-40 -18 -95 -24.9902 -148.99 -24.9902c-144.02 0 -232.01 75.9902 -232.01 186.99c0 64 41.9902 146 127.01 203l-76 211h-469.01l-76 -214h-280.98l461.99 1190.99h256l465 -1190.99h-37.9902
c-104 -18 -167 -86 -167 -148c0 -51 29.9902 -82.9902 83.9902 -82.9902zM458.99 436.979h309l-153 426h-4.01953z" />
    <glyph glyph-name="aring.smcp" horiz-adv-x="1227" 
d="M611.98 1287.99c-119.99 0 -219.98 90 -219.98 213.99c0 117 90.9902 214.02 219.99 214.02c123 0 222 -90.0098 222 -214.01c0 -117 -89.9902 -214 -222.01 -214zM611.99 1580.98c-42.9902 0 -76.9902 -36 -76.9902 -77c0 -43 34 -76 76.9902 -76c43 0 77 34 77 77
c0 41 -34 76 -77 76zM925.01 -0.00976562l-77.0195 214h-469.01l-76 -214h-280.98l461.99 1190.99h256l465 -1190.99h-279.98zM458.99 436.98h309l-153 426h-4.01953z" />
    <glyph glyph-name="aringacute.smcp" horiz-adv-x="1227" 
d="M611.98 1287.99c-119.99 0 -219.99 90 -219.99 213.99c0 117 90.9902 214.02 219.99 214.02c71 0 134 -30 175 -79l82 61.9902l251 2l-287.98 -228c-13 -104 -99 -185 -220.02 -185zM611.98 1580.98c-42.9902 0 -76.9902 -36 -76.9902 -77c0 -43 34 -76 76.9902 -76
c43 0 77 34 77 77c0 41 -34 76 -77 76zM925 -0.00976562l-77.0195 214h-469.01l-76 -214h-280.98l461.99 1190.99h256l465 -1190.99h-279.98zM458.98 436.98h309l-153 426h-4.01953z" />
    <glyph glyph-name="atilde.smcp" horiz-adv-x="1227" 
d="M489.98 1431c-51 0 -88.9609 -39.9805 -114.971 -101.98l-159.99 69c41.9902 137 126 237.99 245.99 237.99c84.0098 0 132.01 -30 176 -55.9902c37 -23 70 -45 111 -45c49 0 89.9902 39 115.99 99.9902l157 -52c-41 -151.99 -125.99 -256.01 -240.01 -256.01
c-75 0 -131 31 -179 61c-38.9902 23 -72.9902 43 -112.01 43zM925.029 0.0390625l-77.0195 214h-469.01l-76 -214h-280.98l461.99 1190.99h256l465 -1190.99h-279.98zM459.01 437.029h309l-153 426h-4.01953z" />
    <glyph glyph-name="ae.smcp" horiz-adv-x="1671" 
d="M1008.99 238.98h597v-238.98h-860v215.98h-351.99l-109 -215.98h-283.01l608.01 1190.99h960.98v-239h-561.99v-257h460v-224.99h-460v-231.02zM507.99 441h237.99v466.99h-2.99023z" />
    <glyph glyph-name="aeacute.smcp" horiz-adv-x="1671" 
d="M1167.99 1636.99l-254.01 -302h-258.99l232 301zM1008.98 238.99h597v-238.98h-860v215.98h-351.99l-109 -215.98h-283.01l608.01 1190.99h960.98v-239h-561.99v-257h460v-224.99h-460v-231.02zM507.98 441.01h237.99v466.99h-2.99023z" />
    <glyph glyph-name="b.smcp" horiz-adv-x="1154" 
d="M850.98 634.98c164 -46 241 -156.99 241 -303.98c0 -193 -134 -330.99 -407 -330.99h-545.01v1190.99h474.01c273 0 413 -106 413 -291c0 -97.0195 -42 -205.01 -176 -261v-4.01953zM405.99 955.99v-242h185c96.9902 0 164.01 40 164.01 123.99
c0 67.0098 -39.0195 118.01 -177.02 118.01h-171.99zM617.98 233.98c126.02 0 193 45.0098 193 131.01c0 82 -49.9902 136.99 -190.99 136.99h-214v-268h211.99z" />
    <glyph glyph-name="c.smcp" horiz-adv-x="1264" 
d="M715.98 -17c-339.99 0 -633.971 211.98 -633.971 609.98c0 338.99 228 613.99 634 613.99c169 0 357 -66.9902 494 -229.99l-197.02 -168.02c-65.9902 74.0195 -174.01 141.01 -297.01 141.01c-198.99 0 -354.01 -134 -354.01 -356.99c0 -200 142 -353 353.99 -353
c118 0 229 57 297 140l197.02 -169c-107 -128 -276 -227.98 -494 -227.98z" />
    <glyph glyph-name="cacute.smcp" horiz-adv-x="1264" 
d="M544.99 1332.98l232.01 301.02l281 0.980469l-254.02 -302h-258.99zM716 -16.9902c-339.99 0 -633.971 211.98 -633.971 609.98c0 338.99 228 613.99 634 613.99c169 0 357 -66.9902 494 -229.99l-197.02 -168.02c-65.9902 74.0195 -174.01 141.01 -297.01 141.01
c-198.99 0 -354.01 -134 -354.01 -356.99c0 -200 142 -353 353.99 -353c118 0 229 57 297 140l197.02 -169c-107 -128 -276 -227.98 -494 -227.98z" />
    <glyph glyph-name="ccaron.smcp" horiz-adv-x="1264" 
d="M832.98 1331h-236.99l-232 305.99h246l101.99 -153.99h6l103 153.99h246zM715.99 239.98c118 0 229.029 56.9902 297.029 139.99l197.02 -169c-107 -128 -276 -227.98 -494 -227.98c-339.99 0 -634 211.99 -634 609.99c0 338.99 228 613.99 634 613.99
c169 0 357 -66.9902 494 -229.99l-197.02 -168.02c-65.9902 74.0195 -174.01 141.01 -297.01 141.01c-198.99 0 -354.01 -134 -354.01 -356.99c0 -200 142 -353 353.99 -353z" />
    <glyph glyph-name="ccedilla.smcp" horiz-adv-x="1264" 
d="M715.98 239.98l0.0585938 -0.000976562c118 0 229 57 297 140l197.02 -169c-103.02 -123 -263.01 -219.97 -468.01 -227.97l-22 -42l1.99023 -2.99023c121.02 -5 188.01 -62.0195 188.01 -165.02c0 -93 -72.9902 -162 -251.01 -162c-59 0 -94 6 -124.99 12v120
c25.9902 -8.99023 55.9902 -13.9902 104.99 -13.9902c46 0 98 14.9902 98 57.9902c0 36.9902 -59 65.9902 -168 65.9902v76l29 59v4c-287.01 43.9902 -516.01 249.99 -516.01 600.99c0 338.99 228 613.99 634 613.99c169 0 357 -66.9902 494 -229.99l-197.02 -168.02
c-65.9902 74.0195 -174.01 141.01 -297.01 141.01c-198.99 0 -354.01 -134 -354.01 -356.99c0 -200 142 -353 353.99 -353z" />
    <glyph glyph-name="ccircumflex.smcp" horiz-adv-x="1264" 
d="M710.98 1484.98l-101.99 -153.99h-245l227 305.99h237l239 -305.99h-246.99l-103.02 153.99h-6zM715.98 239.971c118 0 229.029 56.9902 297.029 139.99l197.02 -169c-107 -128 -276 -227.98 -494 -227.98c-339.99 0 -634 211.99 -634 609.99
c0 338.99 228 613.99 634 613.99c169 0 357 -66.9902 494 -229.99l-197.02 -168.02c-65.9902 74.0195 -174.01 141.01 -297.01 141.01c-198.99 0 -354.01 -134 -354.01 -356.99c0 -200 142 -353 353.99 -353z" />
    <glyph glyph-name="cdotaccent.smcp" horiz-adv-x="1264" 
d="M715.98 1337c-92 0 -165.99 72.9902 -165.99 164c0 88.9902 73.9902 163.01 165.99 163.01c91.0098 0 166.01 -74.0195 166.01 -163.01c0 -91.0098 -75 -164 -166.01 -164zM715.98 -16.9902c-339.99 0 -633.971 211.98 -633.971 609.98c0 338.99 228 613.99 634 613.99
c169 0 357 -66.9902 494 -229.99l-197.02 -168.02c-65.9902 74.0195 -174.01 141.01 -297.01 141.01c-198.99 0 -354.01 -134 -354.01 -356.99c0 -200 142 -353 353.99 -353c118 0 229 57 297 140l197.02 -169c-107 -128 -276 -227.98 -494 -227.98z" />
    <glyph glyph-name="d.smcp" horiz-adv-x="1297" 
d="M139.98 0l-0.00976562 1190.99h423.02c397 0 650.99 -246 650.99 -596c0 -350.99 -241 -594.99 -645.99 -594.99h-428.01zM402.971 238.98l147.99 0.0195312c232 0 384 155 384 355.99c0 204 -154 357 -366.99 357h-165v-713.01z" />
    <glyph glyph-name="eth.smcp" horiz-adv-x="1297" 
d="M563 1190.99c397 0 650.98 -246.01 650.98 -596.01c0 -350.99 -241 -594.99 -645.99 -594.99h-428.01v471.98h-105v220.02h105v499h423.02zM550.99 238.971c232 0 383.99 155.029 383.99 356.02c0 204 -154 357 -366.99 357h-165v-260h249v-220.02h-249v-233h148z" />
    <glyph glyph-name="dcaron.smcp" horiz-adv-x="1297" 
d="M748.99 1329.99h-236.99l-232.02 305.99h246l102.01 -153.99h6l103 153.99h246zM563 1190.99c397 0 650.98 -246 650.98 -596c0 -350.99 -241 -594.99 -645.99 -594.99h-428.01v1190.99h423.02zM550.99 238.98c232 0 383.99 155.02 383.99 356.01
c0 204 -154 357 -366.99 357h-165v-713.01h148z" />
    <glyph glyph-name="dcroat.smcp" horiz-adv-x="1297" 
d="M563 1190.99c397 0 650.98 -246.01 650.98 -596.01c0 -350.99 -241 -594.99 -645.99 -594.99h-428.01v471.98h-105v220.02h105v499h423.02zM550.99 238.971c232 0 383.99 155.029 383.99 356.02c0 204 -154 357 -366.99 357h-165v-260h249v-220.02h-249v-233h148z" />
    <glyph glyph-name="e.smcp" horiz-adv-x="1074" 
d="M137.99 0v1191h820v-239h-555.01v-256h445.01v-225h-445.01v-232.02h593v-238.98h-857.99z" />
    <glyph glyph-name="eacute.smcp" horiz-adv-x="1074" 
d="M337.98 1333.99l232.02 301l280.98 1l-253.99 -302h-259.01zM138 0.00976562v1191h820v-239h-555.01v-256h445.01v-225h-445.01v-232.02h593v-238.98h-857.99z" />
    <glyph glyph-name="ebreve.smcp" horiz-adv-x="1074" 
d="M554.99 1322.99c-170.99 0 -319.02 109.01 -334.02 308.01h202c5 -71.9902 52 -129.01 132 -129.01c73.0098 0 127 49 131.02 129h203c-14.0098 -176 -139 -308 -334 -308zM137.961 0.00976562v1191h820v-239h-555.01v-256h445.01v-225h-445.01v-232.02h593v-238.98
h-857.99z" />
    <glyph glyph-name="ecaron.smcp" horiz-adv-x="1074" 
d="M671.99 1329.99h-237l-232 305.99h245.99l102.01 -153.99h6l103 153.99h246zM402.971 238.98l593 0.00976562v-238.98h-857.99v1190.99h820v-239h-555.01v-256h445.01v-225h-445.01v-232.02z" />
    <glyph glyph-name="ecircumflex.smcp" horiz-adv-x="1074" 
d="M549.99 1483.98l-102.01 -153.99h-245l227 305.99h237l239 -305.99h-247l-102.99 153.99h-6zM402.961 238.98l593 0.00976562v-238.98h-857.99v1190.99h820v-239h-555.01v-256h445.01v-225h-445.01v-232.02z" />
    <glyph glyph-name="uni1EBF.smcp" horiz-adv-x="1074" 
d="M1088 1690.99l272.99 1.00977l-305.01 -301.02h-200zM550.99 1451l-102.02 -153.99h-245l227 306h237.02l239 -306h-247l-103 153.99h-6zM402.971 471.01v-232.01h593v-238.98h-857.99v1190.99h820v-239h-555.01v-256h445.01v-225h-445.01z" />
    </font>
</defs>
</svg>
